<?xml version="1.0" encoding="utf-8" standalone="no"?>
<!DOCTYPE svg PUBLIC "-//W3C//DTD SVG 1.1//EN"
  "http://www.w3.org/Graphics/SVG/1.1/DTD/svg11.dtd">
<svg xmlns:xlink="http://www.w3.org/1999/xlink" width="386.502969pt" height="285.716719pt" viewBox="0 0 386.502969 285.716719" xmlns="http://www.w3.org/2000/svg" version="1.1">
 <metadata>
  <rdf:RDF xmlns:dc="http://purl.org/dc/elements/1.1/" xmlns:cc="http://creativecommons.org/ns#" xmlns:rdf="http://www.w3.org/1999/02/22-rdf-syntax-ns#">
   <cc:Work>
    <dc:type rdf:resource="http://purl.org/dc/dcmitype/StillImage"/>
    <dc:date>2025-11-21T14:50:57.033951</dc:date>
    <dc:format>image/svg+xml</dc:format>
    <dc:creator>
     <cc:Agent>
      <dc:title>Matplotlib v3.10.3, https://matplotlib.org/</dc:title>
     </cc:Agent>
    </dc:creator>
   </cc:Work>
  </rdf:RDF>
 </metadata>
 <defs>
  <style type="text/css">*{stroke-linejoin: round; stroke-linecap: butt}</style>
 </defs>
 <g id="figure_1">
  <g id="patch_1">
   <path d="M 0 285.716719 
L 386.502969 285.716719 
L 386.502969 0 
L 0 0 
z
" style="fill: #ffffff"/>
  </g>
  <g id="axes_1">
   <g id="patch_2">
    <path d="M 44.502969 243.695625 
L 379.302969 243.695625 
L 379.302969 21.935625 
L 44.502969 21.935625 
z
" style="fill: #ffffff"/>
   </g>
   <g id="matplotlib.axis_1">
    <g id="xtick_1">
     <g id="line2d_1">
      <path d="M 59.721151 243.695625 
L 59.721151 21.935625 
" clip-path="url(#p43ead8043b)" style="fill: none; stroke: #cccccc; stroke-linecap: round"/>
     </g>
     <g id="text_1">
      <!-- 0 -->
      <g style="fill: #262626" transform="translate(56.662635 261.069219) scale(0.11 -0.11)">
       <defs>
        <path id="ArialMT-30" d="M 266 2259 
Q 266 3072 433 3567 
Q 600 4063 929 4331 
Q 1259 4600 1759 4600 
Q 2128 4600 2406 4451 
Q 2684 4303 2865 4023 
Q 3047 3744 3150 3342 
Q 3253 2941 3253 2259 
Q 3253 1453 3087 958 
Q 2922 463 2592 192 
Q 2263 -78 1759 -78 
Q 1097 -78 719 397 
Q 266 969 266 2259 
z
M 844 2259 
Q 844 1131 1108 757 
Q 1372 384 1759 384 
Q 2147 384 2411 759 
Q 2675 1134 2675 2259 
Q 2675 3391 2411 3762 
Q 2147 4134 1753 4134 
Q 1366 4134 1134 3806 
Q 844 3388 844 2259 
z
" transform="scale(0.015625)"/>
       </defs>
       <use xlink:href="#ArialMT-30"/>
      </g>
     </g>
    </g>
    <g id="xtick_2">
     <g id="line2d_2">
      <path d="M 110.448423 243.695625 
L 110.448423 21.935625 
" clip-path="url(#p43ead8043b)" style="fill: none; stroke: #cccccc; stroke-linecap: round"/>
     </g>
     <g id="text_2">
      <!-- 100 -->
      <g style="fill: #262626" transform="translate(101.272876 261.069219) scale(0.11 -0.11)">
       <defs>
        <path id="ArialMT-31" d="M 2384 0 
L 1822 0 
L 1822 3584 
Q 1619 3391 1289 3197 
Q 959 3003 697 2906 
L 697 3450 
Q 1169 3672 1522 3987 
Q 1875 4303 2022 4600 
L 2384 4600 
L 2384 0 
z
" transform="scale(0.015625)"/>
       </defs>
       <use xlink:href="#ArialMT-31"/>
       <use xlink:href="#ArialMT-30" transform="translate(55.615234 0)"/>
       <use xlink:href="#ArialMT-30" transform="translate(111.230469 0)"/>
      </g>
     </g>
    </g>
    <g id="xtick_3">
     <g id="line2d_3">
      <path d="M 161.175696 243.695625 
L 161.175696 21.935625 
" clip-path="url(#p43ead8043b)" style="fill: none; stroke: #cccccc; stroke-linecap: round"/>
     </g>
     <g id="text_3">
      <!-- 200 -->
      <g style="fill: #262626" transform="translate(152.000149 261.069219) scale(0.11 -0.11)">
       <defs>
        <path id="ArialMT-32" d="M 3222 541 
L 3222 0 
L 194 0 
Q 188 203 259 391 
Q 375 700 629 1000 
Q 884 1300 1366 1694 
Q 2113 2306 2375 2664 
Q 2638 3022 2638 3341 
Q 2638 3675 2398 3904 
Q 2159 4134 1775 4134 
Q 1369 4134 1125 3890 
Q 881 3647 878 3216 
L 300 3275 
Q 359 3922 746 4261 
Q 1134 4600 1788 4600 
Q 2447 4600 2831 4234 
Q 3216 3869 3216 3328 
Q 3216 3053 3103 2787 
Q 2991 2522 2730 2228 
Q 2469 1934 1863 1422 
Q 1356 997 1212 845 
Q 1069 694 975 541 
L 3222 541 
z
" transform="scale(0.015625)"/>
       </defs>
       <use xlink:href="#ArialMT-32"/>
       <use xlink:href="#ArialMT-30" transform="translate(55.615234 0)"/>
       <use xlink:href="#ArialMT-30" transform="translate(111.230469 0)"/>
      </g>
     </g>
    </g>
    <g id="xtick_4">
     <g id="line2d_4">
      <path d="M 211.902969 243.695625 
L 211.902969 21.935625 
" clip-path="url(#p43ead8043b)" style="fill: none; stroke: #cccccc; stroke-linecap: round"/>
     </g>
     <g id="text_4">
      <!-- 300 -->
      <g style="fill: #262626" transform="translate(202.727422 261.069219) scale(0.11 -0.11)">
       <defs>
        <path id="ArialMT-33" d="M 269 1209 
L 831 1284 
Q 928 806 1161 595 
Q 1394 384 1728 384 
Q 2125 384 2398 659 
Q 2672 934 2672 1341 
Q 2672 1728 2419 1979 
Q 2166 2231 1775 2231 
Q 1616 2231 1378 2169 
L 1441 2663 
Q 1497 2656 1531 2656 
Q 1891 2656 2178 2843 
Q 2466 3031 2466 3422 
Q 2466 3731 2256 3934 
Q 2047 4138 1716 4138 
Q 1388 4138 1169 3931 
Q 950 3725 888 3313 
L 325 3413 
Q 428 3978 793 4289 
Q 1159 4600 1703 4600 
Q 2078 4600 2393 4439 
Q 2709 4278 2876 4000 
Q 3044 3722 3044 3409 
Q 3044 3113 2884 2869 
Q 2725 2625 2413 2481 
Q 2819 2388 3044 2092 
Q 3269 1797 3269 1353 
Q 3269 753 2831 336 
Q 2394 -81 1725 -81 
Q 1122 -81 723 278 
Q 325 638 269 1209 
z
" transform="scale(0.015625)"/>
       </defs>
       <use xlink:href="#ArialMT-33"/>
       <use xlink:href="#ArialMT-30" transform="translate(55.615234 0)"/>
       <use xlink:href="#ArialMT-30" transform="translate(111.230469 0)"/>
      </g>
     </g>
    </g>
    <g id="xtick_5">
     <g id="line2d_5">
      <path d="M 262.630241 243.695625 
L 262.630241 21.935625 
" clip-path="url(#p43ead8043b)" style="fill: none; stroke: #cccccc; stroke-linecap: round"/>
     </g>
     <g id="text_5">
      <!-- 400 -->
      <g style="fill: #262626" transform="translate(253.454695 261.069219) scale(0.11 -0.11)">
       <defs>
        <path id="ArialMT-34" d="M 2069 0 
L 2069 1097 
L 81 1097 
L 81 1613 
L 2172 4581 
L 2631 4581 
L 2631 1613 
L 3250 1613 
L 3250 1097 
L 2631 1097 
L 2631 0 
L 2069 0 
z
M 2069 1613 
L 2069 3678 
L 634 1613 
L 2069 1613 
z
" transform="scale(0.015625)"/>
       </defs>
       <use xlink:href="#ArialMT-34"/>
       <use xlink:href="#ArialMT-30" transform="translate(55.615234 0)"/>
       <use xlink:href="#ArialMT-30" transform="translate(111.230469 0)"/>
      </g>
     </g>
    </g>
    <g id="xtick_6">
     <g id="line2d_6">
      <path d="M 313.357514 243.695625 
L 313.357514 21.935625 
" clip-path="url(#p43ead8043b)" style="fill: none; stroke: #cccccc; stroke-linecap: round"/>
     </g>
     <g id="text_6">
      <!-- 500 -->
      <g style="fill: #262626" transform="translate(304.181967 261.069219) scale(0.11 -0.11)">
       <defs>
        <path id="ArialMT-35" d="M 266 1200 
L 856 1250 
Q 922 819 1161 601 
Q 1400 384 1738 384 
Q 2144 384 2425 690 
Q 2706 997 2706 1503 
Q 2706 1984 2436 2262 
Q 2166 2541 1728 2541 
Q 1456 2541 1237 2417 
Q 1019 2294 894 2097 
L 366 2166 
L 809 4519 
L 3088 4519 
L 3088 3981 
L 1259 3981 
L 1013 2750 
Q 1425 3038 1878 3038 
Q 2478 3038 2890 2622 
Q 3303 2206 3303 1553 
Q 3303 931 2941 478 
Q 2500 -78 1738 -78 
Q 1113 -78 717 272 
Q 322 622 266 1200 
z
" transform="scale(0.015625)"/>
       </defs>
       <use xlink:href="#ArialMT-35"/>
       <use xlink:href="#ArialMT-30" transform="translate(55.615234 0)"/>
       <use xlink:href="#ArialMT-30" transform="translate(111.230469 0)"/>
      </g>
     </g>
    </g>
    <g id="xtick_7">
     <g id="line2d_7">
      <path d="M 364.084787 243.695625 
L 364.084787 21.935625 
" clip-path="url(#p43ead8043b)" style="fill: none; stroke: #cccccc; stroke-linecap: round"/>
     </g>
     <g id="text_7">
      <!-- 600 -->
      <g style="fill: #262626" transform="translate(354.90924 261.069219) scale(0.11 -0.11)">
       <defs>
        <path id="ArialMT-36" d="M 3184 3459 
L 2625 3416 
Q 2550 3747 2413 3897 
Q 2184 4138 1850 4138 
Q 1581 4138 1378 3988 
Q 1113 3794 959 3422 
Q 806 3050 800 2363 
Q 1003 2672 1297 2822 
Q 1591 2972 1913 2972 
Q 2475 2972 2870 2558 
Q 3266 2144 3266 1488 
Q 3266 1056 3080 686 
Q 2894 316 2569 119 
Q 2244 -78 1831 -78 
Q 1128 -78 684 439 
Q 241 956 241 2144 
Q 241 3472 731 4075 
Q 1159 4600 1884 4600 
Q 2425 4600 2770 4297 
Q 3116 3994 3184 3459 
z
M 888 1484 
Q 888 1194 1011 928 
Q 1134 663 1356 523 
Q 1578 384 1822 384 
Q 2178 384 2434 671 
Q 2691 959 2691 1453 
Q 2691 1928 2437 2201 
Q 2184 2475 1800 2475 
Q 1419 2475 1153 2201 
Q 888 1928 888 1484 
z
" transform="scale(0.015625)"/>
       </defs>
       <use xlink:href="#ArialMT-36"/>
       <use xlink:href="#ArialMT-30" transform="translate(55.615234 0)"/>
       <use xlink:href="#ArialMT-30" transform="translate(111.230469 0)"/>
      </g>
     </g>
    </g>
    <g id="text_8">
     <!-- Time (ms) -->
     <g style="fill: #262626" transform="translate(185.135469 275.991094) scale(0.12 -0.12)">
      <defs>
       <path id="ArialMT-54" d="M 1659 0 
L 1659 4041 
L 150 4041 
L 150 4581 
L 3781 4581 
L 3781 4041 
L 2266 4041 
L 2266 0 
L 1659 0 
z
" transform="scale(0.015625)"/>
       <path id="ArialMT-69" d="M 425 3934 
L 425 4581 
L 988 4581 
L 988 3934 
L 425 3934 
z
M 425 0 
L 425 3319 
L 988 3319 
L 988 0 
L 425 0 
z
" transform="scale(0.015625)"/>
       <path id="ArialMT-6d" d="M 422 0 
L 422 3319 
L 925 3319 
L 925 2853 
Q 1081 3097 1340 3245 
Q 1600 3394 1931 3394 
Q 2300 3394 2536 3241 
Q 2772 3088 2869 2813 
Q 3263 3394 3894 3394 
Q 4388 3394 4653 3120 
Q 4919 2847 4919 2278 
L 4919 0 
L 4359 0 
L 4359 2091 
Q 4359 2428 4304 2576 
Q 4250 2725 4106 2815 
Q 3963 2906 3769 2906 
Q 3419 2906 3187 2673 
Q 2956 2441 2956 1928 
L 2956 0 
L 2394 0 
L 2394 2156 
Q 2394 2531 2256 2718 
Q 2119 2906 1806 2906 
Q 1569 2906 1367 2781 
Q 1166 2656 1075 2415 
Q 984 2175 984 1722 
L 984 0 
L 422 0 
z
" transform="scale(0.015625)"/>
       <path id="ArialMT-65" d="M 2694 1069 
L 3275 997 
Q 3138 488 2766 206 
Q 2394 -75 1816 -75 
Q 1088 -75 661 373 
Q 234 822 234 1631 
Q 234 2469 665 2931 
Q 1097 3394 1784 3394 
Q 2450 3394 2872 2941 
Q 3294 2488 3294 1666 
Q 3294 1616 3291 1516 
L 816 1516 
Q 847 969 1125 678 
Q 1403 388 1819 388 
Q 2128 388 2347 550 
Q 2566 713 2694 1069 
z
M 847 1978 
L 2700 1978 
Q 2663 2397 2488 2606 
Q 2219 2931 1791 2931 
Q 1403 2931 1139 2672 
Q 875 2413 847 1978 
z
" transform="scale(0.015625)"/>
       <path id="ArialMT-20" transform="scale(0.015625)"/>
       <path id="ArialMT-28" d="M 1497 -1347 
Q 1031 -759 709 28 
Q 388 816 388 1659 
Q 388 2403 628 3084 
Q 909 3875 1497 4659 
L 1900 4659 
Q 1522 4009 1400 3731 
Q 1209 3300 1100 2831 
Q 966 2247 966 1656 
Q 966 153 1900 -1347 
L 1497 -1347 
z
" transform="scale(0.015625)"/>
       <path id="ArialMT-73" d="M 197 991 
L 753 1078 
Q 800 744 1014 566 
Q 1228 388 1613 388 
Q 2000 388 2187 545 
Q 2375 703 2375 916 
Q 2375 1106 2209 1216 
Q 2094 1291 1634 1406 
Q 1016 1563 777 1677 
Q 538 1791 414 1992 
Q 291 2194 291 2438 
Q 291 2659 392 2848 
Q 494 3038 669 3163 
Q 800 3259 1026 3326 
Q 1253 3394 1513 3394 
Q 1903 3394 2198 3281 
Q 2494 3169 2634 2976 
Q 2775 2784 2828 2463 
L 2278 2388 
Q 2241 2644 2061 2787 
Q 1881 2931 1553 2931 
Q 1166 2931 1000 2803 
Q 834 2675 834 2503 
Q 834 2394 903 2306 
Q 972 2216 1119 2156 
Q 1203 2125 1616 2013 
Q 2213 1853 2448 1751 
Q 2684 1650 2818 1456 
Q 2953 1263 2953 975 
Q 2953 694 2789 445 
Q 2625 197 2315 61 
Q 2006 -75 1616 -75 
Q 969 -75 630 194 
Q 291 463 197 991 
z
" transform="scale(0.015625)"/>
       <path id="ArialMT-29" d="M 791 -1347 
L 388 -1347 
Q 1322 153 1322 1656 
Q 1322 2244 1188 2822 
Q 1081 3291 891 3722 
Q 769 4003 388 4659 
L 791 4659 
Q 1378 3875 1659 3084 
Q 1900 2403 1900 1659 
Q 1900 816 1576 28 
Q 1253 -759 791 -1347 
z
" transform="scale(0.015625)"/>
      </defs>
      <use xlink:href="#ArialMT-54"/>
      <use xlink:href="#ArialMT-69" transform="translate(57.333984 0)"/>
      <use xlink:href="#ArialMT-6d" transform="translate(79.550781 0)"/>
      <use xlink:href="#ArialMT-65" transform="translate(162.851562 0)"/>
      <use xlink:href="#ArialMT-20" transform="translate(218.466797 0)"/>
      <use xlink:href="#ArialMT-28" transform="translate(246.25 0)"/>
      <use xlink:href="#ArialMT-6d" transform="translate(279.550781 0)"/>
      <use xlink:href="#ArialMT-73" transform="translate(362.851562 0)"/>
      <use xlink:href="#ArialMT-29" transform="translate(412.851562 0)"/>
     </g>
    </g>
   </g>
   <g id="matplotlib.axis_2">
    <g id="ytick_1">
     <g id="line2d_8">
      <path d="M 44.502969 225.646108 
L 379.302969 225.646108 
" clip-path="url(#p43ead8043b)" style="fill: none; stroke: #cccccc; stroke-linecap: round"/>
     </g>
     <g id="text_9">
      <!-- −3 -->
      <g style="fill: #262626" transform="translate(22.46125 229.582905) scale(0.11 -0.11)">
       <defs>
        <path id="ArialMT-2212" d="M 3381 1997 
L 356 1997 
L 356 2522 
L 3381 2522 
L 3381 1997 
z
" transform="scale(0.015625)"/>
       </defs>
       <use xlink:href="#ArialMT-2212"/>
       <use xlink:href="#ArialMT-33" transform="translate(58.398438 0)"/>
      </g>
     </g>
    </g>
    <g id="ytick_2">
     <g id="line2d_9">
      <path d="M 44.502969 194.702614 
L 379.302969 194.702614 
" clip-path="url(#p43ead8043b)" style="fill: none; stroke: #cccccc; stroke-linecap: round"/>
     </g>
     <g id="text_10">
      <!-- −2 -->
      <g style="fill: #262626" transform="translate(22.46125 198.639411) scale(0.11 -0.11)">
       <use xlink:href="#ArialMT-2212"/>
       <use xlink:href="#ArialMT-32" transform="translate(58.398438 0)"/>
      </g>
     </g>
    </g>
    <g id="ytick_3">
     <g id="line2d_10">
      <path d="M 44.502969 163.759119 
L 379.302969 163.759119 
" clip-path="url(#p43ead8043b)" style="fill: none; stroke: #cccccc; stroke-linecap: round"/>
     </g>
     <g id="text_11">
      <!-- −1 -->
      <g style="fill: #262626" transform="translate(22.46125 167.695916) scale(0.11 -0.11)">
       <use xlink:href="#ArialMT-2212"/>
       <use xlink:href="#ArialMT-31" transform="translate(58.398438 0)"/>
      </g>
     </g>
    </g>
    <g id="ytick_4">
     <g id="line2d_11">
      <path d="M 44.502969 132.815625 
L 379.302969 132.815625 
" clip-path="url(#p43ead8043b)" style="fill: none; stroke: #cccccc; stroke-linecap: round"/>
     </g>
     <g id="text_12">
      <!-- 0 -->
      <g style="fill: #262626" transform="translate(28.885938 136.752422) scale(0.11 -0.11)">
       <use xlink:href="#ArialMT-30"/>
      </g>
     </g>
    </g>
    <g id="ytick_5">
     <g id="line2d_12">
      <path d="M 44.502969 101.872131 
L 379.302969 101.872131 
" clip-path="url(#p43ead8043b)" style="fill: none; stroke: #cccccc; stroke-linecap: round"/>
     </g>
     <g id="text_13">
      <!-- 1 -->
      <g style="fill: #262626" transform="translate(28.885938 105.808927) scale(0.11 -0.11)">
       <use xlink:href="#ArialMT-31"/>
      </g>
     </g>
    </g>
    <g id="ytick_6">
     <g id="line2d_13">
      <path d="M 44.502969 70.928636 
L 379.302969 70.928636 
" clip-path="url(#p43ead8043b)" style="fill: none; stroke: #cccccc; stroke-linecap: round"/>
     </g>
     <g id="text_14">
      <!-- 2 -->
      <g style="fill: #262626" transform="translate(28.885938 74.865433) scale(0.11 -0.11)">
       <use xlink:href="#ArialMT-32"/>
      </g>
     </g>
    </g>
    <g id="ytick_7">
     <g id="line2d_14">
      <path d="M 44.502969 39.985142 
L 379.302969 39.985142 
" clip-path="url(#p43ead8043b)" style="fill: none; stroke: #cccccc; stroke-linecap: round"/>
     </g>
     <g id="text_15">
      <!-- 3 -->
      <g style="fill: #262626" transform="translate(28.885938 43.921939) scale(0.11 -0.11)">
       <use xlink:href="#ArialMT-33"/>
      </g>
     </g>
    </g>
    <g id="text_16">
     <!-- Amplitude (µV) -->
     <g style="fill: #262626" transform="translate(15.935625 172.617187) rotate(-90) scale(0.12 -0.12)">
      <defs>
       <path id="ArialMT-41" d="M -9 0 
L 1750 4581 
L 2403 4581 
L 4278 0 
L 3588 0 
L 3053 1388 
L 1138 1388 
L 634 0 
L -9 0 
z
M 1313 1881 
L 2866 1881 
L 2388 3150 
Q 2169 3728 2063 4100 
Q 1975 3659 1816 3225 
L 1313 1881 
z
" transform="scale(0.015625)"/>
       <path id="ArialMT-70" d="M 422 -1272 
L 422 3319 
L 934 3319 
L 934 2888 
Q 1116 3141 1344 3267 
Q 1572 3394 1897 3394 
Q 2322 3394 2647 3175 
Q 2972 2956 3137 2557 
Q 3303 2159 3303 1684 
Q 3303 1175 3120 767 
Q 2938 359 2589 142 
Q 2241 -75 1856 -75 
Q 1575 -75 1351 44 
Q 1128 163 984 344 
L 984 -1272 
L 422 -1272 
z
M 931 1641 
Q 931 1000 1190 694 
Q 1450 388 1819 388 
Q 2194 388 2461 705 
Q 2728 1022 2728 1688 
Q 2728 2322 2467 2637 
Q 2206 2953 1844 2953 
Q 1484 2953 1207 2617 
Q 931 2281 931 1641 
z
" transform="scale(0.015625)"/>
       <path id="ArialMT-6c" d="M 409 0 
L 409 4581 
L 972 4581 
L 972 0 
L 409 0 
z
" transform="scale(0.015625)"/>
       <path id="ArialMT-74" d="M 1650 503 
L 1731 6 
Q 1494 -44 1306 -44 
Q 1000 -44 831 53 
Q 663 150 594 308 
Q 525 466 525 972 
L 525 2881 
L 113 2881 
L 113 3319 
L 525 3319 
L 525 4141 
L 1084 4478 
L 1084 3319 
L 1650 3319 
L 1650 2881 
L 1084 2881 
L 1084 941 
Q 1084 700 1114 631 
Q 1144 563 1211 522 
Q 1278 481 1403 481 
Q 1497 481 1650 503 
z
" transform="scale(0.015625)"/>
       <path id="ArialMT-75" d="M 2597 0 
L 2597 488 
Q 2209 -75 1544 -75 
Q 1250 -75 995 37 
Q 741 150 617 320 
Q 494 491 444 738 
Q 409 903 409 1263 
L 409 3319 
L 972 3319 
L 972 1478 
Q 972 1038 1006 884 
Q 1059 663 1231 536 
Q 1403 409 1656 409 
Q 1909 409 2131 539 
Q 2353 669 2445 892 
Q 2538 1116 2538 1541 
L 2538 3319 
L 3100 3319 
L 3100 0 
L 2597 0 
z
" transform="scale(0.015625)"/>
       <path id="ArialMT-64" d="M 2575 0 
L 2575 419 
Q 2259 -75 1647 -75 
Q 1250 -75 917 144 
Q 584 363 401 755 
Q 219 1147 219 1656 
Q 219 2153 384 2558 
Q 550 2963 881 3178 
Q 1213 3394 1622 3394 
Q 1922 3394 2156 3267 
Q 2391 3141 2538 2938 
L 2538 4581 
L 3097 4581 
L 3097 0 
L 2575 0 
z
M 797 1656 
Q 797 1019 1065 703 
Q 1334 388 1700 388 
Q 2069 388 2326 689 
Q 2584 991 2584 1609 
Q 2584 2291 2321 2609 
Q 2059 2928 1675 2928 
Q 1300 2928 1048 2622 
Q 797 2316 797 1656 
z
" transform="scale(0.015625)"/>
       <path id="ArialMT-b5" d="M 3181 3319 
L 3181 0 
L 2678 0 
L 2678 394 
Q 2516 144 2356 50 
Q 2138 -78 1847 -78 
Q 1588 -78 1388 25 
Q 1238 103 1056 334 
L 1056 -1272 
L 500 -1272 
L 500 3319 
L 1056 3319 
L 1056 1913 
Q 1056 1147 1137 920 
Q 1219 694 1401 562 
Q 1584 431 1822 431 
Q 2072 431 2269 568 
Q 2466 706 2547 923 
Q 2628 1141 2628 1903 
L 2628 3319 
L 3181 3319 
z
" transform="scale(0.015625)"/>
       <path id="ArialMT-56" d="M 1803 0 
L 28 4581 
L 684 4581 
L 1875 1253 
Q 2019 853 2116 503 
Q 2222 878 2363 1253 
L 3600 4581 
L 4219 4581 
L 2425 0 
L 1803 0 
z
" transform="scale(0.015625)"/>
      </defs>
      <use xlink:href="#ArialMT-41"/>
      <use xlink:href="#ArialMT-6d" transform="translate(66.699219 0)"/>
      <use xlink:href="#ArialMT-70" transform="translate(150 0)"/>
      <use xlink:href="#ArialMT-6c" transform="translate(205.615234 0)"/>
      <use xlink:href="#ArialMT-69" transform="translate(227.832031 0)"/>
      <use xlink:href="#ArialMT-74" transform="translate(250.048828 0)"/>
      <use xlink:href="#ArialMT-75" transform="translate(277.832031 0)"/>
      <use xlink:href="#ArialMT-64" transform="translate(333.447266 0)"/>
      <use xlink:href="#ArialMT-65" transform="translate(389.0625 0)"/>
      <use xlink:href="#ArialMT-20" transform="translate(444.677734 0)"/>
      <use xlink:href="#ArialMT-28" transform="translate(472.460938 0)"/>
      <use xlink:href="#ArialMT-b5" transform="translate(505.761719 0)"/>
      <use xlink:href="#ArialMT-56" transform="translate(563.378906 0)"/>
      <use xlink:href="#ArialMT-29" transform="translate(630.078125 0)"/>
     </g>
    </g>
    <g id="text_17">
     <!-- 1e−7 -->
     <g style="fill: #262626" transform="translate(44.502969 18.935625) scale(0.11 -0.11)">
      <defs>
       <path id="ArialMT-37" d="M 303 3981 
L 303 4522 
L 3269 4522 
L 3269 4084 
Q 2831 3619 2401 2847 
Q 1972 2075 1738 1259 
Q 1569 684 1522 0 
L 944 0 
Q 953 541 1156 1306 
Q 1359 2072 1739 2783 
Q 2119 3494 2547 3981 
L 303 3981 
z
" transform="scale(0.015625)"/>
      </defs>
      <use xlink:href="#ArialMT-31"/>
      <use xlink:href="#ArialMT-65" transform="translate(55.615234 0)"/>
      <use xlink:href="#ArialMT-2212" transform="translate(111.230469 0)"/>
      <use xlink:href="#ArialMT-37" transform="translate(169.628906 0)"/>
     </g>
    </g>
   </g>
   <g id="FillBetweenPolyCollection_1">
    <defs>
     <path id="m4b7b593657" d="M 59.721151 -174.04781 
L 59.721151 -131.754378 
L 60.216857 -132.693429 
L 60.712563 -133.524727 
L 61.208269 -134.235401 
L 61.703976 -134.819881 
L 62.199682 -135.280302 
L 62.695388 -135.626786 
L 63.191094 -135.876407 
L 63.686801 -136.050866 
L 64.182507 -136.172876 
L 64.678213 -136.263625 
L 65.173919 -136.340821 
L 65.669626 -136.417429 
L 66.165332 -136.501806 
L 66.661038 -136.597624 
L 67.156744 -136.703669 
L 67.652451 -136.814766 
L 68.148157 -136.923034 
L 68.643863 -137.01829 
L 69.139569 -137.089429 
L 69.635276 -137.124676 
L 70.130982 -137.111839 
L 70.626688 -137.038799 
L 71.122394 -136.89392 
L 71.618101 -136.667309 
L 72.113807 -136.351303 
L 72.609513 -135.942106 
L 73.105219 -135.4413 
L 73.600926 -134.85624 
L 74.096632 -134.200585 
L 74.592338 -133.494279 
L 75.088044 -132.762636 
L 75.583751 -132.035043 
L 76.079457 -131.34423 
L 76.575163 -130.723544 
L 77.070869 -130.205654 
L 77.566576 -129.821363 
L 78.062282 -129.598186 
L 78.557988 -129.559182 
L 79.053694 -129.721642 
L 79.5494 -130.095389 
L 80.045107 -130.682272 
L 80.540813 -131.476126 
L 81.036519 -132.461536 
L 81.532225 -133.612934 
L 82.027932 -134.893177 
L 82.523638 -136.25202 
L 83.019344 -137.625123 
L 83.51505 -138.932397 
L 84.010757 -140.078515 
L 84.506463 -140.961652 
L 85.002169 -141.493407 
L 85.497875 -141.628223 
L 85.993582 -141.385996 
L 86.489288 -140.845938 
L 86.984994 -140.116338 
L 87.4807 -139.303862 
L 87.976407 -138.497386 
L 88.472113 -137.764436 
L 88.967819 -137.152404 
L 89.463525 -136.691574 
L 89.959232 -136.397783 
L 90.454938 -136.275682 
L 90.950644 -136.320376 
L 91.44635 -136.519237 
L 91.942057 -136.853125 
L 92.437763 -137.297868 
L 92.933469 -137.825858 
L 93.429175 -138.406992 
L 93.924882 -139.009694 
L 94.420588 -139.602443 
L 94.916294 -140.155565 
L 95.412 -140.64193 
L 95.907707 -141.038333 
L 96.403413 -141.326206 
L 96.899119 -141.49207 
L 97.394825 -141.527176 
L 97.890532 -141.426739 
L 98.386238 -141.189809 
L 98.881944 -140.818251 
L 99.37765 -140.315953 
L 99.873357 -139.690075 
L 100.369063 -138.950658 
L 100.864769 -138.110795 
L 101.360475 -137.186348 
L 101.856182 -136.196083 
L 102.351888 -135.161566 
L 102.847594 -134.106051 
L 103.3433 -133.053588 
L 103.839007 -132.028076 
L 104.334713 -131.053077 
L 104.830419 -130.150291 
L 105.326125 -129.338671 
L 105.821832 -128.634076 
L 106.317538 -128.048069 
L 106.813244 -127.58813 
L 107.30895 -127.256689 
L 107.804657 -127.050868 
L 108.300363 -126.96281 
L 108.796069 -126.979702 
L 109.291775 -127.084856 
L 109.787482 -127.25771 
L 110.283188 -127.475125 
L 110.778894 -127.713242 
L 111.2746 -127.948522 
L 111.770307 -128.16056 
L 112.266013 -128.333203 
L 112.761719 -128.456206 
L 113.257425 -128.527285 
L 113.753132 -128.551527 
L 114.248838 -128.540419 
L 114.744544 -128.510637 
L 115.24025 -128.482027 
L 115.735957 -128.476276 
L 116.231663 -128.514528 
L 116.727369 -128.615172 
L 117.223075 -128.793032 
L 117.718782 -129.058031 
L 118.214488 -129.414685 
L 118.710194 -129.861042 
L 119.2059 -130.38872 
L 119.701607 -130.982929 
L 120.197313 -131.621727 
L 120.693019 -132.275829 
L 121.188725 -132.908836 
L 121.684432 -133.478046 
L 122.180138 -133.936941 
L 122.675844 -134.238411 
L 123.17155 -134.338589 
L 123.667257 -134.202281 
L 124.162963 -133.808131 
L 124.658669 -133.151032 
L 125.154375 -132.240712 
L 125.650082 -131.098166 
L 126.145788 -129.751123 
L 126.641494 -128.229158 
L 127.1372 -126.560841 
L 127.632907 -124.772583 
L 128.128613 -122.887326 
L 128.624319 -120.924211 
L 129.120025 -118.899753 
L 129.615732 -116.82863 
L 130.111438 -114.724333 
L 130.607144 -112.599719 
L 131.10285 -110.467243 
L 131.598557 -108.339869 
L 132.094263 -106.231668 
L 132.589969 -104.158081 
L 133.085675 -102.135784 
L 133.581382 -100.182924 
L 134.077088 -98.318609 
L 134.572794 -96.562681 
L 135.0685 -94.935539 
L 135.564207 -93.457182 
L 136.059913 -92.146594 
L 136.555619 -91.021177 
L 137.051325 -90.0958 
L 137.547032 -89.382963 
L 138.042738 -88.89239 
L 138.538444 -88.630058 
L 139.03415 -88.597086 
L 139.529857 -88.789893 
L 140.025563 -89.201155 
L 140.521269 -89.819241 
L 141.016975 -90.628222 
L 141.512682 -91.608756 
L 142.008388 -92.738073 
L 142.504094 -93.991418 
L 142.9998 -95.343599 
L 143.495507 -96.769461 
L 143.991213 -98.24438 
L 144.486919 -99.746266 
L 144.982625 -101.255739 
L 145.478331 -102.757559 
L 145.974038 -104.242126 
L 146.469744 -105.704702 
L 146.96545 -107.144913 
L 147.461156 -108.565595 
L 147.956863 -109.97263 
L 148.452569 -111.373957 
L 148.948275 -112.777989 
L 149.443981 -114.19191 
L 149.939688 -115.620562 
L 150.435394 -117.064677 
L 150.9311 -118.520041 
L 151.426806 -119.976539 
L 151.922513 -121.418482 
L 152.418219 -122.824257 
L 152.913925 -124.166382 
L 153.409631 -125.414109 
L 153.905338 -126.534818 
L 154.401044 -127.497241 
L 154.89675 -128.275052 
L 155.392456 -128.851252 
L 155.888163 -129.221628 
L 156.383869 -129.39598 
L 156.879575 -129.397269 
L 157.375281 -129.258236 
L 157.870988 -129.017583 
L 158.366694 -128.715427 
L 158.8624 -128.388928 
L 159.358106 -128.069235 
L 159.853813 -127.779969 
L 160.349519 -127.537018 
L 160.845225 -127.347936 
L 161.340931 -127.212906 
L 161.836638 -127.124874 
L 162.332344 -127.070659 
L 162.82805 -127.03385 
L 163.323756 -126.996413 
L 163.819463 -126.940226 
L 164.315169 -126.848787 
L 164.810875 -126.709748 
L 165.306581 -126.516197 
L 165.802288 -126.267539 
L 166.297994 -125.969374 
L 166.7937 -125.632923 
L 167.289406 -125.273576 
L 167.785113 -124.909517 
L 168.280819 -124.560103 
L 168.776525 -124.244496 
L 169.272231 -123.979886 
L 169.767938 -123.780938 
L 170.263644 -123.658489 
L 170.75935 -123.619129 
L 171.255056 -123.665111 
L 171.750763 -123.793831 
L 172.246469 -123.997694 
L 172.742175 -124.263923 
L 173.237881 -124.57603 
L 173.733588 -124.914235 
L 174.229294 -125.255921 
L 174.725 -125.577402 
L 175.220706 -125.854751 
L 175.716413 -126.065983 
L 176.212119 -126.193784 
L 176.707825 -126.226136 
L 177.203531 -126.157795 
L 177.699238 -125.991225 
L 178.194944 -125.736213 
L 178.69065 -125.407873 
L 179.186356 -125.025 
L 179.682063 -124.608517 
L 180.177769 -124.179331 
L 180.673475 -123.756425 
L 181.169181 -123.356008 
L 181.664888 -122.990645 
L 182.160594 -122.668736 
L 182.6563 -122.394209 
L 183.152006 -122.165829 
L 183.647713 -121.978476 
L 184.143419 -121.823622 
L 184.639125 -121.689324 
L 185.134831 -121.561121 
L 185.630538 -121.423921 
L 186.126244 -121.261708 
L 186.62195 -121.058458 
L 187.117656 -120.798822 
L 187.613363 -120.468007 
L 188.109069 -120.052225 
L 188.604775 -119.539526 
L 189.100481 -118.920521 
L 189.596188 -118.187577 
L 190.091894 -117.335424 
L 190.5876 -116.362751 
L 191.083306 -115.272459 
L 191.579013 -114.071631 
L 192.074719 -112.771584 
L 192.570425 -111.387548 
L 193.066131 -109.938926 
L 193.561838 -108.448382 
L 194.057544 -106.941301 
L 194.55325 -105.445602 
L 195.048956 -103.990405 
L 195.544663 -102.604671 
L 196.040369 -101.31666 
L 196.536075 -100.152724 
L 197.031781 -99.137153 
L 197.527488 -98.291715 
L 198.023194 -97.634316 
L 198.5189 -97.178308 
L 199.014606 -96.933227 
L 199.510313 -96.904594 
L 200.006019 -97.093652 
L 200.501725 -97.497996 
L 200.997431 -98.112005 
L 201.493138 -98.927068 
L 201.988844 -99.931735 
L 202.48455 -101.112321 
L 202.980256 -102.453393 
L 203.475963 -103.938464 
L 203.971669 -105.549333 
L 204.467375 -107.266261 
L 204.963081 -109.069291 
L 205.458788 -110.937473 
L 205.954494 -112.847786 
L 206.4502 -114.775323 
L 206.945906 -116.694241 
L 207.441613 -118.576956 
L 207.937319 -120.393418 
L 208.433025 -122.110921 
L 208.928731 -123.69431 
L 209.424438 -125.106427 
L 209.920144 -126.310021 
L 210.41585 -127.270523 
L 210.911556 -127.959402 
L 211.407263 -128.357966 
L 211.902969 -128.461134 
L 212.398675 -128.278902 
L 212.894381 -127.835468 
L 213.390087 -127.165659 
L 213.885794 -126.310695 
L 214.3815 -125.313672 
L 214.877206 -124.216791 
L 215.372912 -123.059932 
L 215.868619 -121.879508 
L 216.364325 -120.707793 
L 216.860031 -119.572716 
L 217.355737 -118.49847 
L 217.851444 -117.505202 
L 218.34715 -116.609479 
L 218.842856 -115.82409 
L 219.338562 -115.157289 
L 219.834269 -114.613298 
L 220.329975 -114.192497 
L 220.825681 -113.891319 
L 221.321387 -113.70192 
L 221.817094 -113.612173 
L 222.3128 -113.606009 
L 222.808506 -113.664145 
L 223.304212 -113.76513 
L 223.799919 -113.887205 
L 224.295625 -114.008948 
L 224.791331 -114.110665 
L 225.287037 -114.175736 
L 225.782744 -114.192569 
L 226.27845 -114.155533 
L 226.774156 -114.063897 
L 227.269862 -113.92197 
L 227.765569 -113.739141 
L 228.261275 -113.52911 
L 228.756981 -113.307338 
L 229.252687 -113.088848 
L 229.748394 -112.887032 
L 230.2441 -112.712535 
L 230.739806 -112.572387 
L 231.235512 -112.469648 
L 231.731219 -112.401416 
L 232.226925 -112.359178 
L 232.722631 -112.329857 
L 233.218337 -112.296462 
L 233.714044 -112.23922 
L 234.20975 -112.137488 
L 234.705456 -111.971485 
L 235.201162 -111.72371 
L 235.696869 -111.381053 
L 236.192575 -110.936731 
L 236.688281 -110.390704 
L 237.183987 -109.749797 
L 237.679694 -109.026927 
L 238.1754 -108.240283 
L 238.671106 -107.412523 
L 239.166812 -106.568779 
L 239.662519 -105.734947 
L 240.158225 -104.936238 
L 240.653931 -104.19611 
L 241.149637 -103.535209 
L 241.645344 -102.970743 
L 242.14105 -102.515876 
L 242.636756 -102.179462 
L 243.132462 -101.965585 
L 243.628169 -101.873975 
L 244.123875 -101.900457 
L 244.619581 -102.036819 
L 245.115287 -102.271264 
L 245.610994 -102.589358 
L 246.1067 -102.97435 
L 246.602406 -103.407983 
L 247.098112 -103.871228 
L 247.593819 -104.345426 
L 248.089525 -104.8133 
L 248.585231 -105.259506 
L 249.080937 -105.671183 
L 249.576644 -106.038924 
L 250.07235 -106.357086 
L 250.568056 -106.62349 
L 251.063762 -106.838752 
L 251.559469 -107.005897 
L 252.055175 -107.129148 
L 252.550881 -107.213325 
L 253.046587 -107.26286 
L 253.542294 -107.280957 
L 254.038 -107.269004 
L 254.533706 -107.226458 
L 255.029412 -107.149839 
L 255.525119 -107.033194 
L 256.020825 -106.869228 
L 256.516531 -106.651145 
L 257.012237 -106.373718 
L 257.507944 -106.033631 
L 258.00365 -105.63009 
L 258.499356 -105.166182 
L 258.995062 -104.649202 
L 259.490769 -104.089361 
L 259.986475 -103.499589 
L 260.482181 -102.895077 
L 260.977887 -102.291931 
L 261.473594 -101.705767 
L 261.9693 -101.150359 
L 262.465006 -100.636154 
L 262.960712 -100.169522 
L 263.456419 -99.753626 
L 263.952125 -99.387351 
L 264.447831 -99.064488 
L 264.943537 -98.775248 
L 265.439244 -98.50696 
L 265.93495 -98.245863 
L 266.430656 -97.978018 
L 266.926362 -97.690608 
L 267.422069 -97.373972 
L 267.917775 -97.021918 
L 268.413481 -96.632773 
L 268.909187 -96.209812 
L 269.404894 -95.760413 
L 269.9006 -95.295411 
L 270.396306 -94.828479 
L 270.892012 -94.374962 
L 271.387719 -93.949509 
L 271.883425 -93.565432 
L 272.379131 -93.234209 
L 272.874837 -92.963995 
L 273.370544 -92.758539 
L 273.86625 -92.617722 
L 274.361956 -92.537873 
L 274.857662 -92.51122 
L 275.353369 -92.526678 
L 275.849075 -92.570216 
L 276.344781 -92.625085 
L 276.840487 -92.672711 
L 277.336194 -92.694416 
L 277.8319 -92.672358 
L 278.327606 -92.58989 
L 278.823312 -92.431804 
L 279.319018 -92.184505 
L 279.814725 -91.837007 
L 280.310431 -91.382316 
L 280.806137 -90.817482 
L 281.301843 -90.143216 
L 281.79755 -89.363895 
L 282.293256 -88.487225 
L 282.788962 -87.524035 
L 283.284668 -86.487634 
L 283.780375 -85.393153 
L 284.276081 -84.256864 
L 284.771787 -83.095331 
L 285.267493 -81.924909 
L 285.7632 -80.760223 
L 286.258906 -79.614376 
L 286.754612 -78.498941 
L 287.250318 -77.422353 
L 287.746025 -76.38973 
L 288.241731 -75.403453 
L 288.737437 -74.462629 
L 289.233143 -73.562892 
L 289.72885 -72.698253 
L 290.224556 -71.860923 
L 290.720262 -71.040536 
L 291.215968 -70.225778 
L 291.711675 -69.405421 
L 292.207381 -68.568852 
L 292.703087 -67.706583 
L 293.198793 -66.810626 
L 293.6945 -65.874807 
L 294.190206 -64.895668 
L 294.685912 -63.872883 
L 295.181618 -62.809607 
L 295.677325 -61.712602 
L 296.173031 -60.592288 
L 296.668737 -59.462294 
L 297.164443 -58.338687 
L 297.66015 -57.240578 
L 298.155856 -56.189364 
L 298.651562 -55.207385 
L 299.147268 -54.318764 
L 299.642975 -53.547923 
L 300.138681 -52.918704 
L 300.634387 -52.454464 
L 301.130093 -52.176141 
L 301.6258 -52.101094 
L 302.121506 -52.242705 
L 302.617212 -52.609435 
L 303.112918 -53.205507 
L 303.608625 -54.030044 
L 304.104331 -55.075807 
L 304.600037 -56.329597 
L 305.095743 -57.773436 
L 305.59145 -59.384285 
L 306.087156 -61.134628 
L 306.582862 -62.993913 
L 307.078568 -64.928589 
L 307.574275 -66.902209 
L 308.069981 -68.879022 
L 308.565687 -70.825327 
L 309.061393 -72.707902 
L 309.5571 -74.496208 
L 310.052806 -76.164889 
L 310.548512 -77.69265 
L 311.044218 -79.062482 
L 311.539925 -80.263026 
L 312.035631 -81.287894 
L 312.531337 -82.134613 
L 313.027043 -82.804623 
L 313.52275 -83.303052 
L 314.018456 -83.637932 
L 314.514162 -83.82013 
L 315.009868 -83.862976 
L 315.505575 -83.782233 
L 316.001281 -83.595681 
L 316.496987 -83.323413 
L 316.992693 -82.988103 
L 317.4884 -82.614541 
L 317.984106 -82.229121 
L 318.479812 -81.858955 
L 318.975518 -81.530664 
L 319.471225 -81.270039 
L 319.966931 -81.100782 
L 320.462637 -81.04303 
L 320.958343 -81.112908 
L 321.45405 -81.321475 
L 321.949756 -81.674388 
L 322.445462 -82.170851 
L 322.941168 -82.802506 
L 323.436875 -83.553896 
L 323.932581 -84.403223 
L 324.428287 -85.322338 
L 324.923993 -86.278069 
L 325.4197 -87.233699 
L 325.915406 -88.150458 
L 326.411112 -88.990515 
L 326.906818 -89.719726 
L 327.402525 -90.309688 
L 327.898231 -90.740429 
L 328.393937 -91.002209 
L 328.889643 -91.096429 
L 329.38535 -91.034816 
L 329.881056 -90.837343 
L 330.376762 -90.530695 
L 330.872468 -90.146662 
L 331.368175 -89.718705 
L 331.863881 -89.279207 
L 332.359587 -88.857594 
L 332.855293 -88.478557 
L 333.351 -88.161125 
L 333.846706 -87.918512 
L 334.342412 -87.758166 
L 334.838118 -87.682231 
L 335.333825 -87.687525 
L 335.829531 -87.766905 
L 336.325237 -87.910703 
L 336.820943 -88.107221 
L 337.31665 -88.343571 
L 337.812356 -88.6071 
L 338.308062 -88.886514 
L 338.803768 -89.172676 
L 339.299475 -89.458328 
L 339.795181 -89.737821 
L 340.290887 -90.007159 
L 340.786593 -90.264019 
L 341.2823 -90.506944 
L 341.778006 -90.734865 
L 342.273712 -90.947091 
L 342.769418 -91.142687 
L 343.265125 -91.320666 
L 343.760831 -91.480224 
L 344.256537 -91.620309 
L 344.752243 -91.739951 
L 345.24795 -91.839018 
L 345.743656 -91.91746 
L 346.239362 -91.975801 
L 346.735068 -92.015421 
L 347.230774 -92.038093 
L 347.726481 -92.045983 
L 348.222187 -92.041895 
L 348.717893 -92.028595 
L 349.213599 -92.008233 
L 349.709306 -91.982157 
L 350.205012 -91.951157 
L 350.700718 -91.915746 
L 351.196424 -91.87581 
L 351.692131 -91.830811 
L 352.187837 -91.780394 
L 352.683543 -91.724439 
L 353.179249 -91.663404 
L 353.674956 -91.598667 
L 354.170662 -91.532671 
L 354.666368 -91.468454 
L 355.162074 -91.409843 
L 355.657781 -91.360966 
L 356.153487 -91.325338 
L 356.649193 -91.305916 
L 357.144899 -91.304418 
L 357.640606 -91.320957 
L 358.136312 -91.354294 
L 358.632018 -91.40115 
L 359.127724 -91.45679 
L 359.623431 -91.515015 
L 360.119137 -91.56866 
L 360.614843 -91.610023 
L 361.110549 -91.631493 
L 361.606256 -91.625902 
L 362.101962 -91.587249 
L 362.597668 -91.510851 
L 363.093374 -91.39283 
L 363.589081 -91.230155 
L 364.084787 -91.021386 
L 364.084787 -214.780801 
L 364.084787 -214.780801 
L 363.589081 -214.572033 
L 363.093374 -214.409357 
L 362.597668 -214.291336 
L 362.101962 -214.214939 
L 361.606256 -214.176286 
L 361.110549 -214.170695 
L 360.614843 -214.192165 
L 360.119137 -214.233527 
L 359.623431 -214.287172 
L 359.127724 -214.345397 
L 358.632018 -214.401038 
L 358.136312 -214.447894 
L 357.640606 -214.481231 
L 357.144899 -214.49777 
L 356.649193 -214.496271 
L 356.153487 -214.47685 
L 355.657781 -214.441221 
L 355.162074 -214.392344 
L 354.666368 -214.333734 
L 354.170662 -214.269516 
L 353.674956 -214.20352 
L 353.179249 -214.138784 
L 352.683543 -214.077749 
L 352.187837 -214.021794 
L 351.692131 -213.971377 
L 351.196424 -213.926378 
L 350.700718 -213.886441 
L 350.205012 -213.85103 
L 349.709306 -213.82003 
L 349.213599 -213.793954 
L 348.717893 -213.773592 
L 348.222187 -213.760293 
L 347.726481 -213.756205 
L 347.230774 -213.764095 
L 346.735068 -213.786767 
L 346.239362 -213.826386 
L 345.743656 -213.884727 
L 345.24795 -213.963169 
L 344.752243 -214.062236 
L 344.256537 -214.181878 
L 343.760831 -214.321963 
L 343.265125 -214.481521 
L 342.769418 -214.659501 
L 342.273712 -214.855097 
L 341.778006 -215.067322 
L 341.2823 -215.295244 
L 340.786593 -215.538169 
L 340.290887 -215.795029 
L 339.795181 -216.064366 
L 339.299475 -216.34386 
L 338.803768 -216.629512 
L 338.308062 -216.915674 
L 337.812356 -217.195088 
L 337.31665 -217.458617 
L 336.820943 -217.694966 
L 336.325237 -217.891484 
L 335.829531 -218.035282 
L 335.333825 -218.114663 
L 334.838118 -218.119957 
L 334.342412 -218.044021 
L 333.846706 -217.883675 
L 333.351 -217.641063 
L 332.855293 -217.32363 
L 332.359587 -216.944594 
L 331.863881 -216.522981 
L 331.368175 -216.083483 
L 330.872468 -215.655525 
L 330.376762 -215.271492 
L 329.881056 -214.964845 
L 329.38535 -214.767371 
L 328.889643 -214.705759 
L 328.393937 -214.799978 
L 327.898231 -215.061759 
L 327.402525 -215.4925 
L 326.906818 -216.082462 
L 326.411112 -216.811673 
L 325.915406 -217.65173 
L 325.4197 -218.568488 
L 324.923993 -219.524119 
L 324.428287 -220.47985 
L 323.932581 -221.398964 
L 323.436875 -222.248291 
L 322.941168 -222.999682 
L 322.445462 -223.631337 
L 321.949756 -224.1278 
L 321.45405 -224.480712 
L 320.958343 -224.68928 
L 320.462637 -224.759158 
L 319.966931 -224.701405 
L 319.471225 -224.532149 
L 318.975518 -224.271524 
L 318.479812 -223.943232 
L 317.984106 -223.573067 
L 317.4884 -223.187646 
L 316.992693 -222.814084 
L 316.496987 -222.478775 
L 316.001281 -222.206507 
L 315.505575 -222.019955 
L 315.009868 -221.939212 
L 314.514162 -221.982057 
L 314.018456 -222.164256 
L 313.52275 -222.499135 
L 313.027043 -222.997564 
L 312.531337 -223.667574 
L 312.035631 -224.514293 
L 311.539925 -225.539162 
L 311.044218 -226.739705 
L 310.548512 -228.109538 
L 310.052806 -229.637299 
L 309.5571 -231.305979 
L 309.061393 -233.094285 
L 308.565687 -234.976861 
L 308.069981 -236.923165 
L 307.574275 -238.899979 
L 307.078568 -240.873598 
L 306.582862 -242.808274 
L 306.087156 -244.66756 
L 305.59145 -246.417903 
L 305.095743 -248.028752 
L 304.600037 -249.47259 
L 304.104331 -250.72638 
L 303.608625 -251.772143 
L 303.112918 -252.59668 
L 302.617212 -253.192753 
L 302.121506 -253.559482 
L 301.6258 -253.701094 
L 301.130093 -253.626047 
L 300.634387 -253.347724 
L 300.138681 -252.883483 
L 299.642975 -252.254265 
L 299.147268 -251.483423 
L 298.651562 -250.594803 
L 298.155856 -249.612824 
L 297.66015 -248.561609 
L 297.164443 -247.4635 
L 296.668737 -246.339893 
L 296.173031 -245.2099 
L 295.677325 -244.089586 
L 295.181618 -242.99258 
L 294.685912 -241.929304 
L 294.190206 -240.906519 
L 293.6945 -239.92738 
L 293.198793 -238.991561 
L 292.703087 -238.095605 
L 292.207381 -237.233335 
L 291.711675 -236.396766 
L 291.215968 -235.576409 
L 290.720262 -234.761652 
L 290.224556 -233.941265 
L 289.72885 -233.103935 
L 289.233143 -232.239296 
L 288.737437 -231.339558 
L 288.241731 -230.398734 
L 287.746025 -229.412458 
L 287.250318 -228.379835 
L 286.754612 -227.303247 
L 286.258906 -226.187812 
L 285.7632 -225.041965 
L 285.267493 -223.877279 
L 284.771787 -222.706856 
L 284.276081 -221.545323 
L 283.780375 -220.409034 
L 283.284668 -219.314554 
L 282.788962 -218.278152 
L 282.293256 -217.314962 
L 281.79755 -216.438292 
L 281.301843 -215.658971 
L 280.806137 -214.984706 
L 280.310431 -214.419872 
L 279.814725 -213.965181 
L 279.319018 -213.617683 
L 278.823312 -213.370383 
L 278.327606 -213.212297 
L 277.8319 -213.129829 
L 277.336194 -213.107771 
L 276.840487 -213.129476 
L 276.344781 -213.177102 
L 275.849075 -213.231971 
L 275.353369 -213.275509 
L 274.857662 -213.290967 
L 274.361956 -213.264314 
L 273.86625 -213.184465 
L 273.370544 -213.043649 
L 272.874837 -212.838193 
L 272.379131 -212.567979 
L 271.883425 -212.236755 
L 271.387719 -211.852678 
L 270.892012 -211.427226 
L 270.396306 -210.973709 
L 269.9006 -210.506777 
L 269.404894 -210.041775 
L 268.909187 -209.592376 
L 268.413481 -209.169415 
L 267.917775 -208.78027 
L 267.422069 -208.428215 
L 266.926362 -208.11158 
L 266.430656 -207.82417 
L 265.93495 -207.556325 
L 265.439244 -207.295228 
L 264.943537 -207.02694 
L 264.447831 -206.7377 
L 263.952125 -206.414837 
L 263.456419 -206.048561 
L 262.960712 -205.632665 
L 262.465006 -205.166034 
L 261.9693 -204.651828 
L 261.473594 -204.096421 
L 260.977887 -203.510256 
L 260.482181 -202.907111 
L 259.986475 -202.302599 
L 259.490769 -201.712827 
L 258.995062 -201.152986 
L 258.499356 -200.636006 
L 258.00365 -200.172098 
L 257.507944 -199.768556 
L 257.012237 -199.428469 
L 256.516531 -199.151043 
L 256.020825 -198.93296 
L 255.525119 -198.768994 
L 255.029412 -198.652348 
L 254.533706 -198.57573 
L 254.038 -198.533183 
L 253.542294 -198.52123 
L 253.046587 -198.539328 
L 252.550881 -198.588862 
L 252.055175 -198.673039 
L 251.559469 -198.796291 
L 251.063762 -198.963436 
L 250.568056 -199.178698 
L 250.07235 -199.445102 
L 249.576644 -199.763264 
L 249.080937 -200.131004 
L 248.585231 -200.542681 
L 248.089525 -200.988888 
L 247.593819 -201.456762 
L 247.098112 -201.93096 
L 246.602406 -202.394205 
L 246.1067 -202.827837 
L 245.610994 -203.21283 
L 245.115287 -203.530923 
L 244.619581 -203.765369 
L 244.123875 -203.90173 
L 243.628169 -203.928212 
L 243.132462 -203.836602 
L 242.636756 -203.622726 
L 242.14105 -203.286312 
L 241.645344 -202.831444 
L 241.149637 -202.266979 
L 240.653931 -201.606077 
L 240.158225 -200.86595 
L 239.662519 -200.067241 
L 239.166812 -199.233409 
L 238.671106 -198.389665 
L 238.1754 -197.561904 
L 237.679694 -196.775261 
L 237.183987 -196.052391 
L 236.688281 -195.411484 
L 236.192575 -194.865457 
L 235.696869 -194.421134 
L 235.201162 -194.078477 
L 234.705456 -193.830702 
L 234.20975 -193.664699 
L 233.714044 -193.562967 
L 233.218337 -193.505725 
L 232.722631 -193.47233 
L 232.226925 -193.44301 
L 231.731219 -193.400772 
L 231.235512 -193.33254 
L 230.739806 -193.2298 
L 230.2441 -193.089653 
L 229.748394 -192.915155 
L 229.252687 -192.71334 
L 228.756981 -192.494849 
L 228.261275 -192.273078 
L 227.765569 -192.063046 
L 227.269862 -191.880217 
L 226.774156 -191.738291 
L 226.27845 -191.646654 
L 225.782744 -191.609618 
L 225.287037 -191.626451 
L 224.791331 -191.691522 
L 224.295625 -191.793239 
L 223.799919 -191.914982 
L 223.304212 -192.037057 
L 222.808506 -192.138042 
L 222.3128 -192.196179 
L 221.817094 -192.190014 
L 221.321387 -192.100268 
L 220.825681 -191.910869 
L 220.329975 -191.609691 
L 219.834269 -191.18889 
L 219.338562 -190.644898 
L 218.842856 -189.978097 
L 218.34715 -189.192709 
L 217.851444 -188.296985 
L 217.355737 -187.303717 
L 216.860031 -186.229471 
L 216.364325 -185.094395 
L 215.868619 -183.922679 
L 215.372912 -182.742255 
L 214.877206 -181.585396 
L 214.3815 -180.488516 
L 213.885794 -179.491492 
L 213.390087 -178.636529 
L 212.894381 -177.96672 
L 212.398675 -177.523286 
L 211.902969 -177.341053 
L 211.407263 -177.444221 
L 210.911556 -177.842786 
L 210.41585 -178.531664 
L 209.920144 -179.492167 
L 209.424438 -180.69576 
L 208.928731 -182.107878 
L 208.433025 -183.691267 
L 207.937319 -185.40877 
L 207.441613 -187.225232 
L 206.945906 -189.107947 
L 206.4502 -191.026865 
L 205.954494 -192.954401 
L 205.458788 -194.864714 
L 204.963081 -196.732896 
L 204.467375 -198.535926 
L 203.971669 -200.252854 
L 203.475963 -201.863723 
L 202.980256 -203.348794 
L 202.48455 -204.689867 
L 201.988844 -205.870452 
L 201.493138 -206.87512 
L 200.997431 -207.690182 
L 200.501725 -208.304192 
L 200.006019 -208.708535 
L 199.510313 -208.897594 
L 199.014606 -208.868961 
L 198.5189 -208.62388 
L 198.023194 -208.167871 
L 197.527488 -207.510473 
L 197.031781 -206.665034 
L 196.536075 -205.649464 
L 196.040369 -204.485528 
L 195.544663 -203.197516 
L 195.048956 -201.811782 
L 194.55325 -200.356586 
L 194.057544 -198.860886 
L 193.561838 -197.353805 
L 193.066131 -195.863261 
L 192.570425 -194.414639 
L 192.074719 -193.030603 
L 191.579013 -191.730557 
L 191.083306 -190.529728 
L 190.5876 -189.439436 
L 190.091894 -188.466764 
L 189.596188 -187.61461 
L 189.100481 -186.881666 
L 188.604775 -186.262662 
L 188.109069 -185.749962 
L 187.613363 -185.33418 
L 187.117656 -185.003365 
L 186.62195 -184.74373 
L 186.126244 -184.54048 
L 185.630538 -184.378267 
L 185.134831 -184.241066 
L 184.639125 -184.112863 
L 184.143419 -183.978566 
L 183.647713 -183.823711 
L 183.152006 -183.636358 
L 182.6563 -183.407978 
L 182.160594 -183.133451 
L 181.664888 -182.811542 
L 181.169181 -182.44618 
L 180.673475 -182.045763 
L 180.177769 -181.622856 
L 179.682063 -181.193671 
L 179.186356 -180.777187 
L 178.69065 -180.394315 
L 178.194944 -180.065975 
L 177.699238 -179.810962 
L 177.203531 -179.644393 
L 176.707825 -179.576051 
L 176.212119 -179.608404 
L 175.716413 -179.736205 
L 175.220706 -179.947436 
L 174.725 -180.224785 
L 174.229294 -180.546267 
L 173.733588 -180.887953 
L 173.237881 -181.226158 
L 172.742175 -181.538265 
L 172.246469 -181.804494 
L 171.750763 -182.008356 
L 171.255056 -182.137076 
L 170.75935 -182.183058 
L 170.263644 -182.143698 
L 169.767938 -182.02125 
L 169.272231 -181.822302 
L 168.776525 -181.557692 
L 168.280819 -181.242084 
L 167.785113 -180.89267 
L 167.289406 -180.528612 
L 166.7937 -180.169265 
L 166.297994 -179.832813 
L 165.802288 -179.534648 
L 165.306581 -179.285991 
L 164.810875 -179.092439 
L 164.315169 -178.9534 
L 163.819463 -178.861961 
L 163.323756 -178.805774 
L 162.82805 -178.768337 
L 162.332344 -178.731529 
L 161.836638 -178.677314 
L 161.340931 -178.589282 
L 160.845225 -178.454252 
L 160.349519 -178.265169 
L 159.853813 -178.022219 
L 159.358106 -177.732953 
L 158.8624 -177.413259 
L 158.366694 -177.086761 
L 157.870988 -176.784605 
L 157.375281 -176.543952 
L 156.879575 -176.404918 
L 156.383869 -176.406208 
L 155.888163 -176.58056 
L 155.392456 -176.950936 
L 154.89675 -177.527136 
L 154.401044 -178.304946 
L 153.905338 -179.26737 
L 153.409631 -180.388078 
L 152.913925 -181.635805 
L 152.418219 -182.97793 
L 151.922513 -184.383705 
L 151.426806 -185.825648 
L 150.9311 -187.282146 
L 150.435394 -188.737511 
L 149.939688 -190.181625 
L 149.443981 -191.610277 
L 148.948275 -193.024199 
L 148.452569 -194.42823 
L 147.956863 -195.829558 
L 147.461156 -197.236592 
L 146.96545 -198.657275 
L 146.469744 -200.097486 
L 145.974038 -201.560061 
L 145.478331 -203.044629 
L 144.982625 -204.546448 
L 144.486919 -206.055922 
L 143.991213 -207.557807 
L 143.495507 -209.032727 
L 142.9998 -210.458589 
L 142.504094 -211.81077 
L 142.008388 -213.064115 
L 141.512682 -214.193432 
L 141.016975 -215.173965 
L 140.521269 -215.982946 
L 140.025563 -216.601032 
L 139.529857 -217.012295 
L 139.03415 -217.205102 
L 138.538444 -217.17213 
L 138.042738 -216.909797 
L 137.547032 -216.419225 
L 137.051325 -215.706387 
L 136.555619 -214.781011 
L 136.059913 -213.655594 
L 135.564207 -212.345006 
L 135.0685 -210.866648 
L 134.572794 -209.239507 
L 134.077088 -207.483578 
L 133.581382 -205.619264 
L 133.085675 -203.666403 
L 132.589969 -201.644107 
L 132.094263 -199.570519 
L 131.598557 -197.462318 
L 131.10285 -195.334944 
L 130.607144 -193.202469 
L 130.111438 -191.077854 
L 129.615732 -188.973558 
L 129.120025 -186.902434 
L 128.624319 -184.877977 
L 128.128613 -182.914862 
L 127.632907 -181.029604 
L 127.1372 -179.241347 
L 126.641494 -177.573029 
L 126.145788 -176.051064 
L 125.650082 -174.704022 
L 125.154375 -173.561476 
L 124.658669 -172.651156 
L 124.162963 -171.994056 
L 123.667257 -171.599907 
L 123.17155 -171.463599 
L 122.675844 -171.563776 
L 122.180138 -171.865247 
L 121.684432 -172.324141 
L 121.188725 -172.893352 
L 120.693019 -173.526359 
L 120.197313 -174.18046 
L 119.701607 -174.819258 
L 119.2059 -175.413468 
L 118.710194 -175.941145 
L 118.214488 -176.387502 
L 117.718782 -176.744157 
L 117.223075 -177.009155 
L 116.727369 -177.187016 
L 116.231663 -177.287659 
L 115.735957 -177.325911 
L 115.24025 -177.320161 
L 114.744544 -177.29155 
L 114.248838 -177.261769 
L 113.753132 -177.250661 
L 113.257425 -177.274903 
L 112.761719 -177.345982 
L 112.266013 -177.468985 
L 111.770307 -177.641627 
L 111.2746 -177.853666 
L 110.778894 -178.088946 
L 110.283188 -178.327062 
L 109.787482 -178.544478 
L 109.291775 -178.717332 
L 108.796069 -178.822485 
L 108.300363 -178.839378 
L 107.804657 -178.751319 
L 107.30895 -178.545498 
L 106.813244 -178.214057 
L 106.317538 -177.754118 
L 105.821832 -177.168111 
L 105.326125 -176.463517 
L 104.830419 -175.651896 
L 104.334713 -174.749111 
L 103.839007 -173.774112 
L 103.3433 -172.748599 
L 102.847594 -171.696136 
L 102.351888 -170.640621 
L 101.856182 -169.606105 
L 101.360475 -168.61584 
L 100.864769 -167.691393 
L 100.369063 -166.851529 
L 99.873357 -166.112113 
L 99.37765 -165.486235 
L 98.881944 -164.983937 
L 98.386238 -164.612379 
L 97.890532 -164.375449 
L 97.394825 -164.275012 
L 96.899119 -164.310117 
L 96.403413 -164.475982 
L 95.907707 -164.763855 
L 95.412 -165.160257 
L 94.916294 -165.646623 
L 94.420588 -166.199745 
L 93.924882 -166.792494 
L 93.429175 -167.395196 
L 92.933469 -167.97633 
L 92.437763 -168.504319 
L 91.942057 -168.949062 
L 91.44635 -169.282951 
L 90.950644 -169.481811 
L 90.454938 -169.526505 
L 89.959232 -169.404405 
L 89.463525 -169.110613 
L 88.967819 -168.649784 
L 88.472113 -168.037751 
L 87.976407 -167.304801 
L 87.4807 -166.498326 
L 86.984994 -165.685849 
L 86.489288 -164.956249 
L 85.993582 -164.416192 
L 85.497875 -164.173964 
L 85.002169 -164.30878 
L 84.506463 -164.840536 
L 84.010757 -165.723672 
L 83.51505 -166.86979 
L 83.019344 -168.177064 
L 82.523638 -169.550168 
L 82.027932 -170.90901 
L 81.532225 -172.189254 
L 81.036519 -173.340652 
L 80.540813 -174.326061 
L 80.045107 -175.119916 
L 79.5494 -175.706799 
L 79.053694 -176.080545 
L 78.557988 -176.243006 
L 78.062282 -176.204002 
L 77.566576 -175.980824 
L 77.070869 -175.596533 
L 76.575163 -175.078643 
L 76.079457 -174.457957 
L 75.583751 -173.767145 
L 75.088044 -173.039552 
L 74.592338 -172.307908 
L 74.096632 -171.601602 
L 73.600926 -170.945948 
L 73.105219 -170.360887 
L 72.609513 -169.860082 
L 72.113807 -169.450884 
L 71.618101 -169.134878 
L 71.122394 -168.908268 
L 70.626688 -168.763388 
L 70.130982 -168.690349 
L 69.635276 -168.677512 
L 69.139569 -168.712758 
L 68.643863 -168.783898 
L 68.148157 -168.879154 
L 67.652451 -168.987421 
L 67.156744 -169.098519 
L 66.661038 -169.204563 
L 66.165332 -169.300382 
L 65.669626 -169.384758 
L 65.173919 -169.461367 
L 64.678213 -169.538563 
L 64.182507 -169.629311 
L 63.686801 -169.751321 
L 63.191094 -169.925781 
L 62.695388 -170.175402 
L 62.199682 -170.521886 
L 61.703976 -170.982307 
L 61.208269 -171.566787 
L 60.712563 -172.277461 
L 60.216857 -173.108759 
L 59.721151 -174.04781 
z
" style="stroke: #ffffff; stroke-opacity: 0.25"/>
    </defs>
    <g clip-path="url(#p43ead8043b)">
     <use xlink:href="#m4b7b593657" x="0" y="285.716719" style="fill: #4c72b0; fill-opacity: 0.25; stroke: #ffffff; stroke-opacity: 0.25"/>
    </g>
   </g>
   <g id="line2d_15">
    <path d="M 59.721151 132.815625 
L 364.084787 132.815625 
L 364.084787 132.815625 
" clip-path="url(#p43ead8043b)" style="fill: none; stroke: #4c72b0; stroke-width: 2; stroke-linecap: round"/>
   </g>
   <g id="patch_3">
    <path d="M 44.502969 243.695625 
L 44.502969 21.935625 
" style="fill: none; stroke: #cccccc; stroke-width: 1.25; stroke-linejoin: miter; stroke-linecap: square"/>
   </g>
   <g id="patch_4">
    <path d="M 379.302969 243.695625 
L 379.302969 21.935625 
" style="fill: none; stroke: #cccccc; stroke-width: 1.25; stroke-linejoin: miter; stroke-linecap: square"/>
   </g>
   <g id="patch_5">
    <path d="M 44.502969 243.695625 
L 379.302969 243.695625 
" style="fill: none; stroke: #cccccc; stroke-width: 1.25; stroke-linejoin: miter; stroke-linecap: square"/>
   </g>
   <g id="patch_6">
    <path d="M 44.502969 21.935625 
L 379.302969 21.935625 
" style="fill: none; stroke: #cccccc; stroke-width: 1.25; stroke-linejoin: miter; stroke-linecap: square"/>
   </g>
   <g id="text_18">
    <!-- Grand-average difference ERP (mean ± SEM) -->
    <g style="fill: #262626" transform="translate(89.442031 15.935625) scale(0.12 -0.12)">
     <defs>
      <path id="ArialMT-47" d="M 2638 1797 
L 2638 2334 
L 4578 2338 
L 4578 638 
Q 4131 281 3656 101 
Q 3181 -78 2681 -78 
Q 2006 -78 1454 211 
Q 903 500 622 1047 
Q 341 1594 341 2269 
Q 341 2938 620 3517 
Q 900 4097 1425 4378 
Q 1950 4659 2634 4659 
Q 3131 4659 3532 4498 
Q 3934 4338 4162 4050 
Q 4391 3763 4509 3300 
L 3963 3150 
Q 3859 3500 3706 3700 
Q 3553 3900 3268 4020 
Q 2984 4141 2638 4141 
Q 2222 4141 1919 4014 
Q 1616 3888 1430 3681 
Q 1244 3475 1141 3228 
Q 966 2803 966 2306 
Q 966 1694 1177 1281 
Q 1388 869 1791 669 
Q 2194 469 2647 469 
Q 3041 469 3416 620 
Q 3791 772 3984 944 
L 3984 1797 
L 2638 1797 
z
" transform="scale(0.015625)"/>
      <path id="ArialMT-72" d="M 416 0 
L 416 3319 
L 922 3319 
L 922 2816 
Q 1116 3169 1280 3281 
Q 1444 3394 1641 3394 
Q 1925 3394 2219 3213 
L 2025 2691 
Q 1819 2813 1613 2813 
Q 1428 2813 1281 2702 
Q 1134 2591 1072 2394 
Q 978 2094 978 1738 
L 978 0 
L 416 0 
z
" transform="scale(0.015625)"/>
      <path id="ArialMT-61" d="M 2588 409 
Q 2275 144 1986 34 
Q 1697 -75 1366 -75 
Q 819 -75 525 192 
Q 231 459 231 875 
Q 231 1119 342 1320 
Q 453 1522 633 1644 
Q 813 1766 1038 1828 
Q 1203 1872 1538 1913 
Q 2219 1994 2541 2106 
Q 2544 2222 2544 2253 
Q 2544 2597 2384 2738 
Q 2169 2928 1744 2928 
Q 1347 2928 1158 2789 
Q 969 2650 878 2297 
L 328 2372 
Q 403 2725 575 2942 
Q 747 3159 1072 3276 
Q 1397 3394 1825 3394 
Q 2250 3394 2515 3294 
Q 2781 3194 2906 3042 
Q 3031 2891 3081 2659 
Q 3109 2516 3109 2141 
L 3109 1391 
Q 3109 606 3145 398 
Q 3181 191 3288 0 
L 2700 0 
Q 2613 175 2588 409 
z
M 2541 1666 
Q 2234 1541 1622 1453 
Q 1275 1403 1131 1340 
Q 988 1278 909 1158 
Q 831 1038 831 891 
Q 831 666 1001 516 
Q 1172 366 1500 366 
Q 1825 366 2078 508 
Q 2331 650 2450 897 
Q 2541 1088 2541 1459 
L 2541 1666 
z
" transform="scale(0.015625)"/>
      <path id="ArialMT-6e" d="M 422 0 
L 422 3319 
L 928 3319 
L 928 2847 
Q 1294 3394 1984 3394 
Q 2284 3394 2536 3286 
Q 2788 3178 2913 3003 
Q 3038 2828 3088 2588 
Q 3119 2431 3119 2041 
L 3119 0 
L 2556 0 
L 2556 2019 
Q 2556 2363 2490 2533 
Q 2425 2703 2258 2804 
Q 2091 2906 1866 2906 
Q 1506 2906 1245 2678 
Q 984 2450 984 1813 
L 984 0 
L 422 0 
z
" transform="scale(0.015625)"/>
      <path id="ArialMT-2d" d="M 203 1375 
L 203 1941 
L 1931 1941 
L 1931 1375 
L 203 1375 
z
" transform="scale(0.015625)"/>
      <path id="ArialMT-76" d="M 1344 0 
L 81 3319 
L 675 3319 
L 1388 1331 
Q 1503 1009 1600 663 
Q 1675 925 1809 1294 
L 2547 3319 
L 3125 3319 
L 1869 0 
L 1344 0 
z
" transform="scale(0.015625)"/>
      <path id="ArialMT-67" d="M 319 -275 
L 866 -356 
Q 900 -609 1056 -725 
Q 1266 -881 1628 -881 
Q 2019 -881 2231 -725 
Q 2444 -569 2519 -288 
Q 2563 -116 2559 434 
Q 2191 0 1641 0 
Q 956 0 581 494 
Q 206 988 206 1678 
Q 206 2153 378 2554 
Q 550 2956 876 3175 
Q 1203 3394 1644 3394 
Q 2231 3394 2613 2919 
L 2613 3319 
L 3131 3319 
L 3131 450 
Q 3131 -325 2973 -648 
Q 2816 -972 2473 -1159 
Q 2131 -1347 1631 -1347 
Q 1038 -1347 672 -1080 
Q 306 -813 319 -275 
z
M 784 1719 
Q 784 1066 1043 766 
Q 1303 466 1694 466 
Q 2081 466 2343 764 
Q 2606 1063 2606 1700 
Q 2606 2309 2336 2618 
Q 2066 2928 1684 2928 
Q 1309 2928 1046 2623 
Q 784 2319 784 1719 
z
" transform="scale(0.015625)"/>
      <path id="ArialMT-66" d="M 556 0 
L 556 2881 
L 59 2881 
L 59 3319 
L 556 3319 
L 556 3672 
Q 556 4006 616 4169 
Q 697 4388 901 4523 
Q 1106 4659 1475 4659 
Q 1713 4659 2000 4603 
L 1916 4113 
Q 1741 4144 1584 4144 
Q 1328 4144 1222 4034 
Q 1116 3925 1116 3625 
L 1116 3319 
L 1763 3319 
L 1763 2881 
L 1116 2881 
L 1116 0 
L 556 0 
z
" transform="scale(0.015625)"/>
      <path id="ArialMT-63" d="M 2588 1216 
L 3141 1144 
Q 3050 572 2676 248 
Q 2303 -75 1759 -75 
Q 1078 -75 664 370 
Q 250 816 250 1647 
Q 250 2184 428 2587 
Q 606 2991 970 3192 
Q 1334 3394 1763 3394 
Q 2303 3394 2647 3120 
Q 2991 2847 3088 2344 
L 2541 2259 
Q 2463 2594 2264 2762 
Q 2066 2931 1784 2931 
Q 1359 2931 1093 2626 
Q 828 2322 828 1663 
Q 828 994 1084 691 
Q 1341 388 1753 388 
Q 2084 388 2306 591 
Q 2528 794 2588 1216 
z
" transform="scale(0.015625)"/>
      <path id="ArialMT-45" d="M 506 0 
L 506 4581 
L 3819 4581 
L 3819 4041 
L 1113 4041 
L 1113 2638 
L 3647 2638 
L 3647 2100 
L 1113 2100 
L 1113 541 
L 3925 541 
L 3925 0 
L 506 0 
z
" transform="scale(0.015625)"/>
      <path id="ArialMT-52" d="M 503 0 
L 503 4581 
L 2534 4581 
Q 3147 4581 3465 4457 
Q 3784 4334 3975 4021 
Q 4166 3709 4166 3331 
Q 4166 2844 3850 2509 
Q 3534 2175 2875 2084 
Q 3116 1969 3241 1856 
Q 3506 1613 3744 1247 
L 4541 0 
L 3778 0 
L 3172 953 
Q 2906 1366 2734 1584 
Q 2563 1803 2427 1890 
Q 2291 1978 2150 2013 
Q 2047 2034 1813 2034 
L 1109 2034 
L 1109 0 
L 503 0 
z
M 1109 2559 
L 2413 2559 
Q 2828 2559 3062 2645 
Q 3297 2731 3419 2920 
Q 3541 3109 3541 3331 
Q 3541 3656 3305 3865 
Q 3069 4075 2559 4075 
L 1109 4075 
L 1109 2559 
z
" transform="scale(0.015625)"/>
      <path id="ArialMT-50" d="M 494 0 
L 494 4581 
L 2222 4581 
Q 2678 4581 2919 4538 
Q 3256 4481 3484 4323 
Q 3713 4166 3852 3881 
Q 3991 3597 3991 3256 
Q 3991 2672 3619 2267 
Q 3247 1863 2275 1863 
L 1100 1863 
L 1100 0 
L 494 0 
z
M 1100 2403 
L 2284 2403 
Q 2872 2403 3119 2622 
Q 3366 2841 3366 3238 
Q 3366 3525 3220 3729 
Q 3075 3934 2838 4000 
Q 2684 4041 2272 4041 
L 1100 4041 
L 1100 2403 
z
" transform="scale(0.015625)"/>
      <path id="ArialMT-b1" d="M 1491 813 
L 1491 2072 
L 244 2072 
L 244 2594 
L 1491 2594 
L 1491 3841 
L 2022 3841 
L 2022 2594 
L 3269 2594 
L 3269 2072 
L 2022 2072 
L 2022 813 
L 1491 813 
z
M 3269 0 
L 244 0 
L 244 525 
L 3269 525 
L 3269 0 
z
" transform="scale(0.015625)"/>
      <path id="ArialMT-53" d="M 288 1472 
L 859 1522 
Q 900 1178 1048 958 
Q 1197 738 1509 602 
Q 1822 466 2213 466 
Q 2559 466 2825 569 
Q 3091 672 3220 851 
Q 3350 1031 3350 1244 
Q 3350 1459 3225 1620 
Q 3100 1781 2813 1891 
Q 2628 1963 1997 2114 
Q 1366 2266 1113 2400 
Q 784 2572 623 2826 
Q 463 3081 463 3397 
Q 463 3744 659 4045 
Q 856 4347 1234 4503 
Q 1613 4659 2075 4659 
Q 2584 4659 2973 4495 
Q 3363 4331 3572 4012 
Q 3781 3694 3797 3291 
L 3216 3247 
Q 3169 3681 2898 3903 
Q 2628 4125 2100 4125 
Q 1550 4125 1298 3923 
Q 1047 3722 1047 3438 
Q 1047 3191 1225 3031 
Q 1400 2872 2139 2705 
Q 2878 2538 3153 2413 
Q 3553 2228 3743 1945 
Q 3934 1663 3934 1294 
Q 3934 928 3725 604 
Q 3516 281 3123 101 
Q 2731 -78 2241 -78 
Q 1619 -78 1198 103 
Q 778 284 539 648 
Q 300 1013 288 1472 
z
" transform="scale(0.015625)"/>
      <path id="ArialMT-4d" d="M 475 0 
L 475 4581 
L 1388 4581 
L 2472 1338 
Q 2622 884 2691 659 
Q 2769 909 2934 1394 
L 4031 4581 
L 4847 4581 
L 4847 0 
L 4263 0 
L 4263 3834 
L 2931 0 
L 2384 0 
L 1059 3900 
L 1059 0 
L 475 0 
z
" transform="scale(0.015625)"/>
     </defs>
     <use xlink:href="#ArialMT-47"/>
     <use xlink:href="#ArialMT-72" transform="translate(77.783203 0)"/>
     <use xlink:href="#ArialMT-61" transform="translate(111.083984 0)"/>
     <use xlink:href="#ArialMT-6e" transform="translate(166.699219 0)"/>
     <use xlink:href="#ArialMT-64" transform="translate(222.314453 0)"/>
     <use xlink:href="#ArialMT-2d" transform="translate(277.929688 0)"/>
     <use xlink:href="#ArialMT-61" transform="translate(311.230469 0)"/>
     <use xlink:href="#ArialMT-76" transform="translate(366.845703 0)"/>
     <use xlink:href="#ArialMT-65" transform="translate(416.845703 0)"/>
     <use xlink:href="#ArialMT-72" transform="translate(472.460938 0)"/>
     <use xlink:href="#ArialMT-61" transform="translate(505.761719 0)"/>
     <use xlink:href="#ArialMT-67" transform="translate(561.376953 0)"/>
     <use xlink:href="#ArialMT-65" transform="translate(616.992188 0)"/>
     <use xlink:href="#ArialMT-20" transform="translate(672.607422 0)"/>
     <use xlink:href="#ArialMT-64" transform="translate(700.390625 0)"/>
     <use xlink:href="#ArialMT-69" transform="translate(756.005859 0)"/>
     <use xlink:href="#ArialMT-66" transform="translate(778.222656 0)"/>
     <use xlink:href="#ArialMT-66" transform="translate(804.255859 0)"/>
     <use xlink:href="#ArialMT-65" transform="translate(832.039062 0)"/>
     <use xlink:href="#ArialMT-72" transform="translate(887.654297 0)"/>
     <use xlink:href="#ArialMT-65" transform="translate(920.955078 0)"/>
     <use xlink:href="#ArialMT-6e" transform="translate(976.570312 0)"/>
     <use xlink:href="#ArialMT-63" transform="translate(1032.185547 0)"/>
     <use xlink:href="#ArialMT-65" transform="translate(1082.185547 0)"/>
     <use xlink:href="#ArialMT-20" transform="translate(1137.800781 0)"/>
     <use xlink:href="#ArialMT-45" transform="translate(1165.583984 0)"/>
     <use xlink:href="#ArialMT-52" transform="translate(1232.283203 0)"/>
     <use xlink:href="#ArialMT-50" transform="translate(1304.5 0)"/>
     <use xlink:href="#ArialMT-20" transform="translate(1369.449219 0)"/>
     <use xlink:href="#ArialMT-28" transform="translate(1397.232422 0)"/>
     <use xlink:href="#ArialMT-6d" transform="translate(1430.533203 0)"/>
     <use xlink:href="#ArialMT-65" transform="translate(1513.833984 0)"/>
     <use xlink:href="#ArialMT-61" transform="translate(1569.449219 0)"/>
     <use xlink:href="#ArialMT-6e" transform="translate(1625.064453 0)"/>
     <use xlink:href="#ArialMT-20" transform="translate(1680.679688 0)"/>
     <use xlink:href="#ArialMT-b1" transform="translate(1708.462891 0)"/>
     <use xlink:href="#ArialMT-20" transform="translate(1763.345703 0)"/>
     <use xlink:href="#ArialMT-53" transform="translate(1791.128906 0)"/>
     <use xlink:href="#ArialMT-45" transform="translate(1857.828125 0)"/>
     <use xlink:href="#ArialMT-4d" transform="translate(1924.527344 0)"/>
     <use xlink:href="#ArialMT-29" transform="translate(2007.828125 0)"/>
    </g>
   </g>
  </g>
 </g>
 <defs>
  <clipPath id="p43ead8043b">
   <rect x="44.502969" y="21.935625" width="334.8" height="221.76"/>
  </clipPath>
 </defs>
</svg>
