<?xml version="1.0" encoding="utf-8" standalone="no"?>
<!DOCTYPE svg PUBLIC "-//W3C//DTD SVG 1.1//EN"
  "http://www.w3.org/Graphics/SVG/1.1/DTD/svg11.dtd">
<svg xmlns:xlink="http://www.w3.org/1999/xlink" width="386.502969pt" height="285.716719pt" viewBox="0 0 386.502969 285.716719" xmlns="http://www.w3.org/2000/svg" version="1.1">
 <metadata>
  <rdf:RDF xmlns:dc="http://purl.org/dc/elements/1.1/" xmlns:cc="http://creativecommons.org/ns#" xmlns:rdf="http://www.w3.org/1999/02/22-rdf-syntax-ns#">
   <cc:Work>
    <dc:type rdf:resource="http://purl.org/dc/dcmitype/StillImage"/>
    <dc:date>2025-11-21T14:38:11.250687</dc:date>
    <dc:format>image/svg+xml</dc:format>
    <dc:creator>
     <cc:Agent>
      <dc:title>Matplotlib v3.10.3, https://matplotlib.org/</dc:title>
     </cc:Agent>
    </dc:creator>
   </cc:Work>
  </rdf:RDF>
 </metadata>
 <defs>
  <style type="text/css">*{stroke-linejoin: round; stroke-linecap: butt}</style>
 </defs>
 <g id="figure_1">
  <g id="patch_1">
   <path d="M 0 285.716719 
L 386.502969 285.716719 
L 386.502969 0 
L 0 0 
z
" style="fill: #ffffff"/>
  </g>
  <g id="axes_1">
   <g id="patch_2">
    <path d="M 44.502969 243.695625 
L 379.302969 243.695625 
L 379.302969 21.935625 
L 44.502969 21.935625 
z
" style="fill: #ffffff"/>
   </g>
   <g id="matplotlib.axis_1">
    <g id="xtick_1">
     <g id="line2d_1">
      <path d="M 59.721151 243.695625 
L 59.721151 21.935625 
" clip-path="url(#p5e9091df46)" style="fill: none; stroke: #cccccc; stroke-linecap: round"/>
     </g>
     <g id="text_1">
      <!-- 0 -->
      <g style="fill: #262626" transform="translate(56.662635 261.069219) scale(0.11 -0.11)">
       <defs>
        <path id="ArialMT-30" d="M 266 2259 
Q 266 3072 433 3567 
Q 600 4063 929 4331 
Q 1259 4600 1759 4600 
Q 2128 4600 2406 4451 
Q 2684 4303 2865 4023 
Q 3047 3744 3150 3342 
Q 3253 2941 3253 2259 
Q 3253 1453 3087 958 
Q 2922 463 2592 192 
Q 2263 -78 1759 -78 
Q 1097 -78 719 397 
Q 266 969 266 2259 
z
M 844 2259 
Q 844 1131 1108 757 
Q 1372 384 1759 384 
Q 2147 384 2411 759 
Q 2675 1134 2675 2259 
Q 2675 3391 2411 3762 
Q 2147 4134 1753 4134 
Q 1366 4134 1134 3806 
Q 844 3388 844 2259 
z
" transform="scale(0.015625)"/>
       </defs>
       <use xlink:href="#ArialMT-30"/>
      </g>
     </g>
    </g>
    <g id="xtick_2">
     <g id="line2d_2">
      <path d="M 110.448423 243.695625 
L 110.448423 21.935625 
" clip-path="url(#p5e9091df46)" style="fill: none; stroke: #cccccc; stroke-linecap: round"/>
     </g>
     <g id="text_2">
      <!-- 100 -->
      <g style="fill: #262626" transform="translate(101.272876 261.069219) scale(0.11 -0.11)">
       <defs>
        <path id="ArialMT-31" d="M 2384 0 
L 1822 0 
L 1822 3584 
Q 1619 3391 1289 3197 
Q 959 3003 697 2906 
L 697 3450 
Q 1169 3672 1522 3987 
Q 1875 4303 2022 4600 
L 2384 4600 
L 2384 0 
z
" transform="scale(0.015625)"/>
       </defs>
       <use xlink:href="#ArialMT-31"/>
       <use xlink:href="#ArialMT-30" transform="translate(55.615234 0)"/>
       <use xlink:href="#ArialMT-30" transform="translate(111.230469 0)"/>
      </g>
     </g>
    </g>
    <g id="xtick_3">
     <g id="line2d_3">
      <path d="M 161.175696 243.695625 
L 161.175696 21.935625 
" clip-path="url(#p5e9091df46)" style="fill: none; stroke: #cccccc; stroke-linecap: round"/>
     </g>
     <g id="text_3">
      <!-- 200 -->
      <g style="fill: #262626" transform="translate(152.000149 261.069219) scale(0.11 -0.11)">
       <defs>
        <path id="ArialMT-32" d="M 3222 541 
L 3222 0 
L 194 0 
Q 188 203 259 391 
Q 375 700 629 1000 
Q 884 1300 1366 1694 
Q 2113 2306 2375 2664 
Q 2638 3022 2638 3341 
Q 2638 3675 2398 3904 
Q 2159 4134 1775 4134 
Q 1369 4134 1125 3890 
Q 881 3647 878 3216 
L 300 3275 
Q 359 3922 746 4261 
Q 1134 4600 1788 4600 
Q 2447 4600 2831 4234 
Q 3216 3869 3216 3328 
Q 3216 3053 3103 2787 
Q 2991 2522 2730 2228 
Q 2469 1934 1863 1422 
Q 1356 997 1212 845 
Q 1069 694 975 541 
L 3222 541 
z
" transform="scale(0.015625)"/>
       </defs>
       <use xlink:href="#ArialMT-32"/>
       <use xlink:href="#ArialMT-30" transform="translate(55.615234 0)"/>
       <use xlink:href="#ArialMT-30" transform="translate(111.230469 0)"/>
      </g>
     </g>
    </g>
    <g id="xtick_4">
     <g id="line2d_4">
      <path d="M 211.902969 243.695625 
L 211.902969 21.935625 
" clip-path="url(#p5e9091df46)" style="fill: none; stroke: #cccccc; stroke-linecap: round"/>
     </g>
     <g id="text_4">
      <!-- 300 -->
      <g style="fill: #262626" transform="translate(202.727422 261.069219) scale(0.11 -0.11)">
       <defs>
        <path id="ArialMT-33" d="M 269 1209 
L 831 1284 
Q 928 806 1161 595 
Q 1394 384 1728 384 
Q 2125 384 2398 659 
Q 2672 934 2672 1341 
Q 2672 1728 2419 1979 
Q 2166 2231 1775 2231 
Q 1616 2231 1378 2169 
L 1441 2663 
Q 1497 2656 1531 2656 
Q 1891 2656 2178 2843 
Q 2466 3031 2466 3422 
Q 2466 3731 2256 3934 
Q 2047 4138 1716 4138 
Q 1388 4138 1169 3931 
Q 950 3725 888 3313 
L 325 3413 
Q 428 3978 793 4289 
Q 1159 4600 1703 4600 
Q 2078 4600 2393 4439 
Q 2709 4278 2876 4000 
Q 3044 3722 3044 3409 
Q 3044 3113 2884 2869 
Q 2725 2625 2413 2481 
Q 2819 2388 3044 2092 
Q 3269 1797 3269 1353 
Q 3269 753 2831 336 
Q 2394 -81 1725 -81 
Q 1122 -81 723 278 
Q 325 638 269 1209 
z
" transform="scale(0.015625)"/>
       </defs>
       <use xlink:href="#ArialMT-33"/>
       <use xlink:href="#ArialMT-30" transform="translate(55.615234 0)"/>
       <use xlink:href="#ArialMT-30" transform="translate(111.230469 0)"/>
      </g>
     </g>
    </g>
    <g id="xtick_5">
     <g id="line2d_5">
      <path d="M 262.630241 243.695625 
L 262.630241 21.935625 
" clip-path="url(#p5e9091df46)" style="fill: none; stroke: #cccccc; stroke-linecap: round"/>
     </g>
     <g id="text_5">
      <!-- 400 -->
      <g style="fill: #262626" transform="translate(253.454695 261.069219) scale(0.11 -0.11)">
       <defs>
        <path id="ArialMT-34" d="M 2069 0 
L 2069 1097 
L 81 1097 
L 81 1613 
L 2172 4581 
L 2631 4581 
L 2631 1613 
L 3250 1613 
L 3250 1097 
L 2631 1097 
L 2631 0 
L 2069 0 
z
M 2069 1613 
L 2069 3678 
L 634 1613 
L 2069 1613 
z
" transform="scale(0.015625)"/>
       </defs>
       <use xlink:href="#ArialMT-34"/>
       <use xlink:href="#ArialMT-30" transform="translate(55.615234 0)"/>
       <use xlink:href="#ArialMT-30" transform="translate(111.230469 0)"/>
      </g>
     </g>
    </g>
    <g id="xtick_6">
     <g id="line2d_6">
      <path d="M 313.357514 243.695625 
L 313.357514 21.935625 
" clip-path="url(#p5e9091df46)" style="fill: none; stroke: #cccccc; stroke-linecap: round"/>
     </g>
     <g id="text_6">
      <!-- 500 -->
      <g style="fill: #262626" transform="translate(304.181967 261.069219) scale(0.11 -0.11)">
       <defs>
        <path id="ArialMT-35" d="M 266 1200 
L 856 1250 
Q 922 819 1161 601 
Q 1400 384 1738 384 
Q 2144 384 2425 690 
Q 2706 997 2706 1503 
Q 2706 1984 2436 2262 
Q 2166 2541 1728 2541 
Q 1456 2541 1237 2417 
Q 1019 2294 894 2097 
L 366 2166 
L 809 4519 
L 3088 4519 
L 3088 3981 
L 1259 3981 
L 1013 2750 
Q 1425 3038 1878 3038 
Q 2478 3038 2890 2622 
Q 3303 2206 3303 1553 
Q 3303 931 2941 478 
Q 2500 -78 1738 -78 
Q 1113 -78 717 272 
Q 322 622 266 1200 
z
" transform="scale(0.015625)"/>
       </defs>
       <use xlink:href="#ArialMT-35"/>
       <use xlink:href="#ArialMT-30" transform="translate(55.615234 0)"/>
       <use xlink:href="#ArialMT-30" transform="translate(111.230469 0)"/>
      </g>
     </g>
    </g>
    <g id="xtick_7">
     <g id="line2d_7">
      <path d="M 364.084787 243.695625 
L 364.084787 21.935625 
" clip-path="url(#p5e9091df46)" style="fill: none; stroke: #cccccc; stroke-linecap: round"/>
     </g>
     <g id="text_7">
      <!-- 600 -->
      <g style="fill: #262626" transform="translate(354.90924 261.069219) scale(0.11 -0.11)">
       <defs>
        <path id="ArialMT-36" d="M 3184 3459 
L 2625 3416 
Q 2550 3747 2413 3897 
Q 2184 4138 1850 4138 
Q 1581 4138 1378 3988 
Q 1113 3794 959 3422 
Q 806 3050 800 2363 
Q 1003 2672 1297 2822 
Q 1591 2972 1913 2972 
Q 2475 2972 2870 2558 
Q 3266 2144 3266 1488 
Q 3266 1056 3080 686 
Q 2894 316 2569 119 
Q 2244 -78 1831 -78 
Q 1128 -78 684 439 
Q 241 956 241 2144 
Q 241 3472 731 4075 
Q 1159 4600 1884 4600 
Q 2425 4600 2770 4297 
Q 3116 3994 3184 3459 
z
M 888 1484 
Q 888 1194 1011 928 
Q 1134 663 1356 523 
Q 1578 384 1822 384 
Q 2178 384 2434 671 
Q 2691 959 2691 1453 
Q 2691 1928 2437 2201 
Q 2184 2475 1800 2475 
Q 1419 2475 1153 2201 
Q 888 1928 888 1484 
z
" transform="scale(0.015625)"/>
       </defs>
       <use xlink:href="#ArialMT-36"/>
       <use xlink:href="#ArialMT-30" transform="translate(55.615234 0)"/>
       <use xlink:href="#ArialMT-30" transform="translate(111.230469 0)"/>
      </g>
     </g>
    </g>
    <g id="text_8">
     <!-- Time (ms) -->
     <g style="fill: #262626" transform="translate(185.135469 275.991094) scale(0.12 -0.12)">
      <defs>
       <path id="ArialMT-54" d="M 1659 0 
L 1659 4041 
L 150 4041 
L 150 4581 
L 3781 4581 
L 3781 4041 
L 2266 4041 
L 2266 0 
L 1659 0 
z
" transform="scale(0.015625)"/>
       <path id="ArialMT-69" d="M 425 3934 
L 425 4581 
L 988 4581 
L 988 3934 
L 425 3934 
z
M 425 0 
L 425 3319 
L 988 3319 
L 988 0 
L 425 0 
z
" transform="scale(0.015625)"/>
       <path id="ArialMT-6d" d="M 422 0 
L 422 3319 
L 925 3319 
L 925 2853 
Q 1081 3097 1340 3245 
Q 1600 3394 1931 3394 
Q 2300 3394 2536 3241 
Q 2772 3088 2869 2813 
Q 3263 3394 3894 3394 
Q 4388 3394 4653 3120 
Q 4919 2847 4919 2278 
L 4919 0 
L 4359 0 
L 4359 2091 
Q 4359 2428 4304 2576 
Q 4250 2725 4106 2815 
Q 3963 2906 3769 2906 
Q 3419 2906 3187 2673 
Q 2956 2441 2956 1928 
L 2956 0 
L 2394 0 
L 2394 2156 
Q 2394 2531 2256 2718 
Q 2119 2906 1806 2906 
Q 1569 2906 1367 2781 
Q 1166 2656 1075 2415 
Q 984 2175 984 1722 
L 984 0 
L 422 0 
z
" transform="scale(0.015625)"/>
       <path id="ArialMT-65" d="M 2694 1069 
L 3275 997 
Q 3138 488 2766 206 
Q 2394 -75 1816 -75 
Q 1088 -75 661 373 
Q 234 822 234 1631 
Q 234 2469 665 2931 
Q 1097 3394 1784 3394 
Q 2450 3394 2872 2941 
Q 3294 2488 3294 1666 
Q 3294 1616 3291 1516 
L 816 1516 
Q 847 969 1125 678 
Q 1403 388 1819 388 
Q 2128 388 2347 550 
Q 2566 713 2694 1069 
z
M 847 1978 
L 2700 1978 
Q 2663 2397 2488 2606 
Q 2219 2931 1791 2931 
Q 1403 2931 1139 2672 
Q 875 2413 847 1978 
z
" transform="scale(0.015625)"/>
       <path id="ArialMT-20" transform="scale(0.015625)"/>
       <path id="ArialMT-28" d="M 1497 -1347 
Q 1031 -759 709 28 
Q 388 816 388 1659 
Q 388 2403 628 3084 
Q 909 3875 1497 4659 
L 1900 4659 
Q 1522 4009 1400 3731 
Q 1209 3300 1100 2831 
Q 966 2247 966 1656 
Q 966 153 1900 -1347 
L 1497 -1347 
z
" transform="scale(0.015625)"/>
       <path id="ArialMT-73" d="M 197 991 
L 753 1078 
Q 800 744 1014 566 
Q 1228 388 1613 388 
Q 2000 388 2187 545 
Q 2375 703 2375 916 
Q 2375 1106 2209 1216 
Q 2094 1291 1634 1406 
Q 1016 1563 777 1677 
Q 538 1791 414 1992 
Q 291 2194 291 2438 
Q 291 2659 392 2848 
Q 494 3038 669 3163 
Q 800 3259 1026 3326 
Q 1253 3394 1513 3394 
Q 1903 3394 2198 3281 
Q 2494 3169 2634 2976 
Q 2775 2784 2828 2463 
L 2278 2388 
Q 2241 2644 2061 2787 
Q 1881 2931 1553 2931 
Q 1166 2931 1000 2803 
Q 834 2675 834 2503 
Q 834 2394 903 2306 
Q 972 2216 1119 2156 
Q 1203 2125 1616 2013 
Q 2213 1853 2448 1751 
Q 2684 1650 2818 1456 
Q 2953 1263 2953 975 
Q 2953 694 2789 445 
Q 2625 197 2315 61 
Q 2006 -75 1616 -75 
Q 969 -75 630 194 
Q 291 463 197 991 
z
" transform="scale(0.015625)"/>
       <path id="ArialMT-29" d="M 791 -1347 
L 388 -1347 
Q 1322 153 1322 1656 
Q 1322 2244 1188 2822 
Q 1081 3291 891 3722 
Q 769 4003 388 4659 
L 791 4659 
Q 1378 3875 1659 3084 
Q 1900 2403 1900 1659 
Q 1900 816 1576 28 
Q 1253 -759 791 -1347 
z
" transform="scale(0.015625)"/>
      </defs>
      <use xlink:href="#ArialMT-54"/>
      <use xlink:href="#ArialMT-69" transform="translate(57.333984 0)"/>
      <use xlink:href="#ArialMT-6d" transform="translate(79.550781 0)"/>
      <use xlink:href="#ArialMT-65" transform="translate(162.851562 0)"/>
      <use xlink:href="#ArialMT-20" transform="translate(218.466797 0)"/>
      <use xlink:href="#ArialMT-28" transform="translate(246.25 0)"/>
      <use xlink:href="#ArialMT-6d" transform="translate(279.550781 0)"/>
      <use xlink:href="#ArialMT-73" transform="translate(362.851562 0)"/>
      <use xlink:href="#ArialMT-29" transform="translate(412.851562 0)"/>
     </g>
    </g>
   </g>
   <g id="matplotlib.axis_2">
    <g id="ytick_1">
     <g id="line2d_8">
      <path d="M 44.502969 224.219551 
L 379.302969 224.219551 
" clip-path="url(#p5e9091df46)" style="fill: none; stroke: #cccccc; stroke-linecap: round"/>
     </g>
     <g id="text_9">
      <!-- −2 -->
      <g style="fill: #262626" transform="translate(22.46125 228.156348) scale(0.11 -0.11)">
       <defs>
        <path id="ArialMT-2212" d="M 3381 1997 
L 356 1997 
L 356 2522 
L 3381 2522 
L 3381 1997 
z
" transform="scale(0.015625)"/>
       </defs>
       <use xlink:href="#ArialMT-2212"/>
       <use xlink:href="#ArialMT-32" transform="translate(58.398438 0)"/>
      </g>
     </g>
    </g>
    <g id="ytick_2">
     <g id="line2d_9">
      <path d="M 44.502969 184.393413 
L 379.302969 184.393413 
" clip-path="url(#p5e9091df46)" style="fill: none; stroke: #cccccc; stroke-linecap: round"/>
     </g>
     <g id="text_10">
      <!-- −1 -->
      <g style="fill: #262626" transform="translate(22.46125 188.33021) scale(0.11 -0.11)">
       <use xlink:href="#ArialMT-2212"/>
       <use xlink:href="#ArialMT-31" transform="translate(58.398438 0)"/>
      </g>
     </g>
    </g>
    <g id="ytick_3">
     <g id="line2d_10">
      <path d="M 44.502969 144.567274 
L 379.302969 144.567274 
" clip-path="url(#p5e9091df46)" style="fill: none; stroke: #cccccc; stroke-linecap: round"/>
     </g>
     <g id="text_11">
      <!-- 0 -->
      <g style="fill: #262626" transform="translate(28.885938 148.504071) scale(0.11 -0.11)">
       <use xlink:href="#ArialMT-30"/>
      </g>
     </g>
    </g>
    <g id="ytick_4">
     <g id="line2d_11">
      <path d="M 44.502969 104.741136 
L 379.302969 104.741136 
" clip-path="url(#p5e9091df46)" style="fill: none; stroke: #cccccc; stroke-linecap: round"/>
     </g>
     <g id="text_12">
      <!-- 1 -->
      <g style="fill: #262626" transform="translate(28.885938 108.677933) scale(0.11 -0.11)">
       <use xlink:href="#ArialMT-31"/>
      </g>
     </g>
    </g>
    <g id="ytick_5">
     <g id="line2d_12">
      <path d="M 44.502969 64.914997 
L 379.302969 64.914997 
" clip-path="url(#p5e9091df46)" style="fill: none; stroke: #cccccc; stroke-linecap: round"/>
     </g>
     <g id="text_13">
      <!-- 2 -->
      <g style="fill: #262626" transform="translate(28.885938 68.851794) scale(0.11 -0.11)">
       <use xlink:href="#ArialMT-32"/>
      </g>
     </g>
    </g>
    <g id="ytick_6">
     <g id="line2d_13">
      <path d="M 44.502969 25.088859 
L 379.302969 25.088859 
" clip-path="url(#p5e9091df46)" style="fill: none; stroke: #cccccc; stroke-linecap: round"/>
     </g>
     <g id="text_14">
      <!-- 3 -->
      <g style="fill: #262626" transform="translate(28.885938 29.025656) scale(0.11 -0.11)">
       <use xlink:href="#ArialMT-33"/>
      </g>
     </g>
    </g>
    <g id="text_15">
     <!-- Amplitude (µV) -->
     <g style="fill: #262626" transform="translate(15.935625 172.617187) rotate(-90) scale(0.12 -0.12)">
      <defs>
       <path id="ArialMT-41" d="M -9 0 
L 1750 4581 
L 2403 4581 
L 4278 0 
L 3588 0 
L 3053 1388 
L 1138 1388 
L 634 0 
L -9 0 
z
M 1313 1881 
L 2866 1881 
L 2388 3150 
Q 2169 3728 2063 4100 
Q 1975 3659 1816 3225 
L 1313 1881 
z
" transform="scale(0.015625)"/>
       <path id="ArialMT-70" d="M 422 -1272 
L 422 3319 
L 934 3319 
L 934 2888 
Q 1116 3141 1344 3267 
Q 1572 3394 1897 3394 
Q 2322 3394 2647 3175 
Q 2972 2956 3137 2557 
Q 3303 2159 3303 1684 
Q 3303 1175 3120 767 
Q 2938 359 2589 142 
Q 2241 -75 1856 -75 
Q 1575 -75 1351 44 
Q 1128 163 984 344 
L 984 -1272 
L 422 -1272 
z
M 931 1641 
Q 931 1000 1190 694 
Q 1450 388 1819 388 
Q 2194 388 2461 705 
Q 2728 1022 2728 1688 
Q 2728 2322 2467 2637 
Q 2206 2953 1844 2953 
Q 1484 2953 1207 2617 
Q 931 2281 931 1641 
z
" transform="scale(0.015625)"/>
       <path id="ArialMT-6c" d="M 409 0 
L 409 4581 
L 972 4581 
L 972 0 
L 409 0 
z
" transform="scale(0.015625)"/>
       <path id="ArialMT-74" d="M 1650 503 
L 1731 6 
Q 1494 -44 1306 -44 
Q 1000 -44 831 53 
Q 663 150 594 308 
Q 525 466 525 972 
L 525 2881 
L 113 2881 
L 113 3319 
L 525 3319 
L 525 4141 
L 1084 4478 
L 1084 3319 
L 1650 3319 
L 1650 2881 
L 1084 2881 
L 1084 941 
Q 1084 700 1114 631 
Q 1144 563 1211 522 
Q 1278 481 1403 481 
Q 1497 481 1650 503 
z
" transform="scale(0.015625)"/>
       <path id="ArialMT-75" d="M 2597 0 
L 2597 488 
Q 2209 -75 1544 -75 
Q 1250 -75 995 37 
Q 741 150 617 320 
Q 494 491 444 738 
Q 409 903 409 1263 
L 409 3319 
L 972 3319 
L 972 1478 
Q 972 1038 1006 884 
Q 1059 663 1231 536 
Q 1403 409 1656 409 
Q 1909 409 2131 539 
Q 2353 669 2445 892 
Q 2538 1116 2538 1541 
L 2538 3319 
L 3100 3319 
L 3100 0 
L 2597 0 
z
" transform="scale(0.015625)"/>
       <path id="ArialMT-64" d="M 2575 0 
L 2575 419 
Q 2259 -75 1647 -75 
Q 1250 -75 917 144 
Q 584 363 401 755 
Q 219 1147 219 1656 
Q 219 2153 384 2558 
Q 550 2963 881 3178 
Q 1213 3394 1622 3394 
Q 1922 3394 2156 3267 
Q 2391 3141 2538 2938 
L 2538 4581 
L 3097 4581 
L 3097 0 
L 2575 0 
z
M 797 1656 
Q 797 1019 1065 703 
Q 1334 388 1700 388 
Q 2069 388 2326 689 
Q 2584 991 2584 1609 
Q 2584 2291 2321 2609 
Q 2059 2928 1675 2928 
Q 1300 2928 1048 2622 
Q 797 2316 797 1656 
z
" transform="scale(0.015625)"/>
       <path id="ArialMT-b5" d="M 3181 3319 
L 3181 0 
L 2678 0 
L 2678 394 
Q 2516 144 2356 50 
Q 2138 -78 1847 -78 
Q 1588 -78 1388 25 
Q 1238 103 1056 334 
L 1056 -1272 
L 500 -1272 
L 500 3319 
L 1056 3319 
L 1056 1913 
Q 1056 1147 1137 920 
Q 1219 694 1401 562 
Q 1584 431 1822 431 
Q 2072 431 2269 568 
Q 2466 706 2547 923 
Q 2628 1141 2628 1903 
L 2628 3319 
L 3181 3319 
z
" transform="scale(0.015625)"/>
       <path id="ArialMT-56" d="M 1803 0 
L 28 4581 
L 684 4581 
L 1875 1253 
Q 2019 853 2116 503 
Q 2222 878 2363 1253 
L 3600 4581 
L 4219 4581 
L 2425 0 
L 1803 0 
z
" transform="scale(0.015625)"/>
      </defs>
      <use xlink:href="#ArialMT-41"/>
      <use xlink:href="#ArialMT-6d" transform="translate(66.699219 0)"/>
      <use xlink:href="#ArialMT-70" transform="translate(150 0)"/>
      <use xlink:href="#ArialMT-6c" transform="translate(205.615234 0)"/>
      <use xlink:href="#ArialMT-69" transform="translate(227.832031 0)"/>
      <use xlink:href="#ArialMT-74" transform="translate(250.048828 0)"/>
      <use xlink:href="#ArialMT-75" transform="translate(277.832031 0)"/>
      <use xlink:href="#ArialMT-64" transform="translate(333.447266 0)"/>
      <use xlink:href="#ArialMT-65" transform="translate(389.0625 0)"/>
      <use xlink:href="#ArialMT-20" transform="translate(444.677734 0)"/>
      <use xlink:href="#ArialMT-28" transform="translate(472.460938 0)"/>
      <use xlink:href="#ArialMT-b5" transform="translate(505.761719 0)"/>
      <use xlink:href="#ArialMT-56" transform="translate(563.378906 0)"/>
      <use xlink:href="#ArialMT-29" transform="translate(630.078125 0)"/>
     </g>
    </g>
   </g>
   <g id="patch_3">
    <path d="M 186.539332 243.695625 
L 313.357514 243.695625 
L 313.357514 21.935625 
L 186.539332 21.935625 
z
" clip-path="url(#p5e9091df46)" style="fill: #808080; opacity: 0.12; stroke: #808080; stroke-linejoin: miter"/>
   </g>
   <g id="line2d_14">
    <path d="M 59.721151 134.17906 
L 61.710455 140.311348 
L 63.69976 132.407055 
L 65.689065 144.825144 
L 67.67837 161.351555 
L 69.667675 140.446868 
L 71.656979 159.241716 
L 73.646284 134.699164 
L 75.635589 139.712131 
L 77.624894 159.002592 
L 79.614199 138.990938 
L 81.603504 152.372336 
L 83.592808 122.064997 
L 85.582113 143.824068 
L 87.571418 127.607237 
L 89.560723 157.021407 
L 91.550028 136.16816 
L 93.539332 145.251317 
L 95.528637 140.280334 
L 97.517942 156.051094 
L 99.507247 145.429544 
L 101.496552 165.205831 
L 103.485856 152.196432 
L 105.475161 152.100084 
L 107.464466 203.159245 
L 109.453771 233.615625 
L 111.443076 184.696115 
L 113.432381 147.08227 
L 115.421685 136.849504 
L 117.41099 139.249571 
L 119.400295 140.817945 
L 121.3896 127.177559 
L 123.378905 129.034602 
L 125.368209 143.999774 
L 127.357514 138.254292 
L 129.346819 149.440008 
L 131.336124 134.904713 
L 133.325429 137.212308 
L 135.314733 128.040821 
L 137.304038 145.280219 
L 139.293343 144.842516 
L 141.282648 138.362681 
L 143.271953 148.242187 
L 145.261258 137.176709 
L 147.250562 164.488511 
L 149.239867 145.079416 
L 151.229172 128.713236 
L 153.218477 133.471949 
L 155.207782 130.615239 
L 157.197086 139.150641 
L 159.186391 134.284475 
L 161.175696 162.576504 
L 163.165001 119.945714 
L 165.154306 140.456517 
L 167.14361 167.223255 
L 169.132915 151.405841 
L 171.12222 143.302625 
L 173.111525 143.400196 
L 175.10083 140.185367 
L 177.090135 124.542768 
L 179.079439 153.903622 
L 181.068744 144.458323 
L 183.058049 163.80855 
L 185.047354 136.466178 
L 187.036659 173.002529 
L 189.025963 122.968105 
L 191.015268 150.891183 
L 193.004573 106.42658 
L 194.993878 95.493356 
L 196.983183 111.211111 
L 198.972487 80.02388 
L 200.961792 70.359915 
L 202.951097 73.78177 
L 204.940402 51.408094 
L 206.929707 50.875477 
L 208.919012 63.205151 
L 210.908316 44.983606 
L 212.897621 68.05276 
L 214.886926 58.116041 
L 216.876231 32.015625 
L 218.865536 51.264888 
L 220.85484 67.974495 
L 222.844145 62.475928 
L 224.83345 99.384859 
L 226.822755 92.318031 
L 228.81206 79.952012 
L 230.801364 108.227237 
L 232.790669 114.566355 
L 234.779974 142.558332 
L 236.769279 106.899451 
L 238.758584 127.65048 
L 240.747889 118.174787 
L 242.737193 119.184119 
L 244.726498 147.371607 
L 246.715803 131.249658 
L 248.705108 136.736698 
L 250.694413 129.470878 
L 252.683717 146.993995 
L 254.673022 149.035811 
L 256.662327 154.315871 
L 258.651632 142.950041 
L 260.640937 130.197579 
L 262.630241 140.282042 
L 264.619546 153.024254 
L 266.608851 143.421007 
L 268.598156 139.508061 
L 270.587461 152.242296 
L 272.576766 124.950011 
L 274.56607 138.686188 
L 276.555375 137.76156 
L 278.54468 145.733368 
L 280.533985 127.560842 
L 282.52329 145.128993 
L 284.512594 115.131493 
L 286.501899 139.260752 
L 288.491204 156.758228 
L 290.480509 137.481922 
L 292.469814 141.940259 
L 294.459118 147.118329 
L 296.448423 126.702278 
L 298.437728 145.685715 
L 300.427033 136.184409 
L 302.416338 131.610465 
L 304.405643 154.08344 
L 306.394947 139.536334 
L 308.384252 178.837811 
L 310.373557 138.469071 
L 312.362862 167.901517 
L 314.352167 140.981476 
L 316.341471 124.765553 
L 318.330776 148.117275 
L 320.320081 142.701095 
L 322.309386 157.383454 
L 324.298691 135.440899 
L 326.287995 132.438657 
L 328.2773 146.997932 
L 330.266605 137.293005 
L 332.25591 135.170925 
L 334.245215 150.947851 
L 336.23452 143.268578 
L 338.223824 139.892699 
L 340.213129 142.557908 
L 342.202434 137.108871 
L 344.191739 133.210579 
L 346.181044 160.834154 
L 348.170348 133.08428 
L 350.159653 133.855311 
L 352.148958 142.74024 
L 354.138263 153.891719 
L 356.127568 128.081699 
L 358.116872 150.226374 
L 360.106177 149.126526 
L 362.095482 132.260223 
L 364.084787 151.993773 
L 364.084787 151.993773 
" clip-path="url(#p5e9091df46)" style="fill: none; stroke: #4c72b0; stroke-width: 2; stroke-linecap: round"/>
   </g>
   <g id="line2d_15">
    <path d="M 59.721151 148.868027 
L 61.710455 153.730396 
L 63.69976 121.550194 
L 65.689065 142.65919 
L 67.67837 133.985345 
L 69.667675 156.617587 
L 71.656979 125.985202 
L 73.646284 137.614413 
L 75.635589 141.137105 
L 77.624894 160.315814 
L 79.614199 163.646567 
L 81.603504 124.953574 
L 83.592808 159.609992 
L 85.582113 119.361909 
L 87.571418 137.740669 
L 89.560723 133.616976 
L 91.550028 153.88023 
L 93.539332 159.90547 
L 95.528637 149.665567 
L 97.517942 137.809434 
L 99.507247 130.51626 
L 101.496552 140.00634 
L 103.485856 154.915626 
L 105.475161 154.741767 
L 107.464466 169.409795 
L 109.453771 212.435774 
L 113.432381 165.618471 
L 115.421685 146.971454 
L 117.41099 126.524766 
L 119.400295 135.416121 
L 121.3896 132.539708 
L 123.378905 117.548602 
L 125.368209 141.515095 
L 127.357514 162.089354 
L 129.346819 138.362173 
L 131.336124 167.429344 
L 133.325429 149.175779 
L 135.314733 138.863793 
L 137.304038 140.761326 
L 139.293343 161.935146 
L 141.282648 155.522466 
L 143.271953 151.040307 
L 145.261258 164.980581 
L 147.250562 132.722442 
L 149.239867 142.136697 
L 151.229172 167.197425 
L 153.218477 140.228218 
L 155.207782 146.941192 
L 157.197086 146.642099 
L 159.186391 155.510721 
L 161.175696 152.683349 
L 163.165001 153.335524 
L 165.154306 136.5813 
L 167.14361 145.203134 
L 169.132915 126.479689 
L 171.12222 124.452147 
L 173.111525 149.91191 
L 175.10083 139.158114 
L 177.090135 157.447779 
L 179.079439 132.1801 
L 181.068744 137.652544 
L 183.058049 148.273086 
L 185.047354 152.719483 
L 187.036659 167.803303 
L 189.025963 141.926616 
L 191.015268 140.703863 
L 193.004573 115.05263 
L 194.993878 140.990641 
L 196.983183 124.550435 
L 198.972487 113.796217 
L 200.961792 125.320135 
L 202.951097 137.899111 
L 204.940402 128.950956 
L 206.929707 126.648491 
L 208.919012 134.479164 
L 210.908316 126.917236 
L 212.897621 142.009967 
L 214.886926 103.882634 
L 216.876231 105.638653 
L 218.865536 124.354825 
L 220.85484 105.947661 
L 222.844145 119.335038 
L 224.83345 119.576598 
L 226.822755 132.718812 
L 228.81206 144.780393 
L 230.801364 136.775172 
L 232.790669 142.18463 
L 234.779974 127.943755 
L 236.769279 134.480386 
L 238.758584 142.996362 
L 240.747889 132.902887 
L 242.737193 121.535571 
L 244.726498 133.138882 
L 246.715803 145.894745 
L 248.705108 137.331444 
L 250.694413 156.29613 
L 252.683717 125.145245 
L 254.673022 149.401988 
L 256.662327 153.593923 
L 258.651632 123.604155 
L 260.640937 139.465807 
L 262.630241 156.777262 
L 264.619546 154.114691 
L 266.608851 127.859121 
L 268.598156 166.290559 
L 270.587461 136.264302 
L 272.576766 157.374531 
L 276.555375 146.005032 
L 278.54468 151.817945 
L 280.533985 128.057336 
L 282.52329 146.794506 
L 284.512594 142.806207 
L 286.501899 148.617638 
L 288.491204 136.078884 
L 290.480509 138.792078 
L 292.469814 166.12637 
L 294.459118 164.557999 
L 296.448423 138.287484 
L 298.437728 163.235885 
L 300.427033 154.087923 
L 302.416338 147.625162 
L 304.405643 149.26184 
L 306.394947 130.090107 
L 308.384252 146.984208 
L 310.373557 142.239072 
L 312.362862 154.841402 
L 314.352167 124.425205 
L 316.341471 148.736455 
L 318.330776 144.290669 
L 320.320081 150.597707 
L 322.309386 146.043213 
L 324.298691 138.11307 
L 326.287995 155.068435 
L 328.2773 151.005438 
L 330.266605 158.630607 
L 332.25591 143.816879 
L 334.245215 151.69183 
L 336.23452 161.858417 
L 338.223824 126.491844 
L 340.213129 139.97332 
L 342.202434 130.875238 
L 344.191739 134.739824 
L 346.181044 143.759667 
L 348.170348 154.680525 
L 350.159653 128.912613 
L 352.148958 145.43766 
L 354.138263 146.079987 
L 356.127568 150.214836 
L 358.116872 147.673768 
L 360.106177 163.710573 
L 362.095482 138.869507 
L 364.084787 153.316817 
L 364.084787 153.316817 
" clip-path="url(#p5e9091df46)" style="fill: none; stroke: #dd8452; stroke-width: 2; stroke-linecap: round"/>
   </g>
   <g id="patch_4">
    <path d="M 44.502969 243.695625 
L 44.502969 21.935625 
" style="fill: none; stroke: #cccccc; stroke-width: 1.25; stroke-linejoin: miter; stroke-linecap: square"/>
   </g>
   <g id="patch_5">
    <path d="M 379.302969 243.695625 
L 379.302969 21.935625 
" style="fill: none; stroke: #cccccc; stroke-width: 1.25; stroke-linejoin: miter; stroke-linecap: square"/>
   </g>
   <g id="patch_6">
    <path d="M 44.502969 243.695625 
L 379.302969 243.695625 
" style="fill: none; stroke: #cccccc; stroke-width: 1.25; stroke-linejoin: miter; stroke-linecap: square"/>
   </g>
   <g id="patch_7">
    <path d="M 44.502969 21.935625 
L 379.302969 21.935625 
" style="fill: none; stroke: #cccccc; stroke-width: 1.25; stroke-linejoin: miter; stroke-linecap: square"/>
   </g>
   <g id="text_16">
    <!-- Grand-average ERP (channel index 0) -->
    <g style="fill: #262626" transform="translate(109.959219 15.935625) scale(0.12 -0.12)">
     <defs>
      <path id="ArialMT-47" d="M 2638 1797 
L 2638 2334 
L 4578 2338 
L 4578 638 
Q 4131 281 3656 101 
Q 3181 -78 2681 -78 
Q 2006 -78 1454 211 
Q 903 500 622 1047 
Q 341 1594 341 2269 
Q 341 2938 620 3517 
Q 900 4097 1425 4378 
Q 1950 4659 2634 4659 
Q 3131 4659 3532 4498 
Q 3934 4338 4162 4050 
Q 4391 3763 4509 3300 
L 3963 3150 
Q 3859 3500 3706 3700 
Q 3553 3900 3268 4020 
Q 2984 4141 2638 4141 
Q 2222 4141 1919 4014 
Q 1616 3888 1430 3681 
Q 1244 3475 1141 3228 
Q 966 2803 966 2306 
Q 966 1694 1177 1281 
Q 1388 869 1791 669 
Q 2194 469 2647 469 
Q 3041 469 3416 620 
Q 3791 772 3984 944 
L 3984 1797 
L 2638 1797 
z
" transform="scale(0.015625)"/>
      <path id="ArialMT-72" d="M 416 0 
L 416 3319 
L 922 3319 
L 922 2816 
Q 1116 3169 1280 3281 
Q 1444 3394 1641 3394 
Q 1925 3394 2219 3213 
L 2025 2691 
Q 1819 2813 1613 2813 
Q 1428 2813 1281 2702 
Q 1134 2591 1072 2394 
Q 978 2094 978 1738 
L 978 0 
L 416 0 
z
" transform="scale(0.015625)"/>
      <path id="ArialMT-61" d="M 2588 409 
Q 2275 144 1986 34 
Q 1697 -75 1366 -75 
Q 819 -75 525 192 
Q 231 459 231 875 
Q 231 1119 342 1320 
Q 453 1522 633 1644 
Q 813 1766 1038 1828 
Q 1203 1872 1538 1913 
Q 2219 1994 2541 2106 
Q 2544 2222 2544 2253 
Q 2544 2597 2384 2738 
Q 2169 2928 1744 2928 
Q 1347 2928 1158 2789 
Q 969 2650 878 2297 
L 328 2372 
Q 403 2725 575 2942 
Q 747 3159 1072 3276 
Q 1397 3394 1825 3394 
Q 2250 3394 2515 3294 
Q 2781 3194 2906 3042 
Q 3031 2891 3081 2659 
Q 3109 2516 3109 2141 
L 3109 1391 
Q 3109 606 3145 398 
Q 3181 191 3288 0 
L 2700 0 
Q 2613 175 2588 409 
z
M 2541 1666 
Q 2234 1541 1622 1453 
Q 1275 1403 1131 1340 
Q 988 1278 909 1158 
Q 831 1038 831 891 
Q 831 666 1001 516 
Q 1172 366 1500 366 
Q 1825 366 2078 508 
Q 2331 650 2450 897 
Q 2541 1088 2541 1459 
L 2541 1666 
z
" transform="scale(0.015625)"/>
      <path id="ArialMT-6e" d="M 422 0 
L 422 3319 
L 928 3319 
L 928 2847 
Q 1294 3394 1984 3394 
Q 2284 3394 2536 3286 
Q 2788 3178 2913 3003 
Q 3038 2828 3088 2588 
Q 3119 2431 3119 2041 
L 3119 0 
L 2556 0 
L 2556 2019 
Q 2556 2363 2490 2533 
Q 2425 2703 2258 2804 
Q 2091 2906 1866 2906 
Q 1506 2906 1245 2678 
Q 984 2450 984 1813 
L 984 0 
L 422 0 
z
" transform="scale(0.015625)"/>
      <path id="ArialMT-2d" d="M 203 1375 
L 203 1941 
L 1931 1941 
L 1931 1375 
L 203 1375 
z
" transform="scale(0.015625)"/>
      <path id="ArialMT-76" d="M 1344 0 
L 81 3319 
L 675 3319 
L 1388 1331 
Q 1503 1009 1600 663 
Q 1675 925 1809 1294 
L 2547 3319 
L 3125 3319 
L 1869 0 
L 1344 0 
z
" transform="scale(0.015625)"/>
      <path id="ArialMT-67" d="M 319 -275 
L 866 -356 
Q 900 -609 1056 -725 
Q 1266 -881 1628 -881 
Q 2019 -881 2231 -725 
Q 2444 -569 2519 -288 
Q 2563 -116 2559 434 
Q 2191 0 1641 0 
Q 956 0 581 494 
Q 206 988 206 1678 
Q 206 2153 378 2554 
Q 550 2956 876 3175 
Q 1203 3394 1644 3394 
Q 2231 3394 2613 2919 
L 2613 3319 
L 3131 3319 
L 3131 450 
Q 3131 -325 2973 -648 
Q 2816 -972 2473 -1159 
Q 2131 -1347 1631 -1347 
Q 1038 -1347 672 -1080 
Q 306 -813 319 -275 
z
M 784 1719 
Q 784 1066 1043 766 
Q 1303 466 1694 466 
Q 2081 466 2343 764 
Q 2606 1063 2606 1700 
Q 2606 2309 2336 2618 
Q 2066 2928 1684 2928 
Q 1309 2928 1046 2623 
Q 784 2319 784 1719 
z
" transform="scale(0.015625)"/>
      <path id="ArialMT-45" d="M 506 0 
L 506 4581 
L 3819 4581 
L 3819 4041 
L 1113 4041 
L 1113 2638 
L 3647 2638 
L 3647 2100 
L 1113 2100 
L 1113 541 
L 3925 541 
L 3925 0 
L 506 0 
z
" transform="scale(0.015625)"/>
      <path id="ArialMT-52" d="M 503 0 
L 503 4581 
L 2534 4581 
Q 3147 4581 3465 4457 
Q 3784 4334 3975 4021 
Q 4166 3709 4166 3331 
Q 4166 2844 3850 2509 
Q 3534 2175 2875 2084 
Q 3116 1969 3241 1856 
Q 3506 1613 3744 1247 
L 4541 0 
L 3778 0 
L 3172 953 
Q 2906 1366 2734 1584 
Q 2563 1803 2427 1890 
Q 2291 1978 2150 2013 
Q 2047 2034 1813 2034 
L 1109 2034 
L 1109 0 
L 503 0 
z
M 1109 2559 
L 2413 2559 
Q 2828 2559 3062 2645 
Q 3297 2731 3419 2920 
Q 3541 3109 3541 3331 
Q 3541 3656 3305 3865 
Q 3069 4075 2559 4075 
L 1109 4075 
L 1109 2559 
z
" transform="scale(0.015625)"/>
      <path id="ArialMT-50" d="M 494 0 
L 494 4581 
L 2222 4581 
Q 2678 4581 2919 4538 
Q 3256 4481 3484 4323 
Q 3713 4166 3852 3881 
Q 3991 3597 3991 3256 
Q 3991 2672 3619 2267 
Q 3247 1863 2275 1863 
L 1100 1863 
L 1100 0 
L 494 0 
z
M 1100 2403 
L 2284 2403 
Q 2872 2403 3119 2622 
Q 3366 2841 3366 3238 
Q 3366 3525 3220 3729 
Q 3075 3934 2838 4000 
Q 2684 4041 2272 4041 
L 1100 4041 
L 1100 2403 
z
" transform="scale(0.015625)"/>
      <path id="ArialMT-63" d="M 2588 1216 
L 3141 1144 
Q 3050 572 2676 248 
Q 2303 -75 1759 -75 
Q 1078 -75 664 370 
Q 250 816 250 1647 
Q 250 2184 428 2587 
Q 606 2991 970 3192 
Q 1334 3394 1763 3394 
Q 2303 3394 2647 3120 
Q 2991 2847 3088 2344 
L 2541 2259 
Q 2463 2594 2264 2762 
Q 2066 2931 1784 2931 
Q 1359 2931 1093 2626 
Q 828 2322 828 1663 
Q 828 994 1084 691 
Q 1341 388 1753 388 
Q 2084 388 2306 591 
Q 2528 794 2588 1216 
z
" transform="scale(0.015625)"/>
      <path id="ArialMT-68" d="M 422 0 
L 422 4581 
L 984 4581 
L 984 2938 
Q 1378 3394 1978 3394 
Q 2347 3394 2619 3248 
Q 2891 3103 3008 2847 
Q 3125 2591 3125 2103 
L 3125 0 
L 2563 0 
L 2563 2103 
Q 2563 2525 2380 2717 
Q 2197 2909 1863 2909 
Q 1613 2909 1392 2779 
Q 1172 2650 1078 2428 
Q 984 2206 984 1816 
L 984 0 
L 422 0 
z
" transform="scale(0.015625)"/>
      <path id="ArialMT-78" d="M 47 0 
L 1259 1725 
L 138 3319 
L 841 3319 
L 1350 2541 
Q 1494 2319 1581 2169 
Q 1719 2375 1834 2534 
L 2394 3319 
L 3066 3319 
L 1919 1756 
L 3153 0 
L 2463 0 
L 1781 1031 
L 1600 1309 
L 728 0 
L 47 0 
z
" transform="scale(0.015625)"/>
     </defs>
     <use xlink:href="#ArialMT-47"/>
     <use xlink:href="#ArialMT-72" transform="translate(77.783203 0)"/>
     <use xlink:href="#ArialMT-61" transform="translate(111.083984 0)"/>
     <use xlink:href="#ArialMT-6e" transform="translate(166.699219 0)"/>
     <use xlink:href="#ArialMT-64" transform="translate(222.314453 0)"/>
     <use xlink:href="#ArialMT-2d" transform="translate(277.929688 0)"/>
     <use xlink:href="#ArialMT-61" transform="translate(311.230469 0)"/>
     <use xlink:href="#ArialMT-76" transform="translate(366.845703 0)"/>
     <use xlink:href="#ArialMT-65" transform="translate(416.845703 0)"/>
     <use xlink:href="#ArialMT-72" transform="translate(472.460938 0)"/>
     <use xlink:href="#ArialMT-61" transform="translate(505.761719 0)"/>
     <use xlink:href="#ArialMT-67" transform="translate(561.376953 0)"/>
     <use xlink:href="#ArialMT-65" transform="translate(616.992188 0)"/>
     <use xlink:href="#ArialMT-20" transform="translate(672.607422 0)"/>
     <use xlink:href="#ArialMT-45" transform="translate(700.390625 0)"/>
     <use xlink:href="#ArialMT-52" transform="translate(767.089844 0)"/>
     <use xlink:href="#ArialMT-50" transform="translate(839.306641 0)"/>
     <use xlink:href="#ArialMT-20" transform="translate(904.255859 0)"/>
     <use xlink:href="#ArialMT-28" transform="translate(932.039062 0)"/>
     <use xlink:href="#ArialMT-63" transform="translate(965.339844 0)"/>
     <use xlink:href="#ArialMT-68" transform="translate(1015.339844 0)"/>
     <use xlink:href="#ArialMT-61" transform="translate(1070.955078 0)"/>
     <use xlink:href="#ArialMT-6e" transform="translate(1126.570312 0)"/>
     <use xlink:href="#ArialMT-6e" transform="translate(1182.185547 0)"/>
     <use xlink:href="#ArialMT-65" transform="translate(1237.800781 0)"/>
     <use xlink:href="#ArialMT-6c" transform="translate(1293.416016 0)"/>
     <use xlink:href="#ArialMT-20" transform="translate(1315.632812 0)"/>
     <use xlink:href="#ArialMT-69" transform="translate(1343.416016 0)"/>
     <use xlink:href="#ArialMT-6e" transform="translate(1365.632812 0)"/>
     <use xlink:href="#ArialMT-64" transform="translate(1421.248047 0)"/>
     <use xlink:href="#ArialMT-65" transform="translate(1476.863281 0)"/>
     <use xlink:href="#ArialMT-78" transform="translate(1532.478516 0)"/>
     <use xlink:href="#ArialMT-20" transform="translate(1582.478516 0)"/>
     <use xlink:href="#ArialMT-30" transform="translate(1610.261719 0)"/>
     <use xlink:href="#ArialMT-29" transform="translate(1665.876953 0)"/>
    </g>
   </g>
   <g id="legend_1">
    <g id="patch_8">
     <path d="M 52.202969 62.113125 
L 135.706719 62.113125 
Q 137.906719 62.113125 137.906719 59.913125 
L 137.906719 29.635625 
Q 137.906719 27.435625 135.706719 27.435625 
L 52.202969 27.435625 
Q 50.002969 27.435625 50.002969 29.635625 
L 50.002969 59.913125 
Q 50.002969 62.113125 52.202969 62.113125 
z
" style="fill: #ffffff; opacity: 0.8; stroke: #cccccc; stroke-linejoin: miter"/>
    </g>
    <g id="line2d_16">
     <path d="M 54.402969 35.859219 
L 65.402969 35.859219 
L 76.402969 35.859219 
" style="fill: none; stroke: #4c72b0; stroke-width: 2; stroke-linecap: round"/>
    </g>
    <g id="text_17">
     <!-- Target -->
     <g style="fill: #262626" transform="translate(85.202969 39.709219) scale(0.11 -0.11)">
      <use xlink:href="#ArialMT-54"/>
      <use xlink:href="#ArialMT-61" transform="translate(49.958984 0)"/>
      <use xlink:href="#ArialMT-72" transform="translate(105.574219 0)"/>
      <use xlink:href="#ArialMT-67" transform="translate(138.875 0)"/>
      <use xlink:href="#ArialMT-65" transform="translate(194.490234 0)"/>
      <use xlink:href="#ArialMT-74" transform="translate(250.105469 0)"/>
     </g>
    </g>
    <g id="line2d_17">
     <path d="M 54.402969 51.547969 
L 65.402969 51.547969 
L 76.402969 51.547969 
" style="fill: none; stroke: #dd8452; stroke-width: 2; stroke-linecap: round"/>
    </g>
    <g id="text_18">
     <!-- Nontarget -->
     <g style="fill: #262626" transform="translate(85.202969 55.397969) scale(0.11 -0.11)">
      <defs>
       <path id="ArialMT-4e" d="M 488 0 
L 488 4581 
L 1109 4581 
L 3516 984 
L 3516 4581 
L 4097 4581 
L 4097 0 
L 3475 0 
L 1069 3600 
L 1069 0 
L 488 0 
z
" transform="scale(0.015625)"/>
       <path id="ArialMT-6f" d="M 213 1659 
Q 213 2581 725 3025 
Q 1153 3394 1769 3394 
Q 2453 3394 2887 2945 
Q 3322 2497 3322 1706 
Q 3322 1066 3130 698 
Q 2938 331 2570 128 
Q 2203 -75 1769 -75 
Q 1072 -75 642 372 
Q 213 819 213 1659 
z
M 791 1659 
Q 791 1022 1069 705 
Q 1347 388 1769 388 
Q 2188 388 2466 706 
Q 2744 1025 2744 1678 
Q 2744 2294 2464 2611 
Q 2184 2928 1769 2928 
Q 1347 2928 1069 2612 
Q 791 2297 791 1659 
z
" transform="scale(0.015625)"/>
      </defs>
      <use xlink:href="#ArialMT-4e"/>
      <use xlink:href="#ArialMT-6f" transform="translate(72.216797 0)"/>
      <use xlink:href="#ArialMT-6e" transform="translate(127.832031 0)"/>
      <use xlink:href="#ArialMT-74" transform="translate(183.447266 0)"/>
      <use xlink:href="#ArialMT-61" transform="translate(211.230469 0)"/>
      <use xlink:href="#ArialMT-72" transform="translate(266.845703 0)"/>
      <use xlink:href="#ArialMT-67" transform="translate(300.146484 0)"/>
      <use xlink:href="#ArialMT-65" transform="translate(355.761719 0)"/>
      <use xlink:href="#ArialMT-74" transform="translate(411.376953 0)"/>
     </g>
    </g>
   </g>
  </g>
 </g>
 <defs>
  <clipPath id="p5e9091df46">
   <rect x="44.502969" y="21.935625" width="334.8" height="221.76"/>
  </clipPath>
 </defs>
</svg>
