<?xml version="1.0" encoding="utf-8" standalone="no"?>
<!DOCTYPE svg PUBLIC "-//W3C//DTD SVG 1.1//EN"
  "http://www.w3.org/Graphics/SVG/1.1/DTD/svg11.dtd">
<svg xmlns:xlink="http://www.w3.org/1999/xlink" width="567.498437pt" height="350.849844pt" viewBox="0 0 567.498437 350.849844" xmlns="http://www.w3.org/2000/svg" version="1.1">
 <metadata>
  <rdf:RDF xmlns:dc="http://purl.org/dc/elements/1.1/" xmlns:cc="http://creativecommons.org/ns#" xmlns:rdf="http://www.w3.org/1999/02/22-rdf-syntax-ns#">
   <cc:Work>
    <dc:type rdf:resource="http://purl.org/dc/dcmitype/StillImage"/>
    <dc:date>2026-01-04T21:12:05.698930</dc:date>
    <dc:format>image/svg+xml</dc:format>
    <dc:creator>
     <cc:Agent>
      <dc:title>Matplotlib v3.10.3, https://matplotlib.org/</dc:title>
     </cc:Agent>
    </dc:creator>
   </cc:Work>
  </rdf:RDF>
 </metadata>
 <defs>
  <style type="text/css">*{stroke-linejoin: round; stroke-linecap: butt}</style>
 </defs>
 <g id="figure_1">
  <g id="patch_1">
   <path d="M 0 350.849844 
L 567.498437 350.849844 
L 567.498437 0 
L 0 0 
z
" style="fill: #ffffff"/>
  </g>
  <g id="axes_1">
   <g id="patch_2">
    <path d="M 50.918438 311.357969 
L 560.298437 311.357969 
L 560.298437 23.077969 
L 50.918438 23.077969 
z
" style="fill: #ffffff"/>
   </g>
   <g id="patch_3">
    <path d="M 305.608437 311.357969 
L 459.966013 311.357969 
L 459.966013 23.077969 
L 305.608437 23.077969 
z
" clip-path="url(#pa86e70246f)" style="fill: #808080; opacity: 0.1; stroke: #808080; stroke-linejoin: miter"/>
   </g>
   <g id="matplotlib.axis_1">
    <g id="xtick_1">
     <g id="line2d_1">
      <path d="M 74.072074 311.357969 
L 74.072074 23.077969 
" clip-path="url(#pa86e70246f)" style="fill: none; stroke: #b0b0b0; stroke-opacity: 0.3; stroke-width: 0.8; stroke-linecap: square"/>
     </g>
     <g id="line2d_2">
      <defs>
       <path id="mf91193f7f6" d="M 0 0 
L 0 3.5 
" style="stroke: #000000; stroke-width: 0.8"/>
      </defs>
      <g>
       <use xlink:href="#mf91193f7f6" x="74.072074" y="311.357969" style="stroke: #000000; stroke-width: 0.8"/>
      </g>
     </g>
     <g id="text_1">
      <!-- 0 -->
      <g transform="translate(70.890824 325.956406) scale(0.1 -0.1)">
       <defs>
        <path id="DejaVuSans-30" d="M 2034 4250 
Q 1547 4250 1301 3770 
Q 1056 3291 1056 2328 
Q 1056 1369 1301 889 
Q 1547 409 2034 409 
Q 2525 409 2770 889 
Q 3016 1369 3016 2328 
Q 3016 3291 2770 3770 
Q 2525 4250 2034 4250 
z
M 2034 4750 
Q 2819 4750 3233 4129 
Q 3647 3509 3647 2328 
Q 3647 1150 3233 529 
Q 2819 -91 2034 -91 
Q 1250 -91 836 529 
Q 422 1150 422 2328 
Q 422 3509 836 4129 
Q 1250 4750 2034 4750 
z
" transform="scale(0.015625)"/>
       </defs>
       <use xlink:href="#DejaVuSans-30"/>
      </g>
     </g>
    </g>
    <g id="xtick_2">
     <g id="line2d_3">
      <path d="M 151.250862 311.357969 
L 151.250862 23.077969 
" clip-path="url(#pa86e70246f)" style="fill: none; stroke: #b0b0b0; stroke-opacity: 0.3; stroke-width: 0.8; stroke-linecap: square"/>
     </g>
     <g id="line2d_4">
      <g>
       <use xlink:href="#mf91193f7f6" x="151.250862" y="311.357969" style="stroke: #000000; stroke-width: 0.8"/>
      </g>
     </g>
     <g id="text_2">
      <!-- 100 -->
      <g transform="translate(141.707112 325.956406) scale(0.1 -0.1)">
       <defs>
        <path id="DejaVuSans-31" d="M 794 531 
L 1825 531 
L 1825 4091 
L 703 3866 
L 703 4441 
L 1819 4666 
L 2450 4666 
L 2450 531 
L 3481 531 
L 3481 0 
L 794 0 
L 794 531 
z
" transform="scale(0.015625)"/>
       </defs>
       <use xlink:href="#DejaVuSans-31"/>
       <use xlink:href="#DejaVuSans-30" transform="translate(63.623047 0)"/>
       <use xlink:href="#DejaVuSans-30" transform="translate(127.246094 0)"/>
      </g>
     </g>
    </g>
    <g id="xtick_3">
     <g id="line2d_5">
      <path d="M 228.42965 311.357969 
L 228.42965 23.077969 
" clip-path="url(#pa86e70246f)" style="fill: none; stroke: #b0b0b0; stroke-opacity: 0.3; stroke-width: 0.8; stroke-linecap: square"/>
     </g>
     <g id="line2d_6">
      <g>
       <use xlink:href="#mf91193f7f6" x="228.42965" y="311.357969" style="stroke: #000000; stroke-width: 0.8"/>
      </g>
     </g>
     <g id="text_3">
      <!-- 200 -->
      <g transform="translate(218.8859 325.956406) scale(0.1 -0.1)">
       <defs>
        <path id="DejaVuSans-32" d="M 1228 531 
L 3431 531 
L 3431 0 
L 469 0 
L 469 531 
Q 828 903 1448 1529 
Q 2069 2156 2228 2338 
Q 2531 2678 2651 2914 
Q 2772 3150 2772 3378 
Q 2772 3750 2511 3984 
Q 2250 4219 1831 4219 
Q 1534 4219 1204 4116 
Q 875 4013 500 3803 
L 500 4441 
Q 881 4594 1212 4672 
Q 1544 4750 1819 4750 
Q 2544 4750 2975 4387 
Q 3406 4025 3406 3419 
Q 3406 3131 3298 2873 
Q 3191 2616 2906 2266 
Q 2828 2175 2409 1742 
Q 1991 1309 1228 531 
z
" transform="scale(0.015625)"/>
       </defs>
       <use xlink:href="#DejaVuSans-32"/>
       <use xlink:href="#DejaVuSans-30" transform="translate(63.623047 0)"/>
       <use xlink:href="#DejaVuSans-30" transform="translate(127.246094 0)"/>
      </g>
     </g>
    </g>
    <g id="xtick_4">
     <g id="line2d_7">
      <path d="M 305.608437 311.357969 
L 305.608437 23.077969 
" clip-path="url(#pa86e70246f)" style="fill: none; stroke: #b0b0b0; stroke-opacity: 0.3; stroke-width: 0.8; stroke-linecap: square"/>
     </g>
     <g id="line2d_8">
      <g>
       <use xlink:href="#mf91193f7f6" x="305.608437" y="311.357969" style="stroke: #000000; stroke-width: 0.8"/>
      </g>
     </g>
     <g id="text_4">
      <!-- 300 -->
      <g transform="translate(296.064687 325.956406) scale(0.1 -0.1)">
       <defs>
        <path id="DejaVuSans-33" d="M 2597 2516 
Q 3050 2419 3304 2112 
Q 3559 1806 3559 1356 
Q 3559 666 3084 287 
Q 2609 -91 1734 -91 
Q 1441 -91 1130 -33 
Q 819 25 488 141 
L 488 750 
Q 750 597 1062 519 
Q 1375 441 1716 441 
Q 2309 441 2620 675 
Q 2931 909 2931 1356 
Q 2931 1769 2642 2001 
Q 2353 2234 1838 2234 
L 1294 2234 
L 1294 2753 
L 1863 2753 
Q 2328 2753 2575 2939 
Q 2822 3125 2822 3475 
Q 2822 3834 2567 4026 
Q 2313 4219 1838 4219 
Q 1578 4219 1281 4162 
Q 984 4106 628 3988 
L 628 4550 
Q 988 4650 1302 4700 
Q 1616 4750 1894 4750 
Q 2613 4750 3031 4423 
Q 3450 4097 3450 3541 
Q 3450 3153 3228 2886 
Q 3006 2619 2597 2516 
z
" transform="scale(0.015625)"/>
       </defs>
       <use xlink:href="#DejaVuSans-33"/>
       <use xlink:href="#DejaVuSans-30" transform="translate(63.623047 0)"/>
       <use xlink:href="#DejaVuSans-30" transform="translate(127.246094 0)"/>
      </g>
     </g>
    </g>
    <g id="xtick_5">
     <g id="line2d_9">
      <path d="M 382.787225 311.357969 
L 382.787225 23.077969 
" clip-path="url(#pa86e70246f)" style="fill: none; stroke: #b0b0b0; stroke-opacity: 0.3; stroke-width: 0.8; stroke-linecap: square"/>
     </g>
     <g id="line2d_10">
      <g>
       <use xlink:href="#mf91193f7f6" x="382.787225" y="311.357969" style="stroke: #000000; stroke-width: 0.8"/>
      </g>
     </g>
     <g id="text_5">
      <!-- 400 -->
      <g transform="translate(373.243475 325.956406) scale(0.1 -0.1)">
       <defs>
        <path id="DejaVuSans-34" d="M 2419 4116 
L 825 1625 
L 2419 1625 
L 2419 4116 
z
M 2253 4666 
L 3047 4666 
L 3047 1625 
L 3713 1625 
L 3713 1100 
L 3047 1100 
L 3047 0 
L 2419 0 
L 2419 1100 
L 313 1100 
L 313 1709 
L 2253 4666 
z
" transform="scale(0.015625)"/>
       </defs>
       <use xlink:href="#DejaVuSans-34"/>
       <use xlink:href="#DejaVuSans-30" transform="translate(63.623047 0)"/>
       <use xlink:href="#DejaVuSans-30" transform="translate(127.246094 0)"/>
      </g>
     </g>
    </g>
    <g id="xtick_6">
     <g id="line2d_11">
      <path d="M 459.966013 311.357969 
L 459.966013 23.077969 
" clip-path="url(#pa86e70246f)" style="fill: none; stroke: #b0b0b0; stroke-opacity: 0.3; stroke-width: 0.8; stroke-linecap: square"/>
     </g>
     <g id="line2d_12">
      <g>
       <use xlink:href="#mf91193f7f6" x="459.966013" y="311.357969" style="stroke: #000000; stroke-width: 0.8"/>
      </g>
     </g>
     <g id="text_6">
      <!-- 500 -->
      <g transform="translate(450.422263 325.956406) scale(0.1 -0.1)">
       <defs>
        <path id="DejaVuSans-35" d="M 691 4666 
L 3169 4666 
L 3169 4134 
L 1269 4134 
L 1269 2991 
Q 1406 3038 1543 3061 
Q 1681 3084 1819 3084 
Q 2600 3084 3056 2656 
Q 3513 2228 3513 1497 
Q 3513 744 3044 326 
Q 2575 -91 1722 -91 
Q 1428 -91 1123 -41 
Q 819 9 494 109 
L 494 744 
Q 775 591 1075 516 
Q 1375 441 1709 441 
Q 2250 441 2565 725 
Q 2881 1009 2881 1497 
Q 2881 1984 2565 2268 
Q 2250 2553 1709 2553 
Q 1456 2553 1204 2497 
Q 953 2441 691 2322 
L 691 4666 
z
" transform="scale(0.015625)"/>
       </defs>
       <use xlink:href="#DejaVuSans-35"/>
       <use xlink:href="#DejaVuSans-30" transform="translate(63.623047 0)"/>
       <use xlink:href="#DejaVuSans-30" transform="translate(127.246094 0)"/>
      </g>
     </g>
    </g>
    <g id="xtick_7">
     <g id="line2d_13">
      <path d="M 537.144801 311.357969 
L 537.144801 23.077969 
" clip-path="url(#pa86e70246f)" style="fill: none; stroke: #b0b0b0; stroke-opacity: 0.3; stroke-width: 0.8; stroke-linecap: square"/>
     </g>
     <g id="line2d_14">
      <g>
       <use xlink:href="#mf91193f7f6" x="537.144801" y="311.357969" style="stroke: #000000; stroke-width: 0.8"/>
      </g>
     </g>
     <g id="text_7">
      <!-- 600 -->
      <g transform="translate(527.601051 325.956406) scale(0.1 -0.1)">
       <defs>
        <path id="DejaVuSans-36" d="M 2113 2584 
Q 1688 2584 1439 2293 
Q 1191 2003 1191 1497 
Q 1191 994 1439 701 
Q 1688 409 2113 409 
Q 2538 409 2786 701 
Q 3034 994 3034 1497 
Q 3034 2003 2786 2293 
Q 2538 2584 2113 2584 
z
M 3366 4563 
L 3366 3988 
Q 3128 4100 2886 4159 
Q 2644 4219 2406 4219 
Q 1781 4219 1451 3797 
Q 1122 3375 1075 2522 
Q 1259 2794 1537 2939 
Q 1816 3084 2150 3084 
Q 2853 3084 3261 2657 
Q 3669 2231 3669 1497 
Q 3669 778 3244 343 
Q 2819 -91 2113 -91 
Q 1303 -91 875 529 
Q 447 1150 447 2328 
Q 447 3434 972 4092 
Q 1497 4750 2381 4750 
Q 2619 4750 2861 4703 
Q 3103 4656 3366 4563 
z
" transform="scale(0.015625)"/>
       </defs>
       <use xlink:href="#DejaVuSans-36"/>
       <use xlink:href="#DejaVuSans-30" transform="translate(63.623047 0)"/>
       <use xlink:href="#DejaVuSans-30" transform="translate(127.246094 0)"/>
      </g>
     </g>
    </g>
    <g id="text_8">
     <!-- Time (ms) -->
     <g transform="translate(275.369375 341.154219) scale(0.12 -0.12)">
      <defs>
       <path id="DejaVuSans-54" d="M -19 4666 
L 3928 4666 
L 3928 4134 
L 2272 4134 
L 2272 0 
L 1638 0 
L 1638 4134 
L -19 4134 
L -19 4666 
z
" transform="scale(0.015625)"/>
       <path id="DejaVuSans-69" d="M 603 3500 
L 1178 3500 
L 1178 0 
L 603 0 
L 603 3500 
z
M 603 4863 
L 1178 4863 
L 1178 4134 
L 603 4134 
L 603 4863 
z
" transform="scale(0.015625)"/>
       <path id="DejaVuSans-6d" d="M 3328 2828 
Q 3544 3216 3844 3400 
Q 4144 3584 4550 3584 
Q 5097 3584 5394 3201 
Q 5691 2819 5691 2113 
L 5691 0 
L 5113 0 
L 5113 2094 
Q 5113 2597 4934 2840 
Q 4756 3084 4391 3084 
Q 3944 3084 3684 2787 
Q 3425 2491 3425 1978 
L 3425 0 
L 2847 0 
L 2847 2094 
Q 2847 2600 2669 2842 
Q 2491 3084 2119 3084 
Q 1678 3084 1418 2786 
Q 1159 2488 1159 1978 
L 1159 0 
L 581 0 
L 581 3500 
L 1159 3500 
L 1159 2956 
Q 1356 3278 1631 3431 
Q 1906 3584 2284 3584 
Q 2666 3584 2933 3390 
Q 3200 3197 3328 2828 
z
" transform="scale(0.015625)"/>
       <path id="DejaVuSans-65" d="M 3597 1894 
L 3597 1613 
L 953 1613 
Q 991 1019 1311 708 
Q 1631 397 2203 397 
Q 2534 397 2845 478 
Q 3156 559 3463 722 
L 3463 178 
Q 3153 47 2828 -22 
Q 2503 -91 2169 -91 
Q 1331 -91 842 396 
Q 353 884 353 1716 
Q 353 2575 817 3079 
Q 1281 3584 2069 3584 
Q 2775 3584 3186 3129 
Q 3597 2675 3597 1894 
z
M 3022 2063 
Q 3016 2534 2758 2815 
Q 2500 3097 2075 3097 
Q 1594 3097 1305 2825 
Q 1016 2553 972 2059 
L 3022 2063 
z
" transform="scale(0.015625)"/>
       <path id="DejaVuSans-20" transform="scale(0.015625)"/>
       <path id="DejaVuSans-28" d="M 1984 4856 
Q 1566 4138 1362 3434 
Q 1159 2731 1159 2009 
Q 1159 1288 1364 580 
Q 1569 -128 1984 -844 
L 1484 -844 
Q 1016 -109 783 600 
Q 550 1309 550 2009 
Q 550 2706 781 3412 
Q 1013 4119 1484 4856 
L 1984 4856 
z
" transform="scale(0.015625)"/>
       <path id="DejaVuSans-73" d="M 2834 3397 
L 2834 2853 
Q 2591 2978 2328 3040 
Q 2066 3103 1784 3103 
Q 1356 3103 1142 2972 
Q 928 2841 928 2578 
Q 928 2378 1081 2264 
Q 1234 2150 1697 2047 
L 1894 2003 
Q 2506 1872 2764 1633 
Q 3022 1394 3022 966 
Q 3022 478 2636 193 
Q 2250 -91 1575 -91 
Q 1294 -91 989 -36 
Q 684 19 347 128 
L 347 722 
Q 666 556 975 473 
Q 1284 391 1588 391 
Q 1994 391 2212 530 
Q 2431 669 2431 922 
Q 2431 1156 2273 1281 
Q 2116 1406 1581 1522 
L 1381 1569 
Q 847 1681 609 1914 
Q 372 2147 372 2553 
Q 372 3047 722 3315 
Q 1072 3584 1716 3584 
Q 2034 3584 2315 3537 
Q 2597 3491 2834 3397 
z
" transform="scale(0.015625)"/>
       <path id="DejaVuSans-29" d="M 513 4856 
L 1013 4856 
Q 1481 4119 1714 3412 
Q 1947 2706 1947 2009 
Q 1947 1309 1714 600 
Q 1481 -109 1013 -844 
L 513 -844 
Q 928 -128 1133 580 
Q 1338 1288 1338 2009 
Q 1338 2731 1133 3434 
Q 928 4138 513 4856 
z
" transform="scale(0.015625)"/>
      </defs>
      <use xlink:href="#DejaVuSans-54"/>
      <use xlink:href="#DejaVuSans-69" transform="translate(57.958984 0)"/>
      <use xlink:href="#DejaVuSans-6d" transform="translate(85.742188 0)"/>
      <use xlink:href="#DejaVuSans-65" transform="translate(183.154297 0)"/>
      <use xlink:href="#DejaVuSans-20" transform="translate(244.677734 0)"/>
      <use xlink:href="#DejaVuSans-28" transform="translate(276.464844 0)"/>
      <use xlink:href="#DejaVuSans-6d" transform="translate(315.478516 0)"/>
      <use xlink:href="#DejaVuSans-73" transform="translate(412.890625 0)"/>
      <use xlink:href="#DejaVuSans-29" transform="translate(464.990234 0)"/>
     </g>
    </g>
   </g>
   <g id="matplotlib.axis_2">
    <g id="ytick_1">
     <g id="line2d_15">
      <path d="M 50.918438 271.902822 
L 560.298437 271.902822 
" clip-path="url(#pa86e70246f)" style="fill: none; stroke: #b0b0b0; stroke-opacity: 0.3; stroke-width: 0.8; stroke-linecap: square"/>
     </g>
     <g id="line2d_16">
      <defs>
       <path id="mcc0cb97889" d="M 0 0 
L -3.5 0 
" style="stroke: #000000; stroke-width: 0.8"/>
      </defs>
      <g>
       <use xlink:href="#mcc0cb97889" x="50.918438" y="271.902822" style="stroke: #000000; stroke-width: 0.8"/>
      </g>
     </g>
     <g id="text_9">
      <!-- −10 -->
      <g transform="translate(22.81375 275.70204) scale(0.1 -0.1)">
       <defs>
        <path id="DejaVuSans-2212" d="M 678 2272 
L 4684 2272 
L 4684 1741 
L 678 1741 
L 678 2272 
z
" transform="scale(0.015625)"/>
       </defs>
       <use xlink:href="#DejaVuSans-2212"/>
       <use xlink:href="#DejaVuSans-31" transform="translate(83.789062 0)"/>
       <use xlink:href="#DejaVuSans-30" transform="translate(147.412109 0)"/>
      </g>
     </g>
    </g>
    <g id="ytick_2">
     <g id="line2d_17">
      <path d="M 50.918438 229.433104 
L 560.298437 229.433104 
" clip-path="url(#pa86e70246f)" style="fill: none; stroke: #b0b0b0; stroke-opacity: 0.3; stroke-width: 0.8; stroke-linecap: square"/>
     </g>
     <g id="line2d_18">
      <g>
       <use xlink:href="#mcc0cb97889" x="50.918438" y="229.433104" style="stroke: #000000; stroke-width: 0.8"/>
      </g>
     </g>
     <g id="text_10">
      <!-- −8 -->
      <g transform="translate(29.17625 233.232323) scale(0.1 -0.1)">
       <defs>
        <path id="DejaVuSans-38" d="M 2034 2216 
Q 1584 2216 1326 1975 
Q 1069 1734 1069 1313 
Q 1069 891 1326 650 
Q 1584 409 2034 409 
Q 2484 409 2743 651 
Q 3003 894 3003 1313 
Q 3003 1734 2745 1975 
Q 2488 2216 2034 2216 
z
M 1403 2484 
Q 997 2584 770 2862 
Q 544 3141 544 3541 
Q 544 4100 942 4425 
Q 1341 4750 2034 4750 
Q 2731 4750 3128 4425 
Q 3525 4100 3525 3541 
Q 3525 3141 3298 2862 
Q 3072 2584 2669 2484 
Q 3125 2378 3379 2068 
Q 3634 1759 3634 1313 
Q 3634 634 3220 271 
Q 2806 -91 2034 -91 
Q 1263 -91 848 271 
Q 434 634 434 1313 
Q 434 1759 690 2068 
Q 947 2378 1403 2484 
z
M 1172 3481 
Q 1172 3119 1398 2916 
Q 1625 2713 2034 2713 
Q 2441 2713 2670 2916 
Q 2900 3119 2900 3481 
Q 2900 3844 2670 4047 
Q 2441 4250 2034 4250 
Q 1625 4250 1398 4047 
Q 1172 3844 1172 3481 
z
" transform="scale(0.015625)"/>
       </defs>
       <use xlink:href="#DejaVuSans-2212"/>
       <use xlink:href="#DejaVuSans-38" transform="translate(83.789062 0)"/>
      </g>
     </g>
    </g>
    <g id="ytick_3">
     <g id="line2d_19">
      <path d="M 50.918438 186.963387 
L 560.298437 186.963387 
" clip-path="url(#pa86e70246f)" style="fill: none; stroke: #b0b0b0; stroke-opacity: 0.3; stroke-width: 0.8; stroke-linecap: square"/>
     </g>
     <g id="line2d_20">
      <g>
       <use xlink:href="#mcc0cb97889" x="50.918438" y="186.963387" style="stroke: #000000; stroke-width: 0.8"/>
      </g>
     </g>
     <g id="text_11">
      <!-- −6 -->
      <g transform="translate(29.17625 190.762606) scale(0.1 -0.1)">
       <use xlink:href="#DejaVuSans-2212"/>
       <use xlink:href="#DejaVuSans-36" transform="translate(83.789062 0)"/>
      </g>
     </g>
    </g>
    <g id="ytick_4">
     <g id="line2d_21">
      <path d="M 50.918438 144.49367 
L 560.298437 144.49367 
" clip-path="url(#pa86e70246f)" style="fill: none; stroke: #b0b0b0; stroke-opacity: 0.3; stroke-width: 0.8; stroke-linecap: square"/>
     </g>
     <g id="line2d_22">
      <g>
       <use xlink:href="#mcc0cb97889" x="50.918438" y="144.49367" style="stroke: #000000; stroke-width: 0.8"/>
      </g>
     </g>
     <g id="text_12">
      <!-- −4 -->
      <g transform="translate(29.17625 148.292889) scale(0.1 -0.1)">
       <use xlink:href="#DejaVuSans-2212"/>
       <use xlink:href="#DejaVuSans-34" transform="translate(83.789062 0)"/>
      </g>
     </g>
    </g>
    <g id="ytick_5">
     <g id="line2d_23">
      <path d="M 50.918438 102.023953 
L 560.298437 102.023953 
" clip-path="url(#pa86e70246f)" style="fill: none; stroke: #b0b0b0; stroke-opacity: 0.3; stroke-width: 0.8; stroke-linecap: square"/>
     </g>
     <g id="line2d_24">
      <g>
       <use xlink:href="#mcc0cb97889" x="50.918438" y="102.023953" style="stroke: #000000; stroke-width: 0.8"/>
      </g>
     </g>
     <g id="text_13">
      <!-- −2 -->
      <g transform="translate(29.17625 105.823171) scale(0.1 -0.1)">
       <use xlink:href="#DejaVuSans-2212"/>
       <use xlink:href="#DejaVuSans-32" transform="translate(83.789062 0)"/>
      </g>
     </g>
    </g>
    <g id="ytick_6">
     <g id="line2d_25">
      <path d="M 50.918438 59.554235 
L 560.298437 59.554235 
" clip-path="url(#pa86e70246f)" style="fill: none; stroke: #b0b0b0; stroke-opacity: 0.3; stroke-width: 0.8; stroke-linecap: square"/>
     </g>
     <g id="line2d_26">
      <g>
       <use xlink:href="#mcc0cb97889" x="50.918438" y="59.554235" style="stroke: #000000; stroke-width: 0.8"/>
      </g>
     </g>
     <g id="text_14">
      <!-- 0 -->
      <g transform="translate(37.555937 63.353454) scale(0.1 -0.1)">
       <use xlink:href="#DejaVuSans-30"/>
      </g>
     </g>
    </g>
    <g id="text_15">
     <!-- Amplitude (µV) -->
     <g transform="translate(16.318125 212.475781) rotate(-90) scale(0.12 -0.12)">
      <defs>
       <path id="DejaVuSans-41" d="M 2188 4044 
L 1331 1722 
L 3047 1722 
L 2188 4044 
z
M 1831 4666 
L 2547 4666 
L 4325 0 
L 3669 0 
L 3244 1197 
L 1141 1197 
L 716 0 
L 50 0 
L 1831 4666 
z
" transform="scale(0.015625)"/>
       <path id="DejaVuSans-70" d="M 1159 525 
L 1159 -1331 
L 581 -1331 
L 581 3500 
L 1159 3500 
L 1159 2969 
Q 1341 3281 1617 3432 
Q 1894 3584 2278 3584 
Q 2916 3584 3314 3078 
Q 3713 2572 3713 1747 
Q 3713 922 3314 415 
Q 2916 -91 2278 -91 
Q 1894 -91 1617 61 
Q 1341 213 1159 525 
z
M 3116 1747 
Q 3116 2381 2855 2742 
Q 2594 3103 2138 3103 
Q 1681 3103 1420 2742 
Q 1159 2381 1159 1747 
Q 1159 1113 1420 752 
Q 1681 391 2138 391 
Q 2594 391 2855 752 
Q 3116 1113 3116 1747 
z
" transform="scale(0.015625)"/>
       <path id="DejaVuSans-6c" d="M 603 4863 
L 1178 4863 
L 1178 0 
L 603 0 
L 603 4863 
z
" transform="scale(0.015625)"/>
       <path id="DejaVuSans-74" d="M 1172 4494 
L 1172 3500 
L 2356 3500 
L 2356 3053 
L 1172 3053 
L 1172 1153 
Q 1172 725 1289 603 
Q 1406 481 1766 481 
L 2356 481 
L 2356 0 
L 1766 0 
Q 1100 0 847 248 
Q 594 497 594 1153 
L 594 3053 
L 172 3053 
L 172 3500 
L 594 3500 
L 594 4494 
L 1172 4494 
z
" transform="scale(0.015625)"/>
       <path id="DejaVuSans-75" d="M 544 1381 
L 544 3500 
L 1119 3500 
L 1119 1403 
Q 1119 906 1312 657 
Q 1506 409 1894 409 
Q 2359 409 2629 706 
Q 2900 1003 2900 1516 
L 2900 3500 
L 3475 3500 
L 3475 0 
L 2900 0 
L 2900 538 
Q 2691 219 2414 64 
Q 2138 -91 1772 -91 
Q 1169 -91 856 284 
Q 544 659 544 1381 
z
M 1991 3584 
L 1991 3584 
z
" transform="scale(0.015625)"/>
       <path id="DejaVuSans-64" d="M 2906 2969 
L 2906 4863 
L 3481 4863 
L 3481 0 
L 2906 0 
L 2906 525 
Q 2725 213 2448 61 
Q 2172 -91 1784 -91 
Q 1150 -91 751 415 
Q 353 922 353 1747 
Q 353 2572 751 3078 
Q 1150 3584 1784 3584 
Q 2172 3584 2448 3432 
Q 2725 3281 2906 2969 
z
M 947 1747 
Q 947 1113 1208 752 
Q 1469 391 1925 391 
Q 2381 391 2643 752 
Q 2906 1113 2906 1747 
Q 2906 2381 2643 2742 
Q 2381 3103 1925 3103 
Q 1469 3103 1208 2742 
Q 947 2381 947 1747 
z
" transform="scale(0.015625)"/>
       <path id="DejaVuSans-b5" d="M 544 -1331 
L 544 3500 
L 1119 3500 
L 1119 1325 
Q 1119 872 1334 640 
Q 1550 409 1972 409 
Q 2434 409 2667 671 
Q 2900 934 2900 1459 
L 2900 3500 
L 3475 3500 
L 3475 806 
Q 3475 619 3529 530 
Q 3584 441 3700 441 
Q 3728 441 3778 458 
Q 3828 475 3916 513 
L 3916 50 
Q 3788 -22 3673 -56 
Q 3559 -91 3450 -91 
Q 3234 -91 3106 31 
Q 2978 153 2931 403 
Q 2775 156 2548 32 
Q 2322 -91 2016 -91 
Q 1697 -91 1473 31 
Q 1250 153 1119 397 
L 1119 -1331 
L 544 -1331 
z
" transform="scale(0.015625)"/>
       <path id="DejaVuSans-56" d="M 1831 0 
L 50 4666 
L 709 4666 
L 2188 738 
L 3669 4666 
L 4325 4666 
L 2547 0 
L 1831 0 
z
" transform="scale(0.015625)"/>
      </defs>
      <use xlink:href="#DejaVuSans-41"/>
      <use xlink:href="#DejaVuSans-6d" transform="translate(68.408203 0)"/>
      <use xlink:href="#DejaVuSans-70" transform="translate(165.820312 0)"/>
      <use xlink:href="#DejaVuSans-6c" transform="translate(229.296875 0)"/>
      <use xlink:href="#DejaVuSans-69" transform="translate(257.080078 0)"/>
      <use xlink:href="#DejaVuSans-74" transform="translate(284.863281 0)"/>
      <use xlink:href="#DejaVuSans-75" transform="translate(324.072266 0)"/>
      <use xlink:href="#DejaVuSans-64" transform="translate(387.451172 0)"/>
      <use xlink:href="#DejaVuSans-65" transform="translate(450.927734 0)"/>
      <use xlink:href="#DejaVuSans-20" transform="translate(512.451172 0)"/>
      <use xlink:href="#DejaVuSans-28" transform="translate(544.238281 0)"/>
      <use xlink:href="#DejaVuSans-b5" transform="translate(583.251953 0)"/>
      <use xlink:href="#DejaVuSans-56" transform="translate(646.875 0)"/>
      <use xlink:href="#DejaVuSans-29" transform="translate(715.283203 0)"/>
     </g>
    </g>
   </g>
   <g id="line2d_27">
    <path d="M 74.072074 86.517613 
L 75.580454 83.883225 
L 80.859785 73.772233 
L 82.368165 71.601586 
L 83.876545 69.956186 
L 85.384926 68.806639 
L 86.893306 68.053412 
L 89.155876 67.340819 
L 91.418446 66.645627 
L 92.926827 65.985709 
L 94.435207 65.10041 
L 96.697777 63.383507 
L 100.468728 60.251842 
L 101.977108 59.267759 
L 103.485488 58.601853 
L 104.993868 58.310499 
L 106.502249 58.393496 
L 108.010629 58.802604 
L 110.273199 59.80713 
L 113.28996 61.188552 
L 114.79834 61.627019 
L 116.30672 61.791793 
L 117.8151 61.657476 
L 119.32348 61.243219 
L 120.831861 60.611908 
L 124.602811 58.634914 
L 127.619572 57.20131 
L 132.144712 55.277126 
L 133.653093 54.409113 
L 135.161473 53.28096 
L 136.669853 51.835962 
L 138.178233 50.057616 
L 140.440804 46.859584 
L 144.965944 40.072331 
L 146.474324 38.292577 
L 147.982705 37.005722 
L 148.736895 36.577511 
L 149.491085 36.302355 
L 150.245275 36.181605 
L 150.999465 36.213235 
L 151.753655 36.392079 
L 152.507845 36.70885 
L 154.016225 37.703038 
L 155.524606 39.06441 
L 157.787176 41.491064 
L 165.329077 50.055952 
L 166.837457 52.279471 
L 168.345838 55.070385 
L 169.854218 58.625064 
L 171.362598 63.102396 
L 172.870978 68.585489 
L 174.379358 75.061832 
L 175.887739 82.421079 
L 178.150309 94.642067 
L 181.92126 115.570113 
L 183.42964 123.159522 
L 184.93802 129.876118 
L 186.4464 135.544022 
L 187.95478 140.093018 
L 189.463161 143.566549 
L 190.971541 146.096616 
L 192.479921 147.880703 
L 193.988301 149.148776 
L 196.250872 150.596828 
L 198.513442 152.037608 
L 200.776012 153.743642 
L 203.792773 156.162853 
L 205.301153 157.11797 
L 206.055343 157.453847 
L 206.809533 157.66615 
L 207.563723 157.735552 
L 208.317913 157.645787 
L 209.072103 157.384772 
L 209.826294 156.944083 
L 210.580484 156.319625 
L 211.334674 155.512431 
L 212.843054 153.379985 
L 214.351434 150.650692 
L 216.614005 145.808111 
L 220.384955 137.510827 
L 221.893335 134.690353 
L 223.401716 132.352754 
L 224.910096 130.545709 
L 226.418476 129.248248 
L 227.926856 128.383967 
L 229.435236 127.836021 
L 235.468757 126.142972 
L 236.977138 125.378278 
L 239.239708 123.892918 
L 245.273229 119.459607 
L 246.781609 118.639726 
L 248.289989 118.021196 
L 249.798369 117.601269 
L 252.06094 117.278727 
L 254.32351 117.203526 
L 257.34027 117.304313 
L 260.357031 117.629264 
L 261.865411 117.962325 
L 263.373791 118.495268 
L 264.882172 119.301824 
L 266.390552 120.443503 
L 267.898932 121.968187 
L 269.407312 123.892658 
L 270.915692 126.204982 
L 273.178263 130.280044 
L 279.211784 142.01335 
L 280.720164 144.381286 
L 282.228544 146.256161 
L 282.982734 146.975743 
L 283.736924 147.536213 
L 284.491114 147.931037 
L 285.245305 148.156076 
L 285.999495 148.209663 
L 286.753685 148.093312 
L 287.507875 147.810628 
L 288.262065 147.367459 
L 289.770445 146.037865 
L 291.278825 144.207609 
L 292.787206 142.011964 
L 298.066536 133.777145 
L 299.574917 131.933229 
L 301.083297 130.547674 
L 301.837487 130.050885 
L 302.591677 129.691305 
L 303.345867 129.46955 
L 304.100057 129.382964 
L 304.854247 129.426158 
L 306.362628 129.8678 
L 307.871008 130.701838 
L 309.379388 131.81105 
L 314.658719 136.01404 
L 316.167099 136.91071 
L 318.429669 137.910148 
L 322.95481 139.626639 
L 324.46319 140.562084 
L 325.97157 141.88197 
L 327.479951 143.666303 
L 328.988331 145.943094 
L 330.496711 148.684804 
L 332.759281 153.465708 
L 337.284422 163.489355 
L 338.792802 166.346774 
L 340.301183 168.745376 
L 341.809563 170.630906 
L 343.317943 172.015302 
L 344.826323 172.967093 
L 346.334703 173.602815 
L 350.859844 175.123193 
L 352.368224 175.952161 
L 353.876605 177.077507 
L 355.384985 178.507781 
L 357.647555 181.123442 
L 365.189456 190.556158 
L 370.468787 196.560788 
L 371.977167 198.648147 
L 373.485547 201.056729 
L 374.993928 203.811529 
L 377.256498 208.496042 
L 381.027448 216.670415 
L 382.535829 219.511144 
L 384.044209 221.804218 
L 384.798399 222.69626 
L 385.552589 223.400634 
L 386.306779 223.909599 
L 387.060969 224.220576 
L 387.815159 224.337742 
L 388.56935 224.271185 
L 389.32354 224.035703 
L 390.83192 223.142611 
L 392.3403 221.877142 
L 394.60287 219.87617 
L 396.111251 218.887181 
L 396.865441 218.5915 
L 397.619631 218.461855 
L 398.373821 218.517967 
L 399.128011 218.773098 
L 399.882201 219.23357 
L 400.636391 219.899279 
L 401.390581 220.76385 
L 402.898962 223.028086 
L 404.407342 225.844572 
L 408.932483 234.907148 
L 410.440863 237.159172 
L 411.195053 238.001579 
L 411.949243 238.628114 
L 412.703433 239.026287 
L 413.457623 239.189529 
L 414.211813 239.116926 
L 414.966003 238.814364 
L 415.720193 238.293916 
L 416.474384 237.572462 
L 417.982764 235.614799 
L 419.491144 233.149764 
L 424.770475 223.901848 
L 426.278855 221.868539 
L 427.787235 220.296697 
L 429.295615 219.18955 
L 430.803996 218.499589 
L 432.312376 218.142476 
L 433.820756 218.025155 
L 436.083326 218.120007 
L 439.100087 218.524218 
L 441.362657 219.072821 
L 442.871037 219.652389 
L 444.379418 220.478281 
L 445.887798 221.609638 
L 447.396178 223.079068 
L 448.904558 224.884997 
L 450.412939 226.994765 
L 452.675509 230.556235 
L 457.20065 237.830017 
L 459.46322 240.907015 
L 460.9716 242.630074 
L 462.47998 244.095306 
L 464.742551 245.905577 
L 469.267691 248.963749 
L 472.284452 251.169169 
L 477.563782 255.230856 
L 479.072163 256.177168 
L 480.580543 256.924887 
L 482.088923 257.440385 
L 483.597303 257.720344 
L 485.105684 257.790878 
L 487.368254 257.622675 
L 491.139204 257.239872 
L 492.647585 257.268842 
L 494.155965 257.490083 
L 495.664345 257.934673 
L 497.172725 258.609018 
L 498.681106 259.500265 
L 500.189486 260.591227 
L 502.452056 262.541261 
L 504.714626 264.78884 
L 508.485577 268.948089 
L 512.256528 273.158249 
L 514.519098 275.311863 
L 516.027478 276.398363 
L 517.535858 277.074759 
L 518.290048 277.225605 
L 519.044239 277.236088 
L 519.798429 277.097062 
L 520.552619 276.801114 
L 521.306809 276.342815 
L 522.060999 275.720253 
L 523.569379 273.99705 
L 525.077759 271.692304 
L 526.58614 268.920078 
L 529.6029 262.671369 
L 531.86547 258.172942 
L 533.373851 255.623511 
L 534.882231 253.584499 
L 536.390611 252.095958 
L 537.144801 251.548669 
L 537.144801 251.548669 
" clip-path="url(#pa86e70246f)" style="fill: none; stroke: #0000ff; stroke-width: 2; stroke-linecap: square"/>
   </g>
   <g id="line2d_28">
    <path d="M 74.072074 62.847596 
L 81.613975 62.372169 
L 83.876545 61.851118 
L 86.139116 61.023246 
L 88.401686 59.933618 
L 93.681017 57.196159 
L 95.189397 56.61947 
L 96.697777 56.22667 
L 98.206157 56.047194 
L 99.714538 56.092023 
L 101.222918 56.352121 
L 102.731298 56.799212 
L 104.993868 57.720863 
L 110.273199 60.057379 
L 112.535769 60.726326 
L 114.04415 60.981154 
L 115.55253 61.072657 
L 117.06091 61.006336 
L 119.32348 60.646723 
L 121.586051 60.04906 
L 130.636332 57.323241 
L 132.898902 57.057106 
L 134.407283 57.061984 
L 135.915663 57.231282 
L 137.424043 57.572006 
L 138.932423 58.080323 
L 141.194994 59.114657 
L 148.736895 63.001921 
L 150.245275 63.395641 
L 151.753655 63.537903 
L 153.262035 63.411626 
L 154.770416 63.028379 
L 156.278796 62.432175 
L 161.558127 59.99073 
L 163.066507 59.712641 
L 163.820697 59.731073 
L 164.574887 59.876614 
L 165.329077 60.164258 
L 166.083267 60.607696 
L 166.837457 61.218816 
L 167.591647 62.007237 
L 168.345838 62.980396 
L 169.854218 65.499365 
L 171.362598 68.787437 
L 172.870978 72.816179 
L 174.379358 77.52024 
L 176.641929 85.620163 
L 179.658689 97.676974 
L 184.18383 116.066991 
L 186.4464 124.392033 
L 187.95478 129.3622 
L 189.463161 133.769916 
L 190.971541 137.552205 
L 192.479921 140.663648 
L 193.988301 143.075332 
L 194.742491 144.014554 
L 195.496682 144.7761 
L 196.250872 145.361447 
L 197.005062 145.773036 
L 197.759252 146.01452 
L 198.513442 146.090648 
L 199.267632 146.007121 
L 200.021822 145.770882 
L 200.776012 145.390124 
L 202.284392 144.231825 
L 203.792773 142.615205 
L 205.301153 140.63548 
L 207.563723 137.213303 
L 212.843054 128.920164 
L 215.105624 125.917829 
L 216.614005 124.228429 
L 218.122385 122.805187 
L 219.630765 121.639835 
L 221.139145 120.707841 
L 222.647525 119.974406 
L 224.910096 119.157128 
L 227.926856 118.393949 
L 232.451997 117.559908 
L 235.468757 117.18073 
L 237.731328 117.063321 
L 239.993898 117.153493 
L 242.256468 117.494056 
L 244.519039 118.103334 
L 246.781609 118.973091 
L 249.044179 120.078079 
L 252.06094 121.862494 
L 255.0777 123.932472 
L 258.848651 126.809344 
L 267.144742 133.297968 
L 269.407312 134.789984 
L 271.669883 136.032154 
L 273.932453 136.969466 
L 275.440833 137.404864 
L 276.949213 137.680164 
L 278.457594 137.793823 
L 279.965974 137.749935 
L 282.228544 137.413552 
L 284.491114 136.817466 
L 290.524635 134.964349 
L 292.033016 134.741318 
L 293.541396 134.739315 
L 295.049776 135.014001 
L 296.558156 135.608424 
L 298.066536 136.547492 
L 299.574917 137.834073 
L 301.083297 139.445706 
L 302.591677 141.335198 
L 304.854247 144.536245 
L 310.133578 152.195242 
L 312.396148 154.9454 
L 314.658719 157.21617 
L 316.921289 159.098773 
L 321.44643 162.659752 
L 322.95481 164.092797 
L 324.46319 165.756346 
L 325.97157 167.673551 
L 328.234141 170.990278 
L 335.776042 182.845216 
L 337.284422 184.68601 
L 338.792802 186.223218 
L 340.301183 187.474689 
L 342.563753 188.95142 
L 346.334703 191.223778 
L 347.843084 192.418338 
L 349.351464 193.929409 
L 350.859844 195.816499 
L 352.368224 198.095691 
L 353.876605 200.737296 
L 356.139175 205.208664 
L 360.664315 214.494966 
L 362.172696 217.222856 
L 363.681076 219.601052 
L 365.189456 221.581999 
L 366.697836 223.161615 
L 368.206217 224.376116 
L 369.714597 225.296499 
L 371.977167 226.334906 
L 374.993928 227.631398 
L 376.502308 228.448122 
L 378.010688 229.458773 
L 379.519068 230.690596 
L 381.027448 232.143812 
L 383.290019 234.683234 
L 386.306779 238.513372 
L 393.84868 248.350006 
L 398.373821 253.853883 
L 402.144772 258.106912 
L 404.407342 260.366672 
L 406.669912 262.27863 
L 408.178292 263.317938 
L 409.686673 264.156548 
L 411.195053 264.801806 
L 413.457623 265.468141 
L 417.228574 266.176797 
L 419.491144 266.673835 
L 421.753714 267.417608 
L 424.016285 268.470722 
L 426.278855 269.792144 
L 432.312376 273.529458 
L 434.574946 274.577875 
L 436.837517 275.3382 
L 439.854277 276.050478 
L 442.871037 276.78602 
L 445.133608 277.617102 
L 446.641988 278.378659 
L 448.150368 279.323885 
L 450.412939 281.0622 
L 453.429699 283.797171 
L 457.95484 287.967303 
L 460.21741 289.760169 
L 462.47998 291.273009 
L 464.742551 292.535783 
L 467.759311 293.966572 
L 473.792832 296.518831 
L 476.809592 297.571684 
L 479.072163 298.087686 
L 480.580543 298.242436 
L 482.088923 298.220392 
L 483.597303 298.013161 
L 485.105684 297.625853 
L 487.368254 296.751932 
L 490.385014 295.215724 
L 496.418535 291.97146 
L 499.435296 290.62452 
L 503.206246 289.196408 
L 517.535858 284.219056 
L 524.323569 282.198913 
L 529.6029 280.815576 
L 532.61966 280.276972 
L 534.882231 280.092928 
L 537.144801 280.125009 
L 537.144801 280.125009 
" clip-path="url(#pa86e70246f)" style="fill: none; stroke: #ff0000; stroke-width: 2; stroke-linecap: square"/>
   </g>
   <g id="line2d_29">
    <path d="M 50.918438 59.554235 
L 560.298437 59.554235 
" clip-path="url(#pa86e70246f)" style="fill: none; stroke: #000000; stroke-width: 0.5; stroke-linecap: square"/>
   </g>
   <g id="patch_4">
    <path d="M 50.918438 311.357969 
L 50.918438 23.077969 
" style="fill: none; stroke: #000000; stroke-width: 0.8; stroke-linejoin: miter; stroke-linecap: square"/>
   </g>
   <g id="patch_5">
    <path d="M 560.298437 311.357969 
L 560.298437 23.077969 
" style="fill: none; stroke: #000000; stroke-width: 0.8; stroke-linejoin: miter; stroke-linecap: square"/>
   </g>
   <g id="patch_6">
    <path d="M 50.918437 311.357969 
L 560.298437 311.357969 
" style="fill: none; stroke: #000000; stroke-width: 0.8; stroke-linejoin: miter; stroke-linecap: square"/>
   </g>
   <g id="patch_7">
    <path d="M 50.918437 23.077969 
L 560.298437 23.077969 
" style="fill: none; stroke: #000000; stroke-width: 0.8; stroke-linejoin: miter; stroke-linecap: square"/>
   </g>
   <g id="text_16">
    <!-- Grand-average ERP at Pz -->
    <g transform="translate(224.111641 17.077969) scale(0.13 -0.13)">
     <defs>
      <path id="DejaVuSans-47" d="M 3809 666 
L 3809 1919 
L 2778 1919 
L 2778 2438 
L 4434 2438 
L 4434 434 
Q 4069 175 3628 42 
Q 3188 -91 2688 -91 
Q 1594 -91 976 548 
Q 359 1188 359 2328 
Q 359 3472 976 4111 
Q 1594 4750 2688 4750 
Q 3144 4750 3555 4637 
Q 3966 4525 4313 4306 
L 4313 3634 
Q 3963 3931 3569 4081 
Q 3175 4231 2741 4231 
Q 1884 4231 1454 3753 
Q 1025 3275 1025 2328 
Q 1025 1384 1454 906 
Q 1884 428 2741 428 
Q 3075 428 3337 486 
Q 3600 544 3809 666 
z
" transform="scale(0.015625)"/>
      <path id="DejaVuSans-72" d="M 2631 2963 
Q 2534 3019 2420 3045 
Q 2306 3072 2169 3072 
Q 1681 3072 1420 2755 
Q 1159 2438 1159 1844 
L 1159 0 
L 581 0 
L 581 3500 
L 1159 3500 
L 1159 2956 
Q 1341 3275 1631 3429 
Q 1922 3584 2338 3584 
Q 2397 3584 2469 3576 
Q 2541 3569 2628 3553 
L 2631 2963 
z
" transform="scale(0.015625)"/>
      <path id="DejaVuSans-61" d="M 2194 1759 
Q 1497 1759 1228 1600 
Q 959 1441 959 1056 
Q 959 750 1161 570 
Q 1363 391 1709 391 
Q 2188 391 2477 730 
Q 2766 1069 2766 1631 
L 2766 1759 
L 2194 1759 
z
M 3341 1997 
L 3341 0 
L 2766 0 
L 2766 531 
Q 2569 213 2275 61 
Q 1981 -91 1556 -91 
Q 1019 -91 701 211 
Q 384 513 384 1019 
Q 384 1609 779 1909 
Q 1175 2209 1959 2209 
L 2766 2209 
L 2766 2266 
Q 2766 2663 2505 2880 
Q 2244 3097 1772 3097 
Q 1472 3097 1187 3025 
Q 903 2953 641 2809 
L 641 3341 
Q 956 3463 1253 3523 
Q 1550 3584 1831 3584 
Q 2591 3584 2966 3190 
Q 3341 2797 3341 1997 
z
" transform="scale(0.015625)"/>
      <path id="DejaVuSans-6e" d="M 3513 2113 
L 3513 0 
L 2938 0 
L 2938 2094 
Q 2938 2591 2744 2837 
Q 2550 3084 2163 3084 
Q 1697 3084 1428 2787 
Q 1159 2491 1159 1978 
L 1159 0 
L 581 0 
L 581 3500 
L 1159 3500 
L 1159 2956 
Q 1366 3272 1645 3428 
Q 1925 3584 2291 3584 
Q 2894 3584 3203 3211 
Q 3513 2838 3513 2113 
z
" transform="scale(0.015625)"/>
      <path id="DejaVuSans-2d" d="M 313 2009 
L 1997 2009 
L 1997 1497 
L 313 1497 
L 313 2009 
z
" transform="scale(0.015625)"/>
      <path id="DejaVuSans-76" d="M 191 3500 
L 800 3500 
L 1894 563 
L 2988 3500 
L 3597 3500 
L 2284 0 
L 1503 0 
L 191 3500 
z
" transform="scale(0.015625)"/>
      <path id="DejaVuSans-67" d="M 2906 1791 
Q 2906 2416 2648 2759 
Q 2391 3103 1925 3103 
Q 1463 3103 1205 2759 
Q 947 2416 947 1791 
Q 947 1169 1205 825 
Q 1463 481 1925 481 
Q 2391 481 2648 825 
Q 2906 1169 2906 1791 
z
M 3481 434 
Q 3481 -459 3084 -895 
Q 2688 -1331 1869 -1331 
Q 1566 -1331 1297 -1286 
Q 1028 -1241 775 -1147 
L 775 -588 
Q 1028 -725 1275 -790 
Q 1522 -856 1778 -856 
Q 2344 -856 2625 -561 
Q 2906 -266 2906 331 
L 2906 616 
Q 2728 306 2450 153 
Q 2172 0 1784 0 
Q 1141 0 747 490 
Q 353 981 353 1791 
Q 353 2603 747 3093 
Q 1141 3584 1784 3584 
Q 2172 3584 2450 3431 
Q 2728 3278 2906 2969 
L 2906 3500 
L 3481 3500 
L 3481 434 
z
" transform="scale(0.015625)"/>
      <path id="DejaVuSans-45" d="M 628 4666 
L 3578 4666 
L 3578 4134 
L 1259 4134 
L 1259 2753 
L 3481 2753 
L 3481 2222 
L 1259 2222 
L 1259 531 
L 3634 531 
L 3634 0 
L 628 0 
L 628 4666 
z
" transform="scale(0.015625)"/>
      <path id="DejaVuSans-52" d="M 2841 2188 
Q 3044 2119 3236 1894 
Q 3428 1669 3622 1275 
L 4263 0 
L 3584 0 
L 2988 1197 
Q 2756 1666 2539 1819 
Q 2322 1972 1947 1972 
L 1259 1972 
L 1259 0 
L 628 0 
L 628 4666 
L 2053 4666 
Q 2853 4666 3247 4331 
Q 3641 3997 3641 3322 
Q 3641 2881 3436 2590 
Q 3231 2300 2841 2188 
z
M 1259 4147 
L 1259 2491 
L 2053 2491 
Q 2509 2491 2742 2702 
Q 2975 2913 2975 3322 
Q 2975 3731 2742 3939 
Q 2509 4147 2053 4147 
L 1259 4147 
z
" transform="scale(0.015625)"/>
      <path id="DejaVuSans-50" d="M 1259 4147 
L 1259 2394 
L 2053 2394 
Q 2494 2394 2734 2622 
Q 2975 2850 2975 3272 
Q 2975 3691 2734 3919 
Q 2494 4147 2053 4147 
L 1259 4147 
z
M 628 4666 
L 2053 4666 
Q 2838 4666 3239 4311 
Q 3641 3956 3641 3272 
Q 3641 2581 3239 2228 
Q 2838 1875 2053 1875 
L 1259 1875 
L 1259 0 
L 628 0 
L 628 4666 
z
" transform="scale(0.015625)"/>
      <path id="DejaVuSans-7a" d="M 353 3500 
L 3084 3500 
L 3084 2975 
L 922 459 
L 3084 459 
L 3084 0 
L 275 0 
L 275 525 
L 2438 3041 
L 353 3041 
L 353 3500 
z
" transform="scale(0.015625)"/>
     </defs>
     <use xlink:href="#DejaVuSans-47"/>
     <use xlink:href="#DejaVuSans-72" transform="translate(77.490234 0)"/>
     <use xlink:href="#DejaVuSans-61" transform="translate(118.603516 0)"/>
     <use xlink:href="#DejaVuSans-6e" transform="translate(179.882812 0)"/>
     <use xlink:href="#DejaVuSans-64" transform="translate(243.261719 0)"/>
     <use xlink:href="#DejaVuSans-2d" transform="translate(306.738281 0)"/>
     <use xlink:href="#DejaVuSans-61" transform="translate(342.822266 0)"/>
     <use xlink:href="#DejaVuSans-76" transform="translate(404.101562 0)"/>
     <use xlink:href="#DejaVuSans-65" transform="translate(463.28125 0)"/>
     <use xlink:href="#DejaVuSans-72" transform="translate(524.804688 0)"/>
     <use xlink:href="#DejaVuSans-61" transform="translate(565.917969 0)"/>
     <use xlink:href="#DejaVuSans-67" transform="translate(627.197266 0)"/>
     <use xlink:href="#DejaVuSans-65" transform="translate(690.673828 0)"/>
     <use xlink:href="#DejaVuSans-20" transform="translate(752.197266 0)"/>
     <use xlink:href="#DejaVuSans-45" transform="translate(783.984375 0)"/>
     <use xlink:href="#DejaVuSans-52" transform="translate(847.167969 0)"/>
     <use xlink:href="#DejaVuSans-50" transform="translate(916.650391 0)"/>
     <use xlink:href="#DejaVuSans-20" transform="translate(976.953125 0)"/>
     <use xlink:href="#DejaVuSans-61" transform="translate(1008.740234 0)"/>
     <use xlink:href="#DejaVuSans-74" transform="translate(1070.019531 0)"/>
     <use xlink:href="#DejaVuSans-20" transform="translate(1109.228516 0)"/>
     <use xlink:href="#DejaVuSans-50" transform="translate(1141.015625 0)"/>
     <use xlink:href="#DejaVuSans-7a" transform="translate(1201.318359 0)"/>
    </g>
   </g>
   <g id="legend_1">
    <g id="patch_8">
     <path d="M 57.918438 75.112344 
L 156.152813 75.112344 
Q 158.152813 75.112344 158.152813 73.112344 
L 158.152813 30.077969 
Q 158.152813 28.077969 156.152813 28.077969 
L 57.918438 28.077969 
Q 55.918438 28.077969 55.918438 30.077969 
L 55.918438 73.112344 
Q 55.918438 75.112344 57.918438 75.112344 
z
" style="fill: #ffffff; opacity: 0.8; stroke: #cccccc; stroke-linejoin: miter"/>
    </g>
    <g id="line2d_30">
     <path d="M 59.918438 36.176406 
L 69.918438 36.176406 
L 79.918438 36.176406 
" style="fill: none; stroke: #0000ff; stroke-width: 2; stroke-linecap: square"/>
    </g>
    <g id="text_17">
     <!-- Target -->
     <g transform="translate(87.918438 39.676406) scale(0.1 -0.1)">
      <use xlink:href="#DejaVuSans-54"/>
      <use xlink:href="#DejaVuSans-61" transform="translate(44.583984 0)"/>
      <use xlink:href="#DejaVuSans-72" transform="translate(105.863281 0)"/>
      <use xlink:href="#DejaVuSans-67" transform="translate(145.226562 0)"/>
      <use xlink:href="#DejaVuSans-65" transform="translate(208.703125 0)"/>
      <use xlink:href="#DejaVuSans-74" transform="translate(270.226562 0)"/>
     </g>
    </g>
    <g id="line2d_31">
     <path d="M 59.918438 50.854531 
L 69.918438 50.854531 
L 79.918438 50.854531 
" style="fill: none; stroke: #ff0000; stroke-width: 2; stroke-linecap: square"/>
    </g>
    <g id="text_18">
     <!-- Non-target -->
     <g transform="translate(87.918438 54.354531) scale(0.1 -0.1)">
      <defs>
       <path id="DejaVuSans-4e" d="M 628 4666 
L 1478 4666 
L 3547 763 
L 3547 4666 
L 4159 4666 
L 4159 0 
L 3309 0 
L 1241 3903 
L 1241 0 
L 628 0 
L 628 4666 
z
" transform="scale(0.015625)"/>
       <path id="DejaVuSans-6f" d="M 1959 3097 
Q 1497 3097 1228 2736 
Q 959 2375 959 1747 
Q 959 1119 1226 758 
Q 1494 397 1959 397 
Q 2419 397 2687 759 
Q 2956 1122 2956 1747 
Q 2956 2369 2687 2733 
Q 2419 3097 1959 3097 
z
M 1959 3584 
Q 2709 3584 3137 3096 
Q 3566 2609 3566 1747 
Q 3566 888 3137 398 
Q 2709 -91 1959 -91 
Q 1206 -91 779 398 
Q 353 888 353 1747 
Q 353 2609 779 3096 
Q 1206 3584 1959 3584 
z
" transform="scale(0.015625)"/>
      </defs>
      <use xlink:href="#DejaVuSans-4e"/>
      <use xlink:href="#DejaVuSans-6f" transform="translate(74.804688 0)"/>
      <use xlink:href="#DejaVuSans-6e" transform="translate(135.986328 0)"/>
      <use xlink:href="#DejaVuSans-2d" transform="translate(199.365234 0)"/>
      <use xlink:href="#DejaVuSans-74" transform="translate(235.449219 0)"/>
      <use xlink:href="#DejaVuSans-61" transform="translate(274.658203 0)"/>
      <use xlink:href="#DejaVuSans-72" transform="translate(335.9375 0)"/>
      <use xlink:href="#DejaVuSans-67" transform="translate(375.300781 0)"/>
      <use xlink:href="#DejaVuSans-65" transform="translate(438.777344 0)"/>
      <use xlink:href="#DejaVuSans-74" transform="translate(500.300781 0)"/>
     </g>
    </g>
    <g id="patch_9">
     <path d="M 59.918438 69.032656 
L 79.918438 69.032656 
L 79.918438 62.032656 
L 59.918438 62.032656 
z
" style="fill: #808080; opacity: 0.1; stroke: #808080; stroke-linejoin: miter"/>
    </g>
    <g id="text_19">
     <!-- P300 window -->
     <g transform="translate(87.918438 69.032656) scale(0.1 -0.1)">
      <defs>
       <path id="DejaVuSans-77" d="M 269 3500 
L 844 3500 
L 1563 769 
L 2278 3500 
L 2956 3500 
L 3675 769 
L 4391 3500 
L 4966 3500 
L 4050 0 
L 3372 0 
L 2619 2869 
L 1863 0 
L 1184 0 
L 269 3500 
z
" transform="scale(0.015625)"/>
      </defs>
      <use xlink:href="#DejaVuSans-50"/>
      <use xlink:href="#DejaVuSans-33" transform="translate(60.302734 0)"/>
      <use xlink:href="#DejaVuSans-30" transform="translate(123.925781 0)"/>
      <use xlink:href="#DejaVuSans-30" transform="translate(187.548828 0)"/>
      <use xlink:href="#DejaVuSans-20" transform="translate(251.171875 0)"/>
      <use xlink:href="#DejaVuSans-77" transform="translate(282.958984 0)"/>
      <use xlink:href="#DejaVuSans-69" transform="translate(364.746094 0)"/>
      <use xlink:href="#DejaVuSans-6e" transform="translate(392.529297 0)"/>
      <use xlink:href="#DejaVuSans-64" transform="translate(455.908203 0)"/>
      <use xlink:href="#DejaVuSans-6f" transform="translate(519.384766 0)"/>
      <use xlink:href="#DejaVuSans-77" transform="translate(580.566406 0)"/>
     </g>
    </g>
   </g>
  </g>
 </g>
 <defs>
  <clipPath id="pa86e70246f">
   <rect x="50.918438" y="23.077969" width="509.38" height="288.28"/>
  </clipPath>
 </defs>
</svg>
