<?xml version="1.0" encoding="utf-8" standalone="no"?>
<!DOCTYPE svg PUBLIC "-//W3C//DTD SVG 1.1//EN"
  "http://www.w3.org/Graphics/SVG/1.1/DTD/svg11.dtd">
<svg xmlns:xlink="http://www.w3.org/1999/xlink" width="389.25125pt" height="285.716719pt" viewBox="0 0 389.25125 285.716719" xmlns="http://www.w3.org/2000/svg" version="1.1">
 <metadata>
  <rdf:RDF xmlns:dc="http://purl.org/dc/elements/1.1/" xmlns:cc="http://creativecommons.org/ns#" xmlns:rdf="http://www.w3.org/1999/02/22-rdf-syntax-ns#">
   <cc:Work>
    <dc:type rdf:resource="http://purl.org/dc/dcmitype/StillImage"/>
    <dc:date>2025-11-21T14:38:12.010644</dc:date>
    <dc:format>image/svg+xml</dc:format>
    <dc:creator>
     <cc:Agent>
      <dc:title>Matplotlib v3.10.3, https://matplotlib.org/</dc:title>
     </cc:Agent>
    </dc:creator>
   </cc:Work>
  </rdf:RDF>
 </metadata>
 <defs>
  <style type="text/css">*{stroke-linejoin: round; stroke-linecap: butt}</style>
 </defs>
 <g id="figure_1">
  <g id="patch_1">
   <path d="M 0 285.716719 
L 389.25125 285.716719 
L 389.25125 0 
L 0 0 
z
" style="fill: #ffffff"/>
  </g>
  <g id="axes_1">
   <g id="patch_2">
    <path d="M 47.25125 243.695625 
L 382.05125 243.695625 
L 382.05125 21.935625 
L 47.25125 21.935625 
z
" style="fill: #ffffff"/>
   </g>
   <g id="matplotlib.axis_1">
    <g id="xtick_1">
     <g id="line2d_1">
      <path d="M 62.469432 243.695625 
L 62.469432 21.935625 
" clip-path="url(#p68d4d9b302)" style="fill: none; stroke: #cccccc; stroke-linecap: round"/>
     </g>
     <g id="text_1">
      <!-- 0 -->
      <g style="fill: #262626" transform="translate(59.410916 261.069219) scale(0.11 -0.11)">
       <defs>
        <path id="ArialMT-30" d="M 266 2259 
Q 266 3072 433 3567 
Q 600 4063 929 4331 
Q 1259 4600 1759 4600 
Q 2128 4600 2406 4451 
Q 2684 4303 2865 4023 
Q 3047 3744 3150 3342 
Q 3253 2941 3253 2259 
Q 3253 1453 3087 958 
Q 2922 463 2592 192 
Q 2263 -78 1759 -78 
Q 1097 -78 719 397 
Q 266 969 266 2259 
z
M 844 2259 
Q 844 1131 1108 757 
Q 1372 384 1759 384 
Q 2147 384 2411 759 
Q 2675 1134 2675 2259 
Q 2675 3391 2411 3762 
Q 2147 4134 1753 4134 
Q 1366 4134 1134 3806 
Q 844 3388 844 2259 
z
" transform="scale(0.015625)"/>
       </defs>
       <use xlink:href="#ArialMT-30"/>
      </g>
     </g>
    </g>
    <g id="xtick_2">
     <g id="line2d_2">
      <path d="M 113.196705 243.695625 
L 113.196705 21.935625 
" clip-path="url(#p68d4d9b302)" style="fill: none; stroke: #cccccc; stroke-linecap: round"/>
     </g>
     <g id="text_2">
      <!-- 100 -->
      <g style="fill: #262626" transform="translate(104.021158 261.069219) scale(0.11 -0.11)">
       <defs>
        <path id="ArialMT-31" d="M 2384 0 
L 1822 0 
L 1822 3584 
Q 1619 3391 1289 3197 
Q 959 3003 697 2906 
L 697 3450 
Q 1169 3672 1522 3987 
Q 1875 4303 2022 4600 
L 2384 4600 
L 2384 0 
z
" transform="scale(0.015625)"/>
       </defs>
       <use xlink:href="#ArialMT-31"/>
       <use xlink:href="#ArialMT-30" transform="translate(55.615234 0)"/>
       <use xlink:href="#ArialMT-30" transform="translate(111.230469 0)"/>
      </g>
     </g>
    </g>
    <g id="xtick_3">
     <g id="line2d_3">
      <path d="M 163.923977 243.695625 
L 163.923977 21.935625 
" clip-path="url(#p68d4d9b302)" style="fill: none; stroke: #cccccc; stroke-linecap: round"/>
     </g>
     <g id="text_3">
      <!-- 200 -->
      <g style="fill: #262626" transform="translate(154.74843 261.069219) scale(0.11 -0.11)">
       <defs>
        <path id="ArialMT-32" d="M 3222 541 
L 3222 0 
L 194 0 
Q 188 203 259 391 
Q 375 700 629 1000 
Q 884 1300 1366 1694 
Q 2113 2306 2375 2664 
Q 2638 3022 2638 3341 
Q 2638 3675 2398 3904 
Q 2159 4134 1775 4134 
Q 1369 4134 1125 3890 
Q 881 3647 878 3216 
L 300 3275 
Q 359 3922 746 4261 
Q 1134 4600 1788 4600 
Q 2447 4600 2831 4234 
Q 3216 3869 3216 3328 
Q 3216 3053 3103 2787 
Q 2991 2522 2730 2228 
Q 2469 1934 1863 1422 
Q 1356 997 1212 845 
Q 1069 694 975 541 
L 3222 541 
z
" transform="scale(0.015625)"/>
       </defs>
       <use xlink:href="#ArialMT-32"/>
       <use xlink:href="#ArialMT-30" transform="translate(55.615234 0)"/>
       <use xlink:href="#ArialMT-30" transform="translate(111.230469 0)"/>
      </g>
     </g>
    </g>
    <g id="xtick_4">
     <g id="line2d_4">
      <path d="M 214.65125 243.695625 
L 214.65125 21.935625 
" clip-path="url(#p68d4d9b302)" style="fill: none; stroke: #cccccc; stroke-linecap: round"/>
     </g>
     <g id="text_4">
      <!-- 300 -->
      <g style="fill: #262626" transform="translate(205.475703 261.069219) scale(0.11 -0.11)">
       <defs>
        <path id="ArialMT-33" d="M 269 1209 
L 831 1284 
Q 928 806 1161 595 
Q 1394 384 1728 384 
Q 2125 384 2398 659 
Q 2672 934 2672 1341 
Q 2672 1728 2419 1979 
Q 2166 2231 1775 2231 
Q 1616 2231 1378 2169 
L 1441 2663 
Q 1497 2656 1531 2656 
Q 1891 2656 2178 2843 
Q 2466 3031 2466 3422 
Q 2466 3731 2256 3934 
Q 2047 4138 1716 4138 
Q 1388 4138 1169 3931 
Q 950 3725 888 3313 
L 325 3413 
Q 428 3978 793 4289 
Q 1159 4600 1703 4600 
Q 2078 4600 2393 4439 
Q 2709 4278 2876 4000 
Q 3044 3722 3044 3409 
Q 3044 3113 2884 2869 
Q 2725 2625 2413 2481 
Q 2819 2388 3044 2092 
Q 3269 1797 3269 1353 
Q 3269 753 2831 336 
Q 2394 -81 1725 -81 
Q 1122 -81 723 278 
Q 325 638 269 1209 
z
" transform="scale(0.015625)"/>
       </defs>
       <use xlink:href="#ArialMT-33"/>
       <use xlink:href="#ArialMT-30" transform="translate(55.615234 0)"/>
       <use xlink:href="#ArialMT-30" transform="translate(111.230469 0)"/>
      </g>
     </g>
    </g>
    <g id="xtick_5">
     <g id="line2d_5">
      <path d="M 265.378523 243.695625 
L 265.378523 21.935625 
" clip-path="url(#p68d4d9b302)" style="fill: none; stroke: #cccccc; stroke-linecap: round"/>
     </g>
     <g id="text_5">
      <!-- 400 -->
      <g style="fill: #262626" transform="translate(256.202976 261.069219) scale(0.11 -0.11)">
       <defs>
        <path id="ArialMT-34" d="M 2069 0 
L 2069 1097 
L 81 1097 
L 81 1613 
L 2172 4581 
L 2631 4581 
L 2631 1613 
L 3250 1613 
L 3250 1097 
L 2631 1097 
L 2631 0 
L 2069 0 
z
M 2069 1613 
L 2069 3678 
L 634 1613 
L 2069 1613 
z
" transform="scale(0.015625)"/>
       </defs>
       <use xlink:href="#ArialMT-34"/>
       <use xlink:href="#ArialMT-30" transform="translate(55.615234 0)"/>
       <use xlink:href="#ArialMT-30" transform="translate(111.230469 0)"/>
      </g>
     </g>
    </g>
    <g id="xtick_6">
     <g id="line2d_6">
      <path d="M 316.105795 243.695625 
L 316.105795 21.935625 
" clip-path="url(#p68d4d9b302)" style="fill: none; stroke: #cccccc; stroke-linecap: round"/>
     </g>
     <g id="text_6">
      <!-- 500 -->
      <g style="fill: #262626" transform="translate(306.930249 261.069219) scale(0.11 -0.11)">
       <defs>
        <path id="ArialMT-35" d="M 266 1200 
L 856 1250 
Q 922 819 1161 601 
Q 1400 384 1738 384 
Q 2144 384 2425 690 
Q 2706 997 2706 1503 
Q 2706 1984 2436 2262 
Q 2166 2541 1728 2541 
Q 1456 2541 1237 2417 
Q 1019 2294 894 2097 
L 366 2166 
L 809 4519 
L 3088 4519 
L 3088 3981 
L 1259 3981 
L 1013 2750 
Q 1425 3038 1878 3038 
Q 2478 3038 2890 2622 
Q 3303 2206 3303 1553 
Q 3303 931 2941 478 
Q 2500 -78 1738 -78 
Q 1113 -78 717 272 
Q 322 622 266 1200 
z
" transform="scale(0.015625)"/>
       </defs>
       <use xlink:href="#ArialMT-35"/>
       <use xlink:href="#ArialMT-30" transform="translate(55.615234 0)"/>
       <use xlink:href="#ArialMT-30" transform="translate(111.230469 0)"/>
      </g>
     </g>
    </g>
    <g id="xtick_7">
     <g id="line2d_7">
      <path d="M 366.833068 243.695625 
L 366.833068 21.935625 
" clip-path="url(#p68d4d9b302)" style="fill: none; stroke: #cccccc; stroke-linecap: round"/>
     </g>
     <g id="text_7">
      <!-- 600 -->
      <g style="fill: #262626" transform="translate(357.657521 261.069219) scale(0.11 -0.11)">
       <defs>
        <path id="ArialMT-36" d="M 3184 3459 
L 2625 3416 
Q 2550 3747 2413 3897 
Q 2184 4138 1850 4138 
Q 1581 4138 1378 3988 
Q 1113 3794 959 3422 
Q 806 3050 800 2363 
Q 1003 2672 1297 2822 
Q 1591 2972 1913 2972 
Q 2475 2972 2870 2558 
Q 3266 2144 3266 1488 
Q 3266 1056 3080 686 
Q 2894 316 2569 119 
Q 2244 -78 1831 -78 
Q 1128 -78 684 439 
Q 241 956 241 2144 
Q 241 3472 731 4075 
Q 1159 4600 1884 4600 
Q 2425 4600 2770 4297 
Q 3116 3994 3184 3459 
z
M 888 1484 
Q 888 1194 1011 928 
Q 1134 663 1356 523 
Q 1578 384 1822 384 
Q 2178 384 2434 671 
Q 2691 959 2691 1453 
Q 2691 1928 2437 2201 
Q 2184 2475 1800 2475 
Q 1419 2475 1153 2201 
Q 888 1928 888 1484 
z
" transform="scale(0.015625)"/>
       </defs>
       <use xlink:href="#ArialMT-36"/>
       <use xlink:href="#ArialMT-30" transform="translate(55.615234 0)"/>
       <use xlink:href="#ArialMT-30" transform="translate(111.230469 0)"/>
      </g>
     </g>
    </g>
    <g id="text_8">
     <!-- Time (ms) -->
     <g style="fill: #262626" transform="translate(187.88375 275.991094) scale(0.12 -0.12)">
      <defs>
       <path id="ArialMT-54" d="M 1659 0 
L 1659 4041 
L 150 4041 
L 150 4581 
L 3781 4581 
L 3781 4041 
L 2266 4041 
L 2266 0 
L 1659 0 
z
" transform="scale(0.015625)"/>
       <path id="ArialMT-69" d="M 425 3934 
L 425 4581 
L 988 4581 
L 988 3934 
L 425 3934 
z
M 425 0 
L 425 3319 
L 988 3319 
L 988 0 
L 425 0 
z
" transform="scale(0.015625)"/>
       <path id="ArialMT-6d" d="M 422 0 
L 422 3319 
L 925 3319 
L 925 2853 
Q 1081 3097 1340 3245 
Q 1600 3394 1931 3394 
Q 2300 3394 2536 3241 
Q 2772 3088 2869 2813 
Q 3263 3394 3894 3394 
Q 4388 3394 4653 3120 
Q 4919 2847 4919 2278 
L 4919 0 
L 4359 0 
L 4359 2091 
Q 4359 2428 4304 2576 
Q 4250 2725 4106 2815 
Q 3963 2906 3769 2906 
Q 3419 2906 3187 2673 
Q 2956 2441 2956 1928 
L 2956 0 
L 2394 0 
L 2394 2156 
Q 2394 2531 2256 2718 
Q 2119 2906 1806 2906 
Q 1569 2906 1367 2781 
Q 1166 2656 1075 2415 
Q 984 2175 984 1722 
L 984 0 
L 422 0 
z
" transform="scale(0.015625)"/>
       <path id="ArialMT-65" d="M 2694 1069 
L 3275 997 
Q 3138 488 2766 206 
Q 2394 -75 1816 -75 
Q 1088 -75 661 373 
Q 234 822 234 1631 
Q 234 2469 665 2931 
Q 1097 3394 1784 3394 
Q 2450 3394 2872 2941 
Q 3294 2488 3294 1666 
Q 3294 1616 3291 1516 
L 816 1516 
Q 847 969 1125 678 
Q 1403 388 1819 388 
Q 2128 388 2347 550 
Q 2566 713 2694 1069 
z
M 847 1978 
L 2700 1978 
Q 2663 2397 2488 2606 
Q 2219 2931 1791 2931 
Q 1403 2931 1139 2672 
Q 875 2413 847 1978 
z
" transform="scale(0.015625)"/>
       <path id="ArialMT-20" transform="scale(0.015625)"/>
       <path id="ArialMT-28" d="M 1497 -1347 
Q 1031 -759 709 28 
Q 388 816 388 1659 
Q 388 2403 628 3084 
Q 909 3875 1497 4659 
L 1900 4659 
Q 1522 4009 1400 3731 
Q 1209 3300 1100 2831 
Q 966 2247 966 1656 
Q 966 153 1900 -1347 
L 1497 -1347 
z
" transform="scale(0.015625)"/>
       <path id="ArialMT-73" d="M 197 991 
L 753 1078 
Q 800 744 1014 566 
Q 1228 388 1613 388 
Q 2000 388 2187 545 
Q 2375 703 2375 916 
Q 2375 1106 2209 1216 
Q 2094 1291 1634 1406 
Q 1016 1563 777 1677 
Q 538 1791 414 1992 
Q 291 2194 291 2438 
Q 291 2659 392 2848 
Q 494 3038 669 3163 
Q 800 3259 1026 3326 
Q 1253 3394 1513 3394 
Q 1903 3394 2198 3281 
Q 2494 3169 2634 2976 
Q 2775 2784 2828 2463 
L 2278 2388 
Q 2241 2644 2061 2787 
Q 1881 2931 1553 2931 
Q 1166 2931 1000 2803 
Q 834 2675 834 2503 
Q 834 2394 903 2306 
Q 972 2216 1119 2156 
Q 1203 2125 1616 2013 
Q 2213 1853 2448 1751 
Q 2684 1650 2818 1456 
Q 2953 1263 2953 975 
Q 2953 694 2789 445 
Q 2625 197 2315 61 
Q 2006 -75 1616 -75 
Q 969 -75 630 194 
Q 291 463 197 991 
z
" transform="scale(0.015625)"/>
       <path id="ArialMT-29" d="M 791 -1347 
L 388 -1347 
Q 1322 153 1322 1656 
Q 1322 2244 1188 2822 
Q 1081 3291 891 3722 
Q 769 4003 388 4659 
L 791 4659 
Q 1378 3875 1659 3084 
Q 1900 2403 1900 1659 
Q 1900 816 1576 28 
Q 1253 -759 791 -1347 
z
" transform="scale(0.015625)"/>
      </defs>
      <use xlink:href="#ArialMT-54"/>
      <use xlink:href="#ArialMT-69" transform="translate(57.333984 0)"/>
      <use xlink:href="#ArialMT-6d" transform="translate(79.550781 0)"/>
      <use xlink:href="#ArialMT-65" transform="translate(162.851562 0)"/>
      <use xlink:href="#ArialMT-20" transform="translate(218.466797 0)"/>
      <use xlink:href="#ArialMT-28" transform="translate(246.25 0)"/>
      <use xlink:href="#ArialMT-6d" transform="translate(279.550781 0)"/>
      <use xlink:href="#ArialMT-73" transform="translate(362.851562 0)"/>
      <use xlink:href="#ArialMT-29" transform="translate(412.851562 0)"/>
     </g>
    </g>
   </g>
   <g id="matplotlib.axis_2">
    <g id="ytick_1">
     <g id="line2d_8">
      <path d="M 47.25125 210.868295 
L 382.05125 210.868295 
" clip-path="url(#p68d4d9b302)" style="fill: none; stroke: #cccccc; stroke-linecap: round"/>
     </g>
     <g id="text_9">
      <!-- 0.0 -->
      <g style="fill: #262626" transform="translate(22.46125 214.805092) scale(0.11 -0.11)">
       <defs>
        <path id="ArialMT-2e" d="M 581 0 
L 581 641 
L 1222 641 
L 1222 0 
L 581 0 
z
" transform="scale(0.015625)"/>
       </defs>
       <use xlink:href="#ArialMT-30"/>
       <use xlink:href="#ArialMT-2e" transform="translate(55.615234 0)"/>
       <use xlink:href="#ArialMT-30" transform="translate(83.398438 0)"/>
      </g>
     </g>
    </g>
    <g id="ytick_2">
     <g id="line2d_9">
      <path d="M 47.25125 167.782412 
L 382.05125 167.782412 
" clip-path="url(#p68d4d9b302)" style="fill: none; stroke: #cccccc; stroke-linecap: round"/>
     </g>
     <g id="text_10">
      <!-- 0.5 -->
      <g style="fill: #262626" transform="translate(22.46125 171.719209) scale(0.11 -0.11)">
       <use xlink:href="#ArialMT-30"/>
       <use xlink:href="#ArialMT-2e" transform="translate(55.615234 0)"/>
       <use xlink:href="#ArialMT-35" transform="translate(83.398438 0)"/>
      </g>
     </g>
    </g>
    <g id="ytick_3">
     <g id="line2d_10">
      <path d="M 47.25125 124.696529 
L 382.05125 124.696529 
" clip-path="url(#p68d4d9b302)" style="fill: none; stroke: #cccccc; stroke-linecap: round"/>
     </g>
     <g id="text_11">
      <!-- 1.0 -->
      <g style="fill: #262626" transform="translate(22.46125 128.633326) scale(0.11 -0.11)">
       <use xlink:href="#ArialMT-31"/>
       <use xlink:href="#ArialMT-2e" transform="translate(55.615234 0)"/>
       <use xlink:href="#ArialMT-30" transform="translate(83.398438 0)"/>
      </g>
     </g>
    </g>
    <g id="ytick_4">
     <g id="line2d_11">
      <path d="M 47.25125 81.610646 
L 382.05125 81.610646 
" clip-path="url(#p68d4d9b302)" style="fill: none; stroke: #cccccc; stroke-linecap: round"/>
     </g>
     <g id="text_12">
      <!-- 1.5 -->
      <g style="fill: #262626" transform="translate(22.46125 85.547442) scale(0.11 -0.11)">
       <use xlink:href="#ArialMT-31"/>
       <use xlink:href="#ArialMT-2e" transform="translate(55.615234 0)"/>
       <use xlink:href="#ArialMT-35" transform="translate(83.398438 0)"/>
      </g>
     </g>
    </g>
    <g id="ytick_5">
     <g id="line2d_12">
      <path d="M 47.25125 38.524762 
L 382.05125 38.524762 
" clip-path="url(#p68d4d9b302)" style="fill: none; stroke: #cccccc; stroke-linecap: round"/>
     </g>
     <g id="text_13">
      <!-- 2.0 -->
      <g style="fill: #262626" transform="translate(22.46125 42.461559) scale(0.11 -0.11)">
       <use xlink:href="#ArialMT-32"/>
       <use xlink:href="#ArialMT-2e" transform="translate(55.615234 0)"/>
       <use xlink:href="#ArialMT-30" transform="translate(83.398438 0)"/>
      </g>
     </g>
    </g>
    <g id="text_14">
     <!-- Amplitude (µV) -->
     <g style="fill: #262626" transform="translate(15.935625 172.617187) rotate(-90) scale(0.12 -0.12)">
      <defs>
       <path id="ArialMT-41" d="M -9 0 
L 1750 4581 
L 2403 4581 
L 4278 0 
L 3588 0 
L 3053 1388 
L 1138 1388 
L 634 0 
L -9 0 
z
M 1313 1881 
L 2866 1881 
L 2388 3150 
Q 2169 3728 2063 4100 
Q 1975 3659 1816 3225 
L 1313 1881 
z
" transform="scale(0.015625)"/>
       <path id="ArialMT-70" d="M 422 -1272 
L 422 3319 
L 934 3319 
L 934 2888 
Q 1116 3141 1344 3267 
Q 1572 3394 1897 3394 
Q 2322 3394 2647 3175 
Q 2972 2956 3137 2557 
Q 3303 2159 3303 1684 
Q 3303 1175 3120 767 
Q 2938 359 2589 142 
Q 2241 -75 1856 -75 
Q 1575 -75 1351 44 
Q 1128 163 984 344 
L 984 -1272 
L 422 -1272 
z
M 931 1641 
Q 931 1000 1190 694 
Q 1450 388 1819 388 
Q 2194 388 2461 705 
Q 2728 1022 2728 1688 
Q 2728 2322 2467 2637 
Q 2206 2953 1844 2953 
Q 1484 2953 1207 2617 
Q 931 2281 931 1641 
z
" transform="scale(0.015625)"/>
       <path id="ArialMT-6c" d="M 409 0 
L 409 4581 
L 972 4581 
L 972 0 
L 409 0 
z
" transform="scale(0.015625)"/>
       <path id="ArialMT-74" d="M 1650 503 
L 1731 6 
Q 1494 -44 1306 -44 
Q 1000 -44 831 53 
Q 663 150 594 308 
Q 525 466 525 972 
L 525 2881 
L 113 2881 
L 113 3319 
L 525 3319 
L 525 4141 
L 1084 4478 
L 1084 3319 
L 1650 3319 
L 1650 2881 
L 1084 2881 
L 1084 941 
Q 1084 700 1114 631 
Q 1144 563 1211 522 
Q 1278 481 1403 481 
Q 1497 481 1650 503 
z
" transform="scale(0.015625)"/>
       <path id="ArialMT-75" d="M 2597 0 
L 2597 488 
Q 2209 -75 1544 -75 
Q 1250 -75 995 37 
Q 741 150 617 320 
Q 494 491 444 738 
Q 409 903 409 1263 
L 409 3319 
L 972 3319 
L 972 1478 
Q 972 1038 1006 884 
Q 1059 663 1231 536 
Q 1403 409 1656 409 
Q 1909 409 2131 539 
Q 2353 669 2445 892 
Q 2538 1116 2538 1541 
L 2538 3319 
L 3100 3319 
L 3100 0 
L 2597 0 
z
" transform="scale(0.015625)"/>
       <path id="ArialMT-64" d="M 2575 0 
L 2575 419 
Q 2259 -75 1647 -75 
Q 1250 -75 917 144 
Q 584 363 401 755 
Q 219 1147 219 1656 
Q 219 2153 384 2558 
Q 550 2963 881 3178 
Q 1213 3394 1622 3394 
Q 1922 3394 2156 3267 
Q 2391 3141 2538 2938 
L 2538 4581 
L 3097 4581 
L 3097 0 
L 2575 0 
z
M 797 1656 
Q 797 1019 1065 703 
Q 1334 388 1700 388 
Q 2069 388 2326 689 
Q 2584 991 2584 1609 
Q 2584 2291 2321 2609 
Q 2059 2928 1675 2928 
Q 1300 2928 1048 2622 
Q 797 2316 797 1656 
z
" transform="scale(0.015625)"/>
       <path id="ArialMT-b5" d="M 3181 3319 
L 3181 0 
L 2678 0 
L 2678 394 
Q 2516 144 2356 50 
Q 2138 -78 1847 -78 
Q 1588 -78 1388 25 
Q 1238 103 1056 334 
L 1056 -1272 
L 500 -1272 
L 500 3319 
L 1056 3319 
L 1056 1913 
Q 1056 1147 1137 920 
Q 1219 694 1401 562 
Q 1584 431 1822 431 
Q 2072 431 2269 568 
Q 2466 706 2547 923 
Q 2628 1141 2628 1903 
L 2628 3319 
L 3181 3319 
z
" transform="scale(0.015625)"/>
       <path id="ArialMT-56" d="M 1803 0 
L 28 4581 
L 684 4581 
L 1875 1253 
Q 2019 853 2116 503 
Q 2222 878 2363 1253 
L 3600 4581 
L 4219 4581 
L 2425 0 
L 1803 0 
z
" transform="scale(0.015625)"/>
      </defs>
      <use xlink:href="#ArialMT-41"/>
      <use xlink:href="#ArialMT-6d" transform="translate(66.699219 0)"/>
      <use xlink:href="#ArialMT-70" transform="translate(150 0)"/>
      <use xlink:href="#ArialMT-6c" transform="translate(205.615234 0)"/>
      <use xlink:href="#ArialMT-69" transform="translate(227.832031 0)"/>
      <use xlink:href="#ArialMT-74" transform="translate(250.048828 0)"/>
      <use xlink:href="#ArialMT-75" transform="translate(277.832031 0)"/>
      <use xlink:href="#ArialMT-64" transform="translate(333.447266 0)"/>
      <use xlink:href="#ArialMT-65" transform="translate(389.0625 0)"/>
      <use xlink:href="#ArialMT-20" transform="translate(444.677734 0)"/>
      <use xlink:href="#ArialMT-28" transform="translate(472.460938 0)"/>
      <use xlink:href="#ArialMT-b5" transform="translate(505.761719 0)"/>
      <use xlink:href="#ArialMT-56" transform="translate(563.378906 0)"/>
      <use xlink:href="#ArialMT-29" transform="translate(630.078125 0)"/>
     </g>
    </g>
   </g>
   <g id="FillBetweenPolyCollection_1">
    <defs>
     <path id="m2922ee4688" d="M 62.469432 -80.784699 
L 62.469432 -64.601474 
L 64.458737 -74.696479 
L 66.448041 -61.419403 
L 68.437346 -64.899063 
L 70.426651 -59.765188 
L 72.415956 -70.170779 
L 74.405261 -69.718197 
L 76.394566 -63.451231 
L 78.38387 -64.249969 
L 80.373175 -66.160477 
L 82.36248 -71.701898 
L 84.351785 -66.479603 
L 86.34109 -65.573157 
L 88.330394 -79.444819 
L 90.319699 -65.8949 
L 92.309004 -66.250141 
L 94.298309 -75.116384 
L 96.287614 -61.191001 
L 98.276918 -73.575293 
L 100.266223 -54.310783 
L 102.255528 -64.794129 
L 104.244833 -63.944201 
L 106.234138 -73.453584 
L 108.223443 -67.87042 
L 110.212747 -58.995388 
L 112.202052 -75.259695 
L 114.191357 -57.727892 
L 116.180662 -70.848045 
L 118.169967 -66.085305 
L 120.159271 -78.993816 
L 122.148576 -62.274093 
L 124.137881 -58.329393 
L 126.127186 -71.057418 
L 128.116491 -76.700228 
L 130.105795 -75.244809 
L 132.0951 -72.068564 
L 134.084405 -70.756463 
L 136.07371 -70.48557 
L 138.063015 -71.743186 
L 140.05232 -64.735369 
L 142.041624 -62.780495 
L 144.030929 -68.403076 
L 146.020234 -69.53124 
L 148.009539 -70.647496 
L 149.998844 -69.49192 
L 151.988148 -74.569731 
L 153.977453 -67.798059 
L 155.966758 -71.741967 
L 157.956063 -61.983672 
L 159.945368 -65.650259 
L 161.934672 -68.277351 
L 163.923977 -74.270445 
L 165.913282 -67.00609 
L 167.902587 -64.4425 
L 169.891892 -69.691321 
L 171.881197 -60.395714 
L 173.870501 -60.457103 
L 175.859806 -66.111363 
L 177.849111 -73.931099 
L 179.838416 -66.405968 
L 181.827721 -63.886032 
L 183.817025 -60.497322 
L 185.80633 -72.854667 
L 187.795635 -69.824406 
L 189.78494 -72.638869 
L 191.774245 -72.688061 
L 193.763549 -65.499887 
L 195.752854 -132.43702 
L 197.742159 -150.268191 
L 199.731464 -158.686878 
L 201.720769 -181.24954 
L 203.710074 -186.16201 
L 205.699378 -200.978311 
L 207.688683 -215.738625 
L 209.677988 -211.30035 
L 211.667293 -234.714781 
L 213.656598 -229.166707 
L 215.645902 -232.562736 
L 217.635207 -229.8385 
L 219.624512 -217.698773 
L 221.613817 -219.098647 
L 223.603122 -214.860033 
L 225.592426 -192.206201 
L 227.581731 -169.897858 
L 229.571036 -169.428733 
L 231.560341 -158.010545 
L 233.549646 -142.588212 
L 235.538951 -125.167621 
L 237.528255 -113.840984 
L 239.51756 -95.105035 
L 241.506865 -98.355357 
L 243.49617 -91.28724 
L 245.485475 -90.871813 
L 247.474779 -76.416427 
L 249.464084 -77.349093 
L 251.453389 -87.250285 
L 253.442694 -67.936123 
L 255.431999 -57.490565 
L 257.421303 -70.345353 
L 259.410608 -66.795391 
L 261.399913 -61.988187 
L 263.389218 -75.07403 
L 265.378523 -60.955815 
L 267.367828 -76.904047 
L 269.357132 -61.557331 
L 271.346437 -75.40737 
L 273.335742 -65.510161 
L 275.325047 -79.162087 
L 277.314352 -73.361568 
L 279.303656 -71.366207 
L 281.292961 -58.099424 
L 283.282266 -56.300566 
L 285.271571 -54.510259 
L 287.260876 -59.00721 
L 289.25018 -65.503297 
L 291.239485 -67.324709 
L 293.22879 -66.621047 
L 295.218095 -61.806101 
L 297.2074 -70.271165 
L 299.196705 -70.458983 
L 301.186009 -75.745016 
L 303.175314 -76.462976 
L 305.164619 -73.861874 
L 307.153924 -63.843677 
L 309.143229 -69.452886 
L 311.132533 -74.231722 
L 313.121838 -77.722284 
L 315.111143 -65.558446 
L 317.100448 -53.483385 
L 319.089753 -68.902241 
L 321.079057 -70.489204 
L 323.068362 -64.713254 
L 325.057667 -74.927921 
L 327.046972 -77.708215 
L 329.036277 -63.83578 
L 331.025582 -64.365017 
L 333.014886 -76.315877 
L 335.004191 -64.55891 
L 336.993496 -79.03817 
L 338.982801 -67.504964 
L 340.972106 -76.024689 
L 342.96141 -52.101094 
L 344.950715 -68.220546 
L 346.94002 -69.946995 
L 348.929325 -56.752917 
L 350.91863 -62.020209 
L 352.907934 -70.512075 
L 354.897239 -81.523108 
L 356.886544 -74.238554 
L 358.875849 -77.582373 
L 360.865154 -64.619618 
L 362.854459 -64.597885 
L 364.843763 -72.443483 
L 366.833068 -64.247748 
L 366.833068 -79.507481 
L 366.833068 -79.507481 
L 364.843763 -84.889966 
L 362.854459 -77.905253 
L 360.865154 -76.756489 
L 358.875849 -88.859095 
L 356.886544 -87.456112 
L 354.897239 -97.627099 
L 352.907934 -82.074816 
L 350.91863 -74.996743 
L 348.929325 -72.010317 
L 346.94002 -82.723103 
L 344.950715 -82.964887 
L 342.96141 -64.258581 
L 340.972106 -89.831795 
L 338.982801 -80.947979 
L 336.993496 -92.651158 
L 335.004191 -79.998824 
L 333.014886 -90.870569 
L 331.025582 -76.787616 
L 329.036277 -78.348752 
L 327.046972 -91.356143 
L 325.057667 -89.538308 
L 323.068362 -78.691798 
L 321.079057 -86.771005 
L 319.089753 -81.168281 
L 317.100448 -66.074973 
L 315.111143 -78.178707 
L 313.121838 -89.681973 
L 311.132533 -90.327455 
L 309.143229 -79.143468 
L 307.153924 -76.663676 
L 305.164619 -89.445736 
L 303.175314 -88.566239 
L 301.186009 -87.668219 
L 299.196705 -81.97354 
L 297.2074 -85.839665 
L 295.218095 -75.352047 
L 293.22879 -79.160471 
L 291.239485 -81.740756 
L 289.25018 -79.536303 
L 287.260876 -72.069489 
L 285.271571 -73.939458 
L 283.282266 -71.769824 
L 281.292961 -73.41477 
L 279.303656 -82.555653 
L 277.314352 -83.448141 
L 275.325047 -94.719156 
L 273.335742 -76.261311 
L 271.346437 -88.317106 
L 269.357132 -76.479603 
L 267.367828 -87.978123 
L 265.378523 -75.210985 
L 263.389218 -87.024747 
L 261.399913 -76.540753 
L 259.410608 -79.875697 
L 257.421303 -83.365237 
L 255.431999 -71.206115 
L 253.442694 -83.955135 
L 251.453389 -100.787273 
L 249.464084 -91.410855 
L 247.474779 -89.592041 
L 245.485475 -104.435573 
L 243.49617 -104.521348 
L 241.506865 -112.92903 
L 239.51756 -109.422884 
L 237.528255 -129.139438 
L 235.538951 -141.376381 
L 233.549646 -157.040876 
L 231.560341 -175.731113 
L 229.571036 -188.195793 
L 227.581731 -185.464115 
L 225.592426 -206.814524 
L 223.603122 -232.935844 
L 221.613817 -234.858926 
L 219.624512 -237.473762 
L 217.635207 -245.094395 
L 215.645902 -252.557506 
L 213.656598 -249.425355 
L 211.667293 -253.701094 
L 209.677988 -231.607081 
L 207.688683 -235.045899 
L 205.699378 -217.213472 
L 203.710074 -202.733876 
L 201.720769 -195.543313 
L 199.731464 -175.585959 
L 197.742159 -163.554425 
L 195.752854 -148.619193 
L 193.763549 -80.882303 
L 191.774245 -87.187473 
L 189.78494 -86.315202 
L 187.795635 -86.048728 
L 185.80633 -85.151161 
L 183.817025 -74.569393 
L 181.827721 -76.370388 
L 179.838416 -81.268569 
L 177.849111 -89.577478 
L 175.859806 -78.203531 
L 173.870501 -75.373277 
L 171.881197 -78.142057 
L 169.891892 -82.503591 
L 167.902587 -80.141604 
L 165.913282 -83.282946 
L 163.923977 -88.991489 
L 161.934672 -80.680413 
L 159.945368 -80.202649 
L 157.956063 -77.752005 
L 155.966758 -86.039822 
L 153.977453 -81.075286 
L 151.988148 -88.286443 
L 149.998844 -81.738996 
L 148.009539 -88.308793 
L 146.020234 -81.263719 
L 144.030929 -81.622279 
L 142.041624 -78.68223 
L 140.05232 -81.35794 
L 138.063015 -82.912716 
L 136.07371 -85.198996 
L 134.084405 -89.609957 
L 132.0951 -84.28371 
L 130.105795 -89.239828 
L 128.116491 -90.260747 
L 126.127186 -83.232185 
L 124.137881 -76.398359 
L 122.148576 -78.264316 
L 120.159271 -92.058282 
L 118.169967 -86.387684 
L 116.180662 -88.953624 
L 114.191357 -73.228148 
L 112.202052 -88.486767 
L 110.212747 -72.136514 
L 108.223443 -81.49815 
L 106.234138 -85.441144 
L 104.244833 -75.391155 
L 102.255528 -80.843324 
L 100.266223 -70.718792 
L 98.276918 -87.264995 
L 96.287614 -72.996407 
L 94.298309 -89.750143 
L 92.309004 -83.705454 
L 90.319699 -78.026939 
L 88.330394 -94.244321 
L 86.34109 -85.718344 
L 84.351785 -80.547408 
L 82.36248 -87.951665 
L 80.373175 -82.203431 
L 78.38387 -78.689435 
L 76.394566 -81.641212 
L 74.405261 -83.011503 
L 72.415956 -81.823664 
L 70.426651 -74.853716 
L 68.437346 -76.867171 
L 66.448041 -75.998237 
L 64.458737 -87.372976 
L 62.469432 -80.784699 
z
" style="stroke: #ffffff; stroke-opacity: 0.25"/>
    </defs>
    <g clip-path="url(#p68d4d9b302)">
     <use xlink:href="#m2922ee4688" x="0" y="285.716719" style="fill: #4c72b0; fill-opacity: 0.25; stroke: #ffffff; stroke-opacity: 0.25"/>
    </g>
   </g>
   <g id="line2d_13">
    <path d="M 62.469432 213.023632 
L 64.458737 204.681991 
L 66.448041 217.007899 
L 68.437346 214.833602 
L 70.426651 218.407267 
L 72.415956 209.719498 
L 74.405261 209.351869 
L 76.394566 213.170497 
L 78.38387 214.247017 
L 80.373175 211.534765 
L 82.36248 205.889937 
L 84.351785 212.203213 
L 86.34109 210.070968 
L 88.330394 198.872149 
L 90.319699 213.755799 
L 92.309004 210.738921 
L 94.298309 203.283455 
L 96.287614 218.623015 
L 98.276918 205.296575 
L 100.266223 223.201932 
L 102.255528 212.897992 
L 104.244833 216.049041 
L 106.234138 206.269355 
L 108.223443 211.032434 
L 110.212747 220.150768 
L 112.202052 203.843488 
L 114.191357 220.238699 
L 116.180662 205.815884 
L 118.169967 209.480224 
L 120.159271 200.19067 
L 122.148576 215.447514 
L 124.137881 218.352843 
L 126.127186 208.571917 
L 128.116491 202.236231 
L 130.105795 203.474401 
L 132.0951 207.540582 
L 134.084405 205.533509 
L 136.07371 207.874436 
L 138.063015 208.388768 
L 140.05232 212.670064 
L 142.041624 214.985356 
L 144.030929 210.704041 
L 146.020234 210.31924 
L 148.009539 206.238574 
L 149.998844 210.101261 
L 151.988148 204.288632 
L 153.977453 211.280046 
L 155.966758 206.825824 
L 157.956063 215.84888 
L 159.945368 212.790264 
L 161.934672 211.237837 
L 163.923977 204.085752 
L 165.913282 210.5722 
L 167.902587 213.424667 
L 169.891892 209.619263 
L 171.881197 216.447834 
L 173.870501 217.801529 
L 175.859806 213.559272 
L 177.849111 203.96243 
L 179.838416 211.87945 
L 181.827721 215.588509 
L 183.817025 218.183361 
L 185.80633 206.713805 
L 187.795635 207.780152 
L 189.78494 206.239683 
L 191.774245 205.778951 
L 193.763549 212.525624 
L 195.752854 145.188613 
L 197.742159 128.80541 
L 199.731464 118.5803 
L 201.720769 97.320292 
L 203.710074 91.268776 
L 205.699378 76.620827 
L 207.688683 60.324457 
L 209.677988 64.263004 
L 211.667293 41.508781 
L 213.656598 46.420688 
L 215.645902 43.156598 
L 217.635207 48.250271 
L 219.624512 58.130451 
L 221.613817 58.737932 
L 223.603122 61.81878 
L 225.592426 86.206356 
L 227.581731 108.035733 
L 229.571036 106.904456 
L 231.560341 118.845889 
L 235.538951 152.444718 
L 237.528255 164.226508 
L 239.51756 183.452759 
L 241.506865 180.074525 
L 243.49617 187.812425 
L 245.485475 188.063026 
L 247.474779 202.712485 
L 249.464084 201.336745 
L 251.453389 191.69794 
L 253.442694 209.77109 
L 255.431999 221.368379 
L 257.421303 208.861424 
L 259.410608 212.381174 
L 261.399913 216.452249 
L 263.389218 204.66733 
L 265.378523 217.633319 
L 267.367828 203.275634 
L 269.357132 216.698252 
L 271.346437 203.854481 
L 273.335742 214.830983 
L 275.325047 198.776097 
L 277.314352 207.311865 
L 279.303656 208.755789 
L 281.292961 219.959622 
L 283.282266 221.681524 
L 285.271571 221.49186 
L 287.260876 220.178369 
L 289.25018 213.196919 
L 291.239485 211.183986 
L 293.22879 212.82596 
L 295.218095 217.137645 
L 297.2074 207.661304 
L 299.196705 209.500457 
L 301.186009 204.010102 
L 303.175314 203.202111 
L 305.164619 204.062914 
L 307.153924 215.463042 
L 309.143229 211.418542 
L 311.132533 203.437131 
L 313.121838 202.01459 
L 317.100448 225.93754 
L 319.089753 210.681458 
L 321.079057 207.086614 
L 323.068362 214.014193 
L 325.057667 203.483604 
L 327.046972 201.18454 
L 329.036277 214.624453 
L 331.025582 215.140402 
L 333.014886 202.123496 
L 335.004191 213.437852 
L 336.993496 199.872054 
L 338.982801 211.490247 
L 340.972106 202.788477 
L 342.96141 227.536881 
L 344.950715 210.124002 
L 346.94002 209.381669 
L 348.929325 221.335101 
L 350.91863 217.208243 
L 352.907934 209.423273 
L 354.897239 196.141615 
L 356.886544 204.869386 
L 358.875849 202.495985 
L 360.865154 215.028666 
L 362.854459 214.46515 
L 364.843763 207.049994 
L 366.833068 213.839104 
L 366.833068 213.839104 
" clip-path="url(#p68d4d9b302)" style="fill: none; stroke: #4c72b0; stroke-width: 2; stroke-linecap: round"/>
   </g>
   <g id="patch_3">
    <path d="M 47.25125 243.695625 
L 47.25125 21.935625 
" style="fill: none; stroke: #cccccc; stroke-width: 1.25; stroke-linejoin: miter; stroke-linecap: square"/>
   </g>
   <g id="patch_4">
    <path d="M 382.05125 243.695625 
L 382.05125 21.935625 
" style="fill: none; stroke: #cccccc; stroke-width: 1.25; stroke-linejoin: miter; stroke-linecap: square"/>
   </g>
   <g id="patch_5">
    <path d="M 47.25125 243.695625 
L 382.05125 243.695625 
" style="fill: none; stroke: #cccccc; stroke-width: 1.25; stroke-linejoin: miter; stroke-linecap: square"/>
   </g>
   <g id="patch_6">
    <path d="M 47.25125 21.935625 
L 382.05125 21.935625 
" style="fill: none; stroke: #cccccc; stroke-width: 1.25; stroke-linejoin: miter; stroke-linecap: square"/>
   </g>
   <g id="text_15">
    <!-- Grand-average difference ERP (mean ± SEM) -->
    <g style="fill: #262626" transform="translate(92.190313 15.935625) scale(0.12 -0.12)">
     <defs>
      <path id="ArialMT-47" d="M 2638 1797 
L 2638 2334 
L 4578 2338 
L 4578 638 
Q 4131 281 3656 101 
Q 3181 -78 2681 -78 
Q 2006 -78 1454 211 
Q 903 500 622 1047 
Q 341 1594 341 2269 
Q 341 2938 620 3517 
Q 900 4097 1425 4378 
Q 1950 4659 2634 4659 
Q 3131 4659 3532 4498 
Q 3934 4338 4162 4050 
Q 4391 3763 4509 3300 
L 3963 3150 
Q 3859 3500 3706 3700 
Q 3553 3900 3268 4020 
Q 2984 4141 2638 4141 
Q 2222 4141 1919 4014 
Q 1616 3888 1430 3681 
Q 1244 3475 1141 3228 
Q 966 2803 966 2306 
Q 966 1694 1177 1281 
Q 1388 869 1791 669 
Q 2194 469 2647 469 
Q 3041 469 3416 620 
Q 3791 772 3984 944 
L 3984 1797 
L 2638 1797 
z
" transform="scale(0.015625)"/>
      <path id="ArialMT-72" d="M 416 0 
L 416 3319 
L 922 3319 
L 922 2816 
Q 1116 3169 1280 3281 
Q 1444 3394 1641 3394 
Q 1925 3394 2219 3213 
L 2025 2691 
Q 1819 2813 1613 2813 
Q 1428 2813 1281 2702 
Q 1134 2591 1072 2394 
Q 978 2094 978 1738 
L 978 0 
L 416 0 
z
" transform="scale(0.015625)"/>
      <path id="ArialMT-61" d="M 2588 409 
Q 2275 144 1986 34 
Q 1697 -75 1366 -75 
Q 819 -75 525 192 
Q 231 459 231 875 
Q 231 1119 342 1320 
Q 453 1522 633 1644 
Q 813 1766 1038 1828 
Q 1203 1872 1538 1913 
Q 2219 1994 2541 2106 
Q 2544 2222 2544 2253 
Q 2544 2597 2384 2738 
Q 2169 2928 1744 2928 
Q 1347 2928 1158 2789 
Q 969 2650 878 2297 
L 328 2372 
Q 403 2725 575 2942 
Q 747 3159 1072 3276 
Q 1397 3394 1825 3394 
Q 2250 3394 2515 3294 
Q 2781 3194 2906 3042 
Q 3031 2891 3081 2659 
Q 3109 2516 3109 2141 
L 3109 1391 
Q 3109 606 3145 398 
Q 3181 191 3288 0 
L 2700 0 
Q 2613 175 2588 409 
z
M 2541 1666 
Q 2234 1541 1622 1453 
Q 1275 1403 1131 1340 
Q 988 1278 909 1158 
Q 831 1038 831 891 
Q 831 666 1001 516 
Q 1172 366 1500 366 
Q 1825 366 2078 508 
Q 2331 650 2450 897 
Q 2541 1088 2541 1459 
L 2541 1666 
z
" transform="scale(0.015625)"/>
      <path id="ArialMT-6e" d="M 422 0 
L 422 3319 
L 928 3319 
L 928 2847 
Q 1294 3394 1984 3394 
Q 2284 3394 2536 3286 
Q 2788 3178 2913 3003 
Q 3038 2828 3088 2588 
Q 3119 2431 3119 2041 
L 3119 0 
L 2556 0 
L 2556 2019 
Q 2556 2363 2490 2533 
Q 2425 2703 2258 2804 
Q 2091 2906 1866 2906 
Q 1506 2906 1245 2678 
Q 984 2450 984 1813 
L 984 0 
L 422 0 
z
" transform="scale(0.015625)"/>
      <path id="ArialMT-2d" d="M 203 1375 
L 203 1941 
L 1931 1941 
L 1931 1375 
L 203 1375 
z
" transform="scale(0.015625)"/>
      <path id="ArialMT-76" d="M 1344 0 
L 81 3319 
L 675 3319 
L 1388 1331 
Q 1503 1009 1600 663 
Q 1675 925 1809 1294 
L 2547 3319 
L 3125 3319 
L 1869 0 
L 1344 0 
z
" transform="scale(0.015625)"/>
      <path id="ArialMT-67" d="M 319 -275 
L 866 -356 
Q 900 -609 1056 -725 
Q 1266 -881 1628 -881 
Q 2019 -881 2231 -725 
Q 2444 -569 2519 -288 
Q 2563 -116 2559 434 
Q 2191 0 1641 0 
Q 956 0 581 494 
Q 206 988 206 1678 
Q 206 2153 378 2554 
Q 550 2956 876 3175 
Q 1203 3394 1644 3394 
Q 2231 3394 2613 2919 
L 2613 3319 
L 3131 3319 
L 3131 450 
Q 3131 -325 2973 -648 
Q 2816 -972 2473 -1159 
Q 2131 -1347 1631 -1347 
Q 1038 -1347 672 -1080 
Q 306 -813 319 -275 
z
M 784 1719 
Q 784 1066 1043 766 
Q 1303 466 1694 466 
Q 2081 466 2343 764 
Q 2606 1063 2606 1700 
Q 2606 2309 2336 2618 
Q 2066 2928 1684 2928 
Q 1309 2928 1046 2623 
Q 784 2319 784 1719 
z
" transform="scale(0.015625)"/>
      <path id="ArialMT-66" d="M 556 0 
L 556 2881 
L 59 2881 
L 59 3319 
L 556 3319 
L 556 3672 
Q 556 4006 616 4169 
Q 697 4388 901 4523 
Q 1106 4659 1475 4659 
Q 1713 4659 2000 4603 
L 1916 4113 
Q 1741 4144 1584 4144 
Q 1328 4144 1222 4034 
Q 1116 3925 1116 3625 
L 1116 3319 
L 1763 3319 
L 1763 2881 
L 1116 2881 
L 1116 0 
L 556 0 
z
" transform="scale(0.015625)"/>
      <path id="ArialMT-63" d="M 2588 1216 
L 3141 1144 
Q 3050 572 2676 248 
Q 2303 -75 1759 -75 
Q 1078 -75 664 370 
Q 250 816 250 1647 
Q 250 2184 428 2587 
Q 606 2991 970 3192 
Q 1334 3394 1763 3394 
Q 2303 3394 2647 3120 
Q 2991 2847 3088 2344 
L 2541 2259 
Q 2463 2594 2264 2762 
Q 2066 2931 1784 2931 
Q 1359 2931 1093 2626 
Q 828 2322 828 1663 
Q 828 994 1084 691 
Q 1341 388 1753 388 
Q 2084 388 2306 591 
Q 2528 794 2588 1216 
z
" transform="scale(0.015625)"/>
      <path id="ArialMT-45" d="M 506 0 
L 506 4581 
L 3819 4581 
L 3819 4041 
L 1113 4041 
L 1113 2638 
L 3647 2638 
L 3647 2100 
L 1113 2100 
L 1113 541 
L 3925 541 
L 3925 0 
L 506 0 
z
" transform="scale(0.015625)"/>
      <path id="ArialMT-52" d="M 503 0 
L 503 4581 
L 2534 4581 
Q 3147 4581 3465 4457 
Q 3784 4334 3975 4021 
Q 4166 3709 4166 3331 
Q 4166 2844 3850 2509 
Q 3534 2175 2875 2084 
Q 3116 1969 3241 1856 
Q 3506 1613 3744 1247 
L 4541 0 
L 3778 0 
L 3172 953 
Q 2906 1366 2734 1584 
Q 2563 1803 2427 1890 
Q 2291 1978 2150 2013 
Q 2047 2034 1813 2034 
L 1109 2034 
L 1109 0 
L 503 0 
z
M 1109 2559 
L 2413 2559 
Q 2828 2559 3062 2645 
Q 3297 2731 3419 2920 
Q 3541 3109 3541 3331 
Q 3541 3656 3305 3865 
Q 3069 4075 2559 4075 
L 1109 4075 
L 1109 2559 
z
" transform="scale(0.015625)"/>
      <path id="ArialMT-50" d="M 494 0 
L 494 4581 
L 2222 4581 
Q 2678 4581 2919 4538 
Q 3256 4481 3484 4323 
Q 3713 4166 3852 3881 
Q 3991 3597 3991 3256 
Q 3991 2672 3619 2267 
Q 3247 1863 2275 1863 
L 1100 1863 
L 1100 0 
L 494 0 
z
M 1100 2403 
L 2284 2403 
Q 2872 2403 3119 2622 
Q 3366 2841 3366 3238 
Q 3366 3525 3220 3729 
Q 3075 3934 2838 4000 
Q 2684 4041 2272 4041 
L 1100 4041 
L 1100 2403 
z
" transform="scale(0.015625)"/>
      <path id="ArialMT-b1" d="M 1491 813 
L 1491 2072 
L 244 2072 
L 244 2594 
L 1491 2594 
L 1491 3841 
L 2022 3841 
L 2022 2594 
L 3269 2594 
L 3269 2072 
L 2022 2072 
L 2022 813 
L 1491 813 
z
M 3269 0 
L 244 0 
L 244 525 
L 3269 525 
L 3269 0 
z
" transform="scale(0.015625)"/>
      <path id="ArialMT-53" d="M 288 1472 
L 859 1522 
Q 900 1178 1048 958 
Q 1197 738 1509 602 
Q 1822 466 2213 466 
Q 2559 466 2825 569 
Q 3091 672 3220 851 
Q 3350 1031 3350 1244 
Q 3350 1459 3225 1620 
Q 3100 1781 2813 1891 
Q 2628 1963 1997 2114 
Q 1366 2266 1113 2400 
Q 784 2572 623 2826 
Q 463 3081 463 3397 
Q 463 3744 659 4045 
Q 856 4347 1234 4503 
Q 1613 4659 2075 4659 
Q 2584 4659 2973 4495 
Q 3363 4331 3572 4012 
Q 3781 3694 3797 3291 
L 3216 3247 
Q 3169 3681 2898 3903 
Q 2628 4125 2100 4125 
Q 1550 4125 1298 3923 
Q 1047 3722 1047 3438 
Q 1047 3191 1225 3031 
Q 1400 2872 2139 2705 
Q 2878 2538 3153 2413 
Q 3553 2228 3743 1945 
Q 3934 1663 3934 1294 
Q 3934 928 3725 604 
Q 3516 281 3123 101 
Q 2731 -78 2241 -78 
Q 1619 -78 1198 103 
Q 778 284 539 648 
Q 300 1013 288 1472 
z
" transform="scale(0.015625)"/>
      <path id="ArialMT-4d" d="M 475 0 
L 475 4581 
L 1388 4581 
L 2472 1338 
Q 2622 884 2691 659 
Q 2769 909 2934 1394 
L 4031 4581 
L 4847 4581 
L 4847 0 
L 4263 0 
L 4263 3834 
L 2931 0 
L 2384 0 
L 1059 3900 
L 1059 0 
L 475 0 
z
" transform="scale(0.015625)"/>
     </defs>
     <use xlink:href="#ArialMT-47"/>
     <use xlink:href="#ArialMT-72" transform="translate(77.783203 0)"/>
     <use xlink:href="#ArialMT-61" transform="translate(111.083984 0)"/>
     <use xlink:href="#ArialMT-6e" transform="translate(166.699219 0)"/>
     <use xlink:href="#ArialMT-64" transform="translate(222.314453 0)"/>
     <use xlink:href="#ArialMT-2d" transform="translate(277.929688 0)"/>
     <use xlink:href="#ArialMT-61" transform="translate(311.230469 0)"/>
     <use xlink:href="#ArialMT-76" transform="translate(366.845703 0)"/>
     <use xlink:href="#ArialMT-65" transform="translate(416.845703 0)"/>
     <use xlink:href="#ArialMT-72" transform="translate(472.460938 0)"/>
     <use xlink:href="#ArialMT-61" transform="translate(505.761719 0)"/>
     <use xlink:href="#ArialMT-67" transform="translate(561.376953 0)"/>
     <use xlink:href="#ArialMT-65" transform="translate(616.992188 0)"/>
     <use xlink:href="#ArialMT-20" transform="translate(672.607422 0)"/>
     <use xlink:href="#ArialMT-64" transform="translate(700.390625 0)"/>
     <use xlink:href="#ArialMT-69" transform="translate(756.005859 0)"/>
     <use xlink:href="#ArialMT-66" transform="translate(778.222656 0)"/>
     <use xlink:href="#ArialMT-66" transform="translate(804.255859 0)"/>
     <use xlink:href="#ArialMT-65" transform="translate(832.039062 0)"/>
     <use xlink:href="#ArialMT-72" transform="translate(887.654297 0)"/>
     <use xlink:href="#ArialMT-65" transform="translate(920.955078 0)"/>
     <use xlink:href="#ArialMT-6e" transform="translate(976.570312 0)"/>
     <use xlink:href="#ArialMT-63" transform="translate(1032.185547 0)"/>
     <use xlink:href="#ArialMT-65" transform="translate(1082.185547 0)"/>
     <use xlink:href="#ArialMT-20" transform="translate(1137.800781 0)"/>
     <use xlink:href="#ArialMT-45" transform="translate(1165.583984 0)"/>
     <use xlink:href="#ArialMT-52" transform="translate(1232.283203 0)"/>
     <use xlink:href="#ArialMT-50" transform="translate(1304.5 0)"/>
     <use xlink:href="#ArialMT-20" transform="translate(1369.449219 0)"/>
     <use xlink:href="#ArialMT-28" transform="translate(1397.232422 0)"/>
     <use xlink:href="#ArialMT-6d" transform="translate(1430.533203 0)"/>
     <use xlink:href="#ArialMT-65" transform="translate(1513.833984 0)"/>
     <use xlink:href="#ArialMT-61" transform="translate(1569.449219 0)"/>
     <use xlink:href="#ArialMT-6e" transform="translate(1625.064453 0)"/>
     <use xlink:href="#ArialMT-20" transform="translate(1680.679688 0)"/>
     <use xlink:href="#ArialMT-b1" transform="translate(1708.462891 0)"/>
     <use xlink:href="#ArialMT-20" transform="translate(1763.345703 0)"/>
     <use xlink:href="#ArialMT-53" transform="translate(1791.128906 0)"/>
     <use xlink:href="#ArialMT-45" transform="translate(1857.828125 0)"/>
     <use xlink:href="#ArialMT-4d" transform="translate(1924.527344 0)"/>
     <use xlink:href="#ArialMT-29" transform="translate(2007.828125 0)"/>
    </g>
   </g>
  </g>
 </g>
 <defs>
  <clipPath id="p68d4d9b302">
   <rect x="47.25125" y="21.935625" width="334.8" height="221.76"/>
  </clipPath>
 </defs>
</svg>
