<?xml version="1.0" encoding="utf-8" standalone="no"?>
<!DOCTYPE svg PUBLIC "-//W3C//DTD SVG 1.1//EN"
  "http://www.w3.org/Graphics/SVG/1.1/DTD/svg11.dtd">
<svg xmlns:xlink="http://www.w3.org/1999/xlink" width="414.219976pt" height="422.849844pt" viewBox="0 0 414.219976 422.849844" xmlns="http://www.w3.org/2000/svg" version="1.1">
 <metadata>
  <rdf:RDF xmlns:dc="http://purl.org/dc/elements/1.1/" xmlns:cc="http://creativecommons.org/ns#" xmlns:rdf="http://www.w3.org/1999/02/22-rdf-syntax-ns#">
   <cc:Work>
    <dc:type rdf:resource="http://purl.org/dc/dcmitype/StillImage"/>
    <dc:date>2026-01-04T21:49:27.729834</dc:date>
    <dc:format>image/svg+xml</dc:format>
    <dc:creator>
     <cc:Agent>
      <dc:title>Matplotlib v3.10.3, https://matplotlib.org/</dc:title>
     </cc:Agent>
    </dc:creator>
   </cc:Work>
  </rdf:RDF>
 </metadata>
 <defs>
  <style type="text/css">*{stroke-linejoin: round; stroke-linecap: butt}</style>
 </defs>
 <g id="figure_1">
  <g id="patch_1">
   <path d="M 0 422.849844 
L 414.219976 422.849844 
L 414.219976 0 
L 0 0 
z
" style="fill: #ffffff"/>
  </g>
  <g id="axes_1">
   <g id="patch_2">
    <path d="M 45.716875 383.357969 
L 405.996875 383.357969 
L 405.996875 23.077969 
L 45.716875 23.077969 
z
" style="fill: #ffffff"/>
   </g>
   <g id="FillBetweenPolyCollection_1">
    <defs>
     <path id="m3b28cc2abf" d="M 52.645337 -46.420337 
L 52.645337 -46.420337 
L 56.14456 -46.420337 
L 59.643783 -46.420337 
L 63.143006 -46.420337 
L 66.642229 -46.420337 
L 70.141452 -46.420337 
L 73.640675 -46.420337 
L 77.139898 -46.420337 
L 80.639121 -46.420337 
L 84.138344 -51.856778 
L 87.637567 -60.561709 
L 91.13679 -66.834108 
L 94.636013 -75.012447 
L 98.135236 -71.547586 
L 101.634459 -74.543004 
L 105.133682 -76.026632 
L 108.632905 -79.042697 
L 112.132128 -80.013961 
L 115.631351 -85.310709 
L 119.130574 -88.987045 
L 122.629797 -101.36715 
L 126.12902 -102.308661 
L 129.628243 -106.617274 
L 133.127466 -106.617274 
L 136.626689 -110.851017 
L 140.125912 -119.123322 
L 143.625135 -121.740963 
L 147.124358 -124.939514 
L 150.623581 -124.939514 
L 154.122804 -128.061512 
L 157.622027 -134.044577 
L 161.12125 -144.727547 
L 164.620473 -144.727547 
L 168.119696 -147.711276 
L 171.618919 -147.711276 
L 175.118142 -156.781294 
L 178.617365 -159.005664 
L 182.116588 -161.029389 
L 185.615811 -164.134511 
L 189.115034 -165.548368 
L 192.614257 -166.514735 
L 196.11348 -171.60319 
L 199.612703 -175.048039 
L 203.111926 -175.048039 
L 206.611149 -174.538156 
L 210.110372 -174.538156 
L 213.609595 -174.538156 
L 217.108818 -174.538156 
L 220.608041 -175.226906 
L 224.107264 -176.318421 
L 227.606486 -176.318421 
L 231.105709 -178.624858 
L 234.604932 -180.339292 
L 238.104155 -182.149903 
L 241.603378 -199.08477 
L 245.102601 -207.673298 
L 248.601824 -207.673298 
L 252.101047 -219.455351 
L 255.60027 -221.229824 
L 259.099493 -230.724694 
L 262.598716 -242.267621 
L 266.097939 -244.846313 
L 269.597162 -257.679083 
L 273.096385 -257.679083 
L 276.595608 -259.149303 
L 280.094831 -260.114713 
L 283.594054 -261.886733 
L 287.093277 -261.886733 
L 290.5925 -261.886733 
L 294.091723 -261.20205 
L 297.590946 -261.20205 
L 301.090169 -267.463594 
L 304.589392 -268.390484 
L 308.088615 -268.390484 
L 311.587838 -270.342932 
L 315.087061 -270.342932 
L 318.586284 -270.342932 
L 322.085507 -270.342932 
L 325.58473 -273.11314 
L 329.083953 -273.11314 
L 332.583176 -280.5664 
L 336.082399 -286.519177 
L 339.581622 -287.883903 
L 343.080845 -299.424088 
L 346.580068 -305.482014 
L 350.079291 -307.227527 
L 353.578514 -307.227527 
L 357.077737 -307.227527 
L 360.57696 -307.227527 
L 364.076183 -310.335269 
L 367.575406 -315.877166 
L 371.074629 -328.103786 
L 374.573852 -328.103786 
L 378.073075 -337.686582 
L 381.572298 -337.686582 
L 385.071521 -345.374848 
L 388.570744 -361.581357 
L 392.069967 -369.833445 
L 395.56919 -369.833445 
L 399.068413 -392.843413 
L 399.068413 -392.843413 
L 399.068413 -392.843413 
L 395.56919 -392.843413 
L 392.069967 -392.843413 
L 388.570744 -392.843413 
L 385.071521 -392.843413 
L 381.572298 -392.843413 
L 378.073075 -392.843413 
L 374.573852 -392.843413 
L 371.074629 -392.843413 
L 367.575406 -392.843413 
L 364.076183 -392.843413 
L 360.57696 -392.843413 
L 357.077737 -392.843413 
L 353.578514 -392.843413 
L 350.079291 -392.843413 
L 346.580068 -392.843413 
L 343.080845 -392.843413 
L 339.581622 -389.943124 
L 336.082399 -385.534132 
L 332.583176 -382.24896 
L 329.083953 -379.309528 
L 325.58473 -379.309528 
L 322.085507 -377.130835 
L 318.586284 -377.130835 
L 315.087061 -377.130835 
L 311.587838 -377.130835 
L 308.088615 -374.752995 
L 304.589392 -374.752995 
L 301.090169 -367.581682 
L 297.590946 -357.965502 
L 294.091723 -357.965502 
L 290.5925 -352.331918 
L 287.093277 -352.331918 
L 283.594054 -352.331918 
L 280.094831 -349.155037 
L 276.595608 -345.790159 
L 273.096385 -342.311477 
L 269.597162 -342.311477 
L 266.097939 -345.865058 
L 262.598716 -344.113462 
L 259.099493 -341.799466 
L 255.60027 -330.46771 
L 252.101047 -327.911895 
L 248.601824 -326.151955 
L 245.102601 -326.151955 
L 241.603378 -322.930605 
L 238.104155 -321.389574 
L 234.604932 -318.251285 
L 231.105709 -315.016817 
L 227.606486 -312.992966 
L 224.107264 -312.992966 
L 220.608041 -307.156019 
L 217.108818 -303.514481 
L 213.609595 -303.514481 
L 210.110372 -303.514481 
L 206.611149 -303.514481 
L 203.111926 -294.344021 
L 199.612703 -294.344021 
L 196.11348 -293.458582 
L 192.614257 -289.88646 
L 189.115034 -287.703526 
L 185.615811 -285.653152 
L 182.116588 -278.654268 
L 178.617365 -271.398803 
L 175.118142 -268.674272 
L 171.618919 -253.412193 
L 168.119696 -253.412193 
L 164.620473 -245.137172 
L 161.12125 -245.137172 
L 157.622027 -248.89168 
L 154.122804 -245.636797 
L 150.623581 -243.809894 
L 147.124358 -243.809894 
L 143.625135 -242.678156 
L 140.125912 -237.501278 
L 136.626689 -227.215204 
L 133.127466 -227.118658 
L 129.628243 -227.118658 
L 126.12902 -224.49881 
L 122.629797 -219.141719 
L 119.130574 -214.489357 
L 115.631351 -212.391974 
L 112.132128 -203.254428 
L 108.632905 -200.761461 
L 105.133682 -197.478924 
L 101.634459 -194.632264 
L 98.135236 -192.678781 
L 94.636013 -184.265019 
L 91.13679 -178.215268 
L 87.637567 -172.362858 
L 84.138344 -170.963784 
L 80.639121 -160.121911 
L 77.139898 -156.750257 
L 73.640675 -133.639644 
L 70.141452 -126.744106 
L 66.642229 -114.755923 
L 63.143006 -107.430472 
L 59.643783 -82.991954 
L 56.14456 -65.060775 
L 52.645337 -46.420337 
z
" style="stroke: #0000ff; stroke-opacity: 0.2"/>
    </defs>
    <g clip-path="url(#p742c4bcabf)">
     <use xlink:href="#m3b28cc2abf" x="0" y="422.849844" style="fill: #0000ff; fill-opacity: 0.2; stroke: #0000ff; stroke-opacity: 0.2"/>
    </g>
   </g>
   <g id="matplotlib.axis_1">
    <g id="xtick_1">
     <g id="line2d_1">
      <path d="M 52.645337 383.357969 
L 52.645337 23.077969 
" clip-path="url(#p742c4bcabf)" style="fill: none; stroke: #b0b0b0; stroke-opacity: 0.3; stroke-width: 0.8; stroke-linecap: square"/>
     </g>
     <g id="line2d_2">
      <defs>
       <path id="m0057e4a9b0" d="M 0 0 
L 0 3.5 
" style="stroke: #000000; stroke-width: 0.8"/>
      </defs>
      <g>
       <use xlink:href="#m0057e4a9b0" x="52.645337" y="383.357969" style="stroke: #000000; stroke-width: 0.8"/>
      </g>
     </g>
     <g id="text_1">
      <!-- 0.0 -->
      <g transform="translate(44.693774 397.956406) scale(0.1 -0.1)">
       <defs>
        <path id="DejaVuSans-30" d="M 2034 4250 
Q 1547 4250 1301 3770 
Q 1056 3291 1056 2328 
Q 1056 1369 1301 889 
Q 1547 409 2034 409 
Q 2525 409 2770 889 
Q 3016 1369 3016 2328 
Q 3016 3291 2770 3770 
Q 2525 4250 2034 4250 
z
M 2034 4750 
Q 2819 4750 3233 4129 
Q 3647 3509 3647 2328 
Q 3647 1150 3233 529 
Q 2819 -91 2034 -91 
Q 1250 -91 836 529 
Q 422 1150 422 2328 
Q 422 3509 836 4129 
Q 1250 4750 2034 4750 
z
" transform="scale(0.015625)"/>
        <path id="DejaVuSans-2e" d="M 684 794 
L 1344 794 
L 1344 0 
L 684 0 
L 684 794 
z
" transform="scale(0.015625)"/>
       </defs>
       <use xlink:href="#DejaVuSans-30"/>
       <use xlink:href="#DejaVuSans-2e" transform="translate(63.623047 0)"/>
       <use xlink:href="#DejaVuSans-30" transform="translate(95.410156 0)"/>
      </g>
     </g>
    </g>
    <g id="xtick_2">
     <g id="line2d_3">
      <path d="M 121.929952 383.357969 
L 121.929952 23.077969 
" clip-path="url(#p742c4bcabf)" style="fill: none; stroke: #b0b0b0; stroke-opacity: 0.3; stroke-width: 0.8; stroke-linecap: square"/>
     </g>
     <g id="line2d_4">
      <g>
       <use xlink:href="#m0057e4a9b0" x="121.929952" y="383.357969" style="stroke: #000000; stroke-width: 0.8"/>
      </g>
     </g>
     <g id="text_2">
      <!-- 0.2 -->
      <g transform="translate(113.978389 397.956406) scale(0.1 -0.1)">
       <defs>
        <path id="DejaVuSans-32" d="M 1228 531 
L 3431 531 
L 3431 0 
L 469 0 
L 469 531 
Q 828 903 1448 1529 
Q 2069 2156 2228 2338 
Q 2531 2678 2651 2914 
Q 2772 3150 2772 3378 
Q 2772 3750 2511 3984 
Q 2250 4219 1831 4219 
Q 1534 4219 1204 4116 
Q 875 4013 500 3803 
L 500 4441 
Q 881 4594 1212 4672 
Q 1544 4750 1819 4750 
Q 2544 4750 2975 4387 
Q 3406 4025 3406 3419 
Q 3406 3131 3298 2873 
Q 3191 2616 2906 2266 
Q 2828 2175 2409 1742 
Q 1991 1309 1228 531 
z
" transform="scale(0.015625)"/>
       </defs>
       <use xlink:href="#DejaVuSans-30"/>
       <use xlink:href="#DejaVuSans-2e" transform="translate(63.623047 0)"/>
       <use xlink:href="#DejaVuSans-32" transform="translate(95.410156 0)"/>
      </g>
     </g>
    </g>
    <g id="xtick_3">
     <g id="line2d_5">
      <path d="M 191.214567 383.357969 
L 191.214567 23.077969 
" clip-path="url(#p742c4bcabf)" style="fill: none; stroke: #b0b0b0; stroke-opacity: 0.3; stroke-width: 0.8; stroke-linecap: square"/>
     </g>
     <g id="line2d_6">
      <g>
       <use xlink:href="#m0057e4a9b0" x="191.214567" y="383.357969" style="stroke: #000000; stroke-width: 0.8"/>
      </g>
     </g>
     <g id="text_3">
      <!-- 0.4 -->
      <g transform="translate(183.263005 397.956406) scale(0.1 -0.1)">
       <defs>
        <path id="DejaVuSans-34" d="M 2419 4116 
L 825 1625 
L 2419 1625 
L 2419 4116 
z
M 2253 4666 
L 3047 4666 
L 3047 1625 
L 3713 1625 
L 3713 1100 
L 3047 1100 
L 3047 0 
L 2419 0 
L 2419 1100 
L 313 1100 
L 313 1709 
L 2253 4666 
z
" transform="scale(0.015625)"/>
       </defs>
       <use xlink:href="#DejaVuSans-30"/>
       <use xlink:href="#DejaVuSans-2e" transform="translate(63.623047 0)"/>
       <use xlink:href="#DejaVuSans-34" transform="translate(95.410156 0)"/>
      </g>
     </g>
    </g>
    <g id="xtick_4">
     <g id="line2d_7">
      <path d="M 260.499183 383.357969 
L 260.499183 23.077969 
" clip-path="url(#p742c4bcabf)" style="fill: none; stroke: #b0b0b0; stroke-opacity: 0.3; stroke-width: 0.8; stroke-linecap: square"/>
     </g>
     <g id="line2d_8">
      <g>
       <use xlink:href="#m0057e4a9b0" x="260.499183" y="383.357969" style="stroke: #000000; stroke-width: 0.8"/>
      </g>
     </g>
     <g id="text_4">
      <!-- 0.6 -->
      <g transform="translate(252.54762 397.956406) scale(0.1 -0.1)">
       <defs>
        <path id="DejaVuSans-36" d="M 2113 2584 
Q 1688 2584 1439 2293 
Q 1191 2003 1191 1497 
Q 1191 994 1439 701 
Q 1688 409 2113 409 
Q 2538 409 2786 701 
Q 3034 994 3034 1497 
Q 3034 2003 2786 2293 
Q 2538 2584 2113 2584 
z
M 3366 4563 
L 3366 3988 
Q 3128 4100 2886 4159 
Q 2644 4219 2406 4219 
Q 1781 4219 1451 3797 
Q 1122 3375 1075 2522 
Q 1259 2794 1537 2939 
Q 1816 3084 2150 3084 
Q 2853 3084 3261 2657 
Q 3669 2231 3669 1497 
Q 3669 778 3244 343 
Q 2819 -91 2113 -91 
Q 1303 -91 875 529 
Q 447 1150 447 2328 
Q 447 3434 972 4092 
Q 1497 4750 2381 4750 
Q 2619 4750 2861 4703 
Q 3103 4656 3366 4563 
z
" transform="scale(0.015625)"/>
       </defs>
       <use xlink:href="#DejaVuSans-30"/>
       <use xlink:href="#DejaVuSans-2e" transform="translate(63.623047 0)"/>
       <use xlink:href="#DejaVuSans-36" transform="translate(95.410156 0)"/>
      </g>
     </g>
    </g>
    <g id="xtick_5">
     <g id="line2d_9">
      <path d="M 329.783798 383.357969 
L 329.783798 23.077969 
" clip-path="url(#p742c4bcabf)" style="fill: none; stroke: #b0b0b0; stroke-opacity: 0.3; stroke-width: 0.8; stroke-linecap: square"/>
     </g>
     <g id="line2d_10">
      <g>
       <use xlink:href="#m0057e4a9b0" x="329.783798" y="383.357969" style="stroke: #000000; stroke-width: 0.8"/>
      </g>
     </g>
     <g id="text_5">
      <!-- 0.8 -->
      <g transform="translate(321.832236 397.956406) scale(0.1 -0.1)">
       <defs>
        <path id="DejaVuSans-38" d="M 2034 2216 
Q 1584 2216 1326 1975 
Q 1069 1734 1069 1313 
Q 1069 891 1326 650 
Q 1584 409 2034 409 
Q 2484 409 2743 651 
Q 3003 894 3003 1313 
Q 3003 1734 2745 1975 
Q 2488 2216 2034 2216 
z
M 1403 2484 
Q 997 2584 770 2862 
Q 544 3141 544 3541 
Q 544 4100 942 4425 
Q 1341 4750 2034 4750 
Q 2731 4750 3128 4425 
Q 3525 4100 3525 3541 
Q 3525 3141 3298 2862 
Q 3072 2584 2669 2484 
Q 3125 2378 3379 2068 
Q 3634 1759 3634 1313 
Q 3634 634 3220 271 
Q 2806 -91 2034 -91 
Q 1263 -91 848 271 
Q 434 634 434 1313 
Q 434 1759 690 2068 
Q 947 2378 1403 2484 
z
M 1172 3481 
Q 1172 3119 1398 2916 
Q 1625 2713 2034 2713 
Q 2441 2713 2670 2916 
Q 2900 3119 2900 3481 
Q 2900 3844 2670 4047 
Q 2441 4250 2034 4250 
Q 1625 4250 1398 4047 
Q 1172 3844 1172 3481 
z
" transform="scale(0.015625)"/>
       </defs>
       <use xlink:href="#DejaVuSans-30"/>
       <use xlink:href="#DejaVuSans-2e" transform="translate(63.623047 0)"/>
       <use xlink:href="#DejaVuSans-38" transform="translate(95.410156 0)"/>
      </g>
     </g>
    </g>
    <g id="xtick_6">
     <g id="line2d_11">
      <path d="M 399.068413 383.357969 
L 399.068413 23.077969 
" clip-path="url(#p742c4bcabf)" style="fill: none; stroke: #b0b0b0; stroke-opacity: 0.3; stroke-width: 0.8; stroke-linecap: square"/>
     </g>
     <g id="line2d_12">
      <g>
       <use xlink:href="#m0057e4a9b0" x="399.068413" y="383.357969" style="stroke: #000000; stroke-width: 0.8"/>
      </g>
     </g>
     <g id="text_6">
      <!-- 1.0 -->
      <g transform="translate(391.116851 397.956406) scale(0.1 -0.1)">
       <defs>
        <path id="DejaVuSans-31" d="M 794 531 
L 1825 531 
L 1825 4091 
L 703 3866 
L 703 4441 
L 1819 4666 
L 2450 4666 
L 2450 531 
L 3481 531 
L 3481 0 
L 794 0 
L 794 531 
z
" transform="scale(0.015625)"/>
       </defs>
       <use xlink:href="#DejaVuSans-31"/>
       <use xlink:href="#DejaVuSans-2e" transform="translate(63.623047 0)"/>
       <use xlink:href="#DejaVuSans-30" transform="translate(95.410156 0)"/>
      </g>
     </g>
    </g>
    <g id="text_7">
     <!-- False Positive Rate -->
     <g transform="translate(170.097188 413.154219) scale(0.12 -0.12)">
      <defs>
       <path id="DejaVuSans-46" d="M 628 4666 
L 3309 4666 
L 3309 4134 
L 1259 4134 
L 1259 2759 
L 3109 2759 
L 3109 2228 
L 1259 2228 
L 1259 0 
L 628 0 
L 628 4666 
z
" transform="scale(0.015625)"/>
       <path id="DejaVuSans-61" d="M 2194 1759 
Q 1497 1759 1228 1600 
Q 959 1441 959 1056 
Q 959 750 1161 570 
Q 1363 391 1709 391 
Q 2188 391 2477 730 
Q 2766 1069 2766 1631 
L 2766 1759 
L 2194 1759 
z
M 3341 1997 
L 3341 0 
L 2766 0 
L 2766 531 
Q 2569 213 2275 61 
Q 1981 -91 1556 -91 
Q 1019 -91 701 211 
Q 384 513 384 1019 
Q 384 1609 779 1909 
Q 1175 2209 1959 2209 
L 2766 2209 
L 2766 2266 
Q 2766 2663 2505 2880 
Q 2244 3097 1772 3097 
Q 1472 3097 1187 3025 
Q 903 2953 641 2809 
L 641 3341 
Q 956 3463 1253 3523 
Q 1550 3584 1831 3584 
Q 2591 3584 2966 3190 
Q 3341 2797 3341 1997 
z
" transform="scale(0.015625)"/>
       <path id="DejaVuSans-6c" d="M 603 4863 
L 1178 4863 
L 1178 0 
L 603 0 
L 603 4863 
z
" transform="scale(0.015625)"/>
       <path id="DejaVuSans-73" d="M 2834 3397 
L 2834 2853 
Q 2591 2978 2328 3040 
Q 2066 3103 1784 3103 
Q 1356 3103 1142 2972 
Q 928 2841 928 2578 
Q 928 2378 1081 2264 
Q 1234 2150 1697 2047 
L 1894 2003 
Q 2506 1872 2764 1633 
Q 3022 1394 3022 966 
Q 3022 478 2636 193 
Q 2250 -91 1575 -91 
Q 1294 -91 989 -36 
Q 684 19 347 128 
L 347 722 
Q 666 556 975 473 
Q 1284 391 1588 391 
Q 1994 391 2212 530 
Q 2431 669 2431 922 
Q 2431 1156 2273 1281 
Q 2116 1406 1581 1522 
L 1381 1569 
Q 847 1681 609 1914 
Q 372 2147 372 2553 
Q 372 3047 722 3315 
Q 1072 3584 1716 3584 
Q 2034 3584 2315 3537 
Q 2597 3491 2834 3397 
z
" transform="scale(0.015625)"/>
       <path id="DejaVuSans-65" d="M 3597 1894 
L 3597 1613 
L 953 1613 
Q 991 1019 1311 708 
Q 1631 397 2203 397 
Q 2534 397 2845 478 
Q 3156 559 3463 722 
L 3463 178 
Q 3153 47 2828 -22 
Q 2503 -91 2169 -91 
Q 1331 -91 842 396 
Q 353 884 353 1716 
Q 353 2575 817 3079 
Q 1281 3584 2069 3584 
Q 2775 3584 3186 3129 
Q 3597 2675 3597 1894 
z
M 3022 2063 
Q 3016 2534 2758 2815 
Q 2500 3097 2075 3097 
Q 1594 3097 1305 2825 
Q 1016 2553 972 2059 
L 3022 2063 
z
" transform="scale(0.015625)"/>
       <path id="DejaVuSans-20" transform="scale(0.015625)"/>
       <path id="DejaVuSans-50" d="M 1259 4147 
L 1259 2394 
L 2053 2394 
Q 2494 2394 2734 2622 
Q 2975 2850 2975 3272 
Q 2975 3691 2734 3919 
Q 2494 4147 2053 4147 
L 1259 4147 
z
M 628 4666 
L 2053 4666 
Q 2838 4666 3239 4311 
Q 3641 3956 3641 3272 
Q 3641 2581 3239 2228 
Q 2838 1875 2053 1875 
L 1259 1875 
L 1259 0 
L 628 0 
L 628 4666 
z
" transform="scale(0.015625)"/>
       <path id="DejaVuSans-6f" d="M 1959 3097 
Q 1497 3097 1228 2736 
Q 959 2375 959 1747 
Q 959 1119 1226 758 
Q 1494 397 1959 397 
Q 2419 397 2687 759 
Q 2956 1122 2956 1747 
Q 2956 2369 2687 2733 
Q 2419 3097 1959 3097 
z
M 1959 3584 
Q 2709 3584 3137 3096 
Q 3566 2609 3566 1747 
Q 3566 888 3137 398 
Q 2709 -91 1959 -91 
Q 1206 -91 779 398 
Q 353 888 353 1747 
Q 353 2609 779 3096 
Q 1206 3584 1959 3584 
z
" transform="scale(0.015625)"/>
       <path id="DejaVuSans-69" d="M 603 3500 
L 1178 3500 
L 1178 0 
L 603 0 
L 603 3500 
z
M 603 4863 
L 1178 4863 
L 1178 4134 
L 603 4134 
L 603 4863 
z
" transform="scale(0.015625)"/>
       <path id="DejaVuSans-74" d="M 1172 4494 
L 1172 3500 
L 2356 3500 
L 2356 3053 
L 1172 3053 
L 1172 1153 
Q 1172 725 1289 603 
Q 1406 481 1766 481 
L 2356 481 
L 2356 0 
L 1766 0 
Q 1100 0 847 248 
Q 594 497 594 1153 
L 594 3053 
L 172 3053 
L 172 3500 
L 594 3500 
L 594 4494 
L 1172 4494 
z
" transform="scale(0.015625)"/>
       <path id="DejaVuSans-76" d="M 191 3500 
L 800 3500 
L 1894 563 
L 2988 3500 
L 3597 3500 
L 2284 0 
L 1503 0 
L 191 3500 
z
" transform="scale(0.015625)"/>
       <path id="DejaVuSans-52" d="M 2841 2188 
Q 3044 2119 3236 1894 
Q 3428 1669 3622 1275 
L 4263 0 
L 3584 0 
L 2988 1197 
Q 2756 1666 2539 1819 
Q 2322 1972 1947 1972 
L 1259 1972 
L 1259 0 
L 628 0 
L 628 4666 
L 2053 4666 
Q 2853 4666 3247 4331 
Q 3641 3997 3641 3322 
Q 3641 2881 3436 2590 
Q 3231 2300 2841 2188 
z
M 1259 4147 
L 1259 2491 
L 2053 2491 
Q 2509 2491 2742 2702 
Q 2975 2913 2975 3322 
Q 2975 3731 2742 3939 
Q 2509 4147 2053 4147 
L 1259 4147 
z
" transform="scale(0.015625)"/>
      </defs>
      <use xlink:href="#DejaVuSans-46"/>
      <use xlink:href="#DejaVuSans-61" transform="translate(48.394531 0)"/>
      <use xlink:href="#DejaVuSans-6c" transform="translate(109.673828 0)"/>
      <use xlink:href="#DejaVuSans-73" transform="translate(137.457031 0)"/>
      <use xlink:href="#DejaVuSans-65" transform="translate(189.556641 0)"/>
      <use xlink:href="#DejaVuSans-20" transform="translate(251.080078 0)"/>
      <use xlink:href="#DejaVuSans-50" transform="translate(282.867188 0)"/>
      <use xlink:href="#DejaVuSans-6f" transform="translate(339.544922 0)"/>
      <use xlink:href="#DejaVuSans-73" transform="translate(400.726562 0)"/>
      <use xlink:href="#DejaVuSans-69" transform="translate(452.826172 0)"/>
      <use xlink:href="#DejaVuSans-74" transform="translate(480.609375 0)"/>
      <use xlink:href="#DejaVuSans-69" transform="translate(519.818359 0)"/>
      <use xlink:href="#DejaVuSans-76" transform="translate(547.601562 0)"/>
      <use xlink:href="#DejaVuSans-65" transform="translate(606.78125 0)"/>
      <use xlink:href="#DejaVuSans-20" transform="translate(668.304688 0)"/>
      <use xlink:href="#DejaVuSans-52" transform="translate(700.091797 0)"/>
      <use xlink:href="#DejaVuSans-61" transform="translate(767.324219 0)"/>
      <use xlink:href="#DejaVuSans-74" transform="translate(828.603516 0)"/>
      <use xlink:href="#DejaVuSans-65" transform="translate(867.8125 0)"/>
     </g>
    </g>
   </g>
   <g id="matplotlib.axis_2">
    <g id="ytick_1">
     <g id="line2d_13">
      <path d="M 45.716875 376.429507 
L 405.996875 376.429507 
" clip-path="url(#p742c4bcabf)" style="fill: none; stroke: #b0b0b0; stroke-opacity: 0.3; stroke-width: 0.8; stroke-linecap: square"/>
     </g>
     <g id="line2d_14">
      <defs>
       <path id="mc4efe68311" d="M 0 0 
L -3.5 0 
" style="stroke: #000000; stroke-width: 0.8"/>
      </defs>
      <g>
       <use xlink:href="#mc4efe68311" x="45.716875" y="376.429507" style="stroke: #000000; stroke-width: 0.8"/>
      </g>
     </g>
     <g id="text_8">
      <!-- 0.0 -->
      <g transform="translate(22.81375 380.228726) scale(0.1 -0.1)">
       <use xlink:href="#DejaVuSans-30"/>
       <use xlink:href="#DejaVuSans-2e" transform="translate(63.623047 0)"/>
       <use xlink:href="#DejaVuSans-30" transform="translate(95.410156 0)"/>
      </g>
     </g>
    </g>
    <g id="ytick_2">
     <g id="line2d_15">
      <path d="M 45.716875 307.144892 
L 405.996875 307.144892 
" clip-path="url(#p742c4bcabf)" style="fill: none; stroke: #b0b0b0; stroke-opacity: 0.3; stroke-width: 0.8; stroke-linecap: square"/>
     </g>
     <g id="line2d_16">
      <g>
       <use xlink:href="#mc4efe68311" x="45.716875" y="307.144892" style="stroke: #000000; stroke-width: 0.8"/>
      </g>
     </g>
     <g id="text_9">
      <!-- 0.2 -->
      <g transform="translate(22.81375 310.944111) scale(0.1 -0.1)">
       <use xlink:href="#DejaVuSans-30"/>
       <use xlink:href="#DejaVuSans-2e" transform="translate(63.623047 0)"/>
       <use xlink:href="#DejaVuSans-32" transform="translate(95.410156 0)"/>
      </g>
     </g>
    </g>
    <g id="ytick_3">
     <g id="line2d_17">
      <path d="M 45.716875 237.860276 
L 405.996875 237.860276 
" clip-path="url(#p742c4bcabf)" style="fill: none; stroke: #b0b0b0; stroke-opacity: 0.3; stroke-width: 0.8; stroke-linecap: square"/>
     </g>
     <g id="line2d_18">
      <g>
       <use xlink:href="#mc4efe68311" x="45.716875" y="237.860276" style="stroke: #000000; stroke-width: 0.8"/>
      </g>
     </g>
     <g id="text_10">
      <!-- 0.4 -->
      <g transform="translate(22.81375 241.659495) scale(0.1 -0.1)">
       <use xlink:href="#DejaVuSans-30"/>
       <use xlink:href="#DejaVuSans-2e" transform="translate(63.623047 0)"/>
       <use xlink:href="#DejaVuSans-34" transform="translate(95.410156 0)"/>
      </g>
     </g>
    </g>
    <g id="ytick_4">
     <g id="line2d_19">
      <path d="M 45.716875 168.575661 
L 405.996875 168.575661 
" clip-path="url(#p742c4bcabf)" style="fill: none; stroke: #b0b0b0; stroke-opacity: 0.3; stroke-width: 0.8; stroke-linecap: square"/>
     </g>
     <g id="line2d_20">
      <g>
       <use xlink:href="#mc4efe68311" x="45.716875" y="168.575661" style="stroke: #000000; stroke-width: 0.8"/>
      </g>
     </g>
     <g id="text_11">
      <!-- 0.6 -->
      <g transform="translate(22.81375 172.37488) scale(0.1 -0.1)">
       <use xlink:href="#DejaVuSans-30"/>
       <use xlink:href="#DejaVuSans-2e" transform="translate(63.623047 0)"/>
       <use xlink:href="#DejaVuSans-36" transform="translate(95.410156 0)"/>
      </g>
     </g>
    </g>
    <g id="ytick_5">
     <g id="line2d_21">
      <path d="M 45.716875 99.291046 
L 405.996875 99.291046 
" clip-path="url(#p742c4bcabf)" style="fill: none; stroke: #b0b0b0; stroke-opacity: 0.3; stroke-width: 0.8; stroke-linecap: square"/>
     </g>
     <g id="line2d_22">
      <g>
       <use xlink:href="#mc4efe68311" x="45.716875" y="99.291046" style="stroke: #000000; stroke-width: 0.8"/>
      </g>
     </g>
     <g id="text_12">
      <!-- 0.8 -->
      <g transform="translate(22.81375 103.090264) scale(0.1 -0.1)">
       <use xlink:href="#DejaVuSans-30"/>
       <use xlink:href="#DejaVuSans-2e" transform="translate(63.623047 0)"/>
       <use xlink:href="#DejaVuSans-38" transform="translate(95.410156 0)"/>
      </g>
     </g>
    </g>
    <g id="ytick_6">
     <g id="line2d_23">
      <path d="M 45.716875 30.00643 
L 405.996875 30.00643 
" clip-path="url(#p742c4bcabf)" style="fill: none; stroke: #b0b0b0; stroke-opacity: 0.3; stroke-width: 0.8; stroke-linecap: square"/>
     </g>
     <g id="line2d_24">
      <g>
       <use xlink:href="#mc4efe68311" x="45.716875" y="30.00643" style="stroke: #000000; stroke-width: 0.8"/>
      </g>
     </g>
     <g id="text_13">
      <!-- 1.0 -->
      <g transform="translate(22.81375 33.805649) scale(0.1 -0.1)">
       <use xlink:href="#DejaVuSans-31"/>
       <use xlink:href="#DejaVuSans-2e" transform="translate(63.623047 0)"/>
       <use xlink:href="#DejaVuSans-30" transform="translate(95.410156 0)"/>
      </g>
     </g>
    </g>
    <g id="text_14">
     <!-- True Positive Rate -->
     <g transform="translate(16.318125 256.653594) rotate(-90) scale(0.12 -0.12)">
      <defs>
       <path id="DejaVuSans-54" d="M -19 4666 
L 3928 4666 
L 3928 4134 
L 2272 4134 
L 2272 0 
L 1638 0 
L 1638 4134 
L -19 4134 
L -19 4666 
z
" transform="scale(0.015625)"/>
       <path id="DejaVuSans-72" d="M 2631 2963 
Q 2534 3019 2420 3045 
Q 2306 3072 2169 3072 
Q 1681 3072 1420 2755 
Q 1159 2438 1159 1844 
L 1159 0 
L 581 0 
L 581 3500 
L 1159 3500 
L 1159 2956 
Q 1341 3275 1631 3429 
Q 1922 3584 2338 3584 
Q 2397 3584 2469 3576 
Q 2541 3569 2628 3553 
L 2631 2963 
z
" transform="scale(0.015625)"/>
       <path id="DejaVuSans-75" d="M 544 1381 
L 544 3500 
L 1119 3500 
L 1119 1403 
Q 1119 906 1312 657 
Q 1506 409 1894 409 
Q 2359 409 2629 706 
Q 2900 1003 2900 1516 
L 2900 3500 
L 3475 3500 
L 3475 0 
L 2900 0 
L 2900 538 
Q 2691 219 2414 64 
Q 2138 -91 1772 -91 
Q 1169 -91 856 284 
Q 544 659 544 1381 
z
M 1991 3584 
L 1991 3584 
z
" transform="scale(0.015625)"/>
      </defs>
      <use xlink:href="#DejaVuSans-54"/>
      <use xlink:href="#DejaVuSans-72" transform="translate(46.333984 0)"/>
      <use xlink:href="#DejaVuSans-75" transform="translate(87.447266 0)"/>
      <use xlink:href="#DejaVuSans-65" transform="translate(150.826172 0)"/>
      <use xlink:href="#DejaVuSans-20" transform="translate(212.349609 0)"/>
      <use xlink:href="#DejaVuSans-50" transform="translate(244.136719 0)"/>
      <use xlink:href="#DejaVuSans-6f" transform="translate(300.814453 0)"/>
      <use xlink:href="#DejaVuSans-73" transform="translate(361.996094 0)"/>
      <use xlink:href="#DejaVuSans-69" transform="translate(414.095703 0)"/>
      <use xlink:href="#DejaVuSans-74" transform="translate(441.878906 0)"/>
      <use xlink:href="#DejaVuSans-69" transform="translate(481.087891 0)"/>
      <use xlink:href="#DejaVuSans-76" transform="translate(508.871094 0)"/>
      <use xlink:href="#DejaVuSans-65" transform="translate(568.050781 0)"/>
      <use xlink:href="#DejaVuSans-20" transform="translate(629.574219 0)"/>
      <use xlink:href="#DejaVuSans-52" transform="translate(661.361328 0)"/>
      <use xlink:href="#DejaVuSans-61" transform="translate(728.59375 0)"/>
      <use xlink:href="#DejaVuSans-74" transform="translate(789.873047 0)"/>
      <use xlink:href="#DejaVuSans-65" transform="translate(829.082031 0)"/>
     </g>
    </g>
   </g>
   <g id="line2d_25">
    <path d="M 52.645337 376.429507 
L 399.068413 30.00643 
" clip-path="url(#p742c4bcabf)" style="fill: none; stroke-dasharray: 5.55,2.4; stroke-dashoffset: 0; stroke: #000000; stroke-width: 1.5"/>
   </g>
   <g id="line2d_26">
    <path d="M 52.645337 376.429507 
L 56.14456 370.957597 
L 59.643783 364.743352 
L 63.143006 353.732047 
L 66.642229 350.267816 
L 70.141452 340.988627 
L 73.640675 336.658338 
L 77.139898 324.925319 
L 80.639121 322.450868 
L 84.138344 311.439563 
L 87.637567 306.38756 
L 91.13679 300.325156 
L 94.636013 293.211111 
L 98.135236 290.73666 
L 101.634459 288.26221 
L 105.133682 286.097065 
L 108.632905 282.947765 
L 112.132128 281.215649 
L 115.631351 273.998502 
L 119.130574 271.111643 
L 122.629797 262.595409 
L 126.12902 259.446108 
L 129.628243 255.981878 
L 133.127466 255.981878 
L 136.626689 253.816733 
L 140.125912 244.537544 
L 143.625135 240.640284 
L 147.124358 238.47514 
L 150.623581 238.47514 
L 154.122804 236.000689 
L 157.622027 231.381715 
L 161.12125 227.917484 
L 164.620473 227.917484 
L 168.119696 222.288109 
L 171.618919 222.288109 
L 175.118142 210.122061 
L 178.617365 207.64761 
L 182.116588 203.008015 
L 185.615811 197.956012 
L 189.115034 196.223897 
L 192.614257 194.649246 
L 196.11348 190.318958 
L 199.612703 188.153814 
L 203.111926 188.153814 
L 206.611149 183.823525 
L 210.110372 183.823525 
L 213.609595 183.823525 
L 217.108818 183.823525 
L 220.608041 181.658381 
L 224.107264 178.19415 
L 227.606486 178.19415 
L 231.105709 176.029006 
L 234.604932 173.554555 
L 238.104155 171.080105 
L 241.603378 161.842156 
L 245.102601 155.937217 
L 248.601824 155.937217 
L 252.101047 149.166221 
L 255.60027 147.001077 
L 259.099493 136.587764 
L 262.598716 129.659302 
L 266.097939 127.494158 
L 269.597162 122.854563 
L 273.096385 122.854563 
L 276.595608 120.380113 
L 280.094831 118.214969 
L 283.594054 115.740518 
L 287.093277 115.740518 
L 290.5925 115.740518 
L 294.091723 113.266068 
L 297.590946 113.266068 
L 301.090169 105.327205 
L 304.589392 101.278104 
L 308.088615 101.278104 
L 311.587838 99.11296 
L 315.087061 99.11296 
L 318.586284 99.11296 
L 322.085507 99.11296 
L 325.58473 96.63851 
L 329.083953 96.63851 
L 332.583176 91.442164 
L 336.082399 86.823189 
L 339.581622 83.93633 
L 343.080845 76.409876 
L 346.580068 70.038166 
L 350.079291 67.563716 
L 353.578514 67.563716 
L 357.077737 67.563716 
L 360.57696 67.563716 
L 364.076183 63.233427 
L 367.575406 57.604052 
L 371.074629 53.273764 
L 374.573852 53.273764 
L 378.073075 51.10862 
L 381.572298 51.10862 
L 385.071521 44.427603 
L 388.570744 40.097315 
L 392.069967 35.635805 
L 395.56919 35.635805 
L 399.068413 30.00643 
" clip-path="url(#p742c4bcabf)" style="fill: none; stroke: #0000ff; stroke-width: 2.5; stroke-linecap: square"/>
   </g>
   <g id="patch_3">
    <path d="M 45.716875 383.357969 
L 45.716875 23.077969 
" style="fill: none; stroke: #000000; stroke-width: 0.8; stroke-linejoin: miter; stroke-linecap: square"/>
   </g>
   <g id="patch_4">
    <path d="M 405.996875 383.357969 
L 405.996875 23.077969 
" style="fill: none; stroke: #000000; stroke-width: 0.8; stroke-linejoin: miter; stroke-linecap: square"/>
   </g>
   <g id="patch_5">
    <path d="M 45.716875 383.357969 
L 405.996875 383.357969 
" style="fill: none; stroke: #000000; stroke-width: 0.8; stroke-linejoin: miter; stroke-linecap: square"/>
   </g>
   <g id="patch_6">
    <path d="M 45.716875 23.077969 
L 405.996875 23.077969 
" style="fill: none; stroke: #000000; stroke-width: 0.8; stroke-linejoin: miter; stroke-linecap: square"/>
   </g>
   <g id="text_15">
    <!-- ROC Curve (LOSO Cross-Validation) -->
    <g transform="translate(111.617344 17.077969) scale(0.13 -0.13)">
     <defs>
      <path id="DejaVuSans-4f" d="M 2522 4238 
Q 1834 4238 1429 3725 
Q 1025 3213 1025 2328 
Q 1025 1447 1429 934 
Q 1834 422 2522 422 
Q 3209 422 3611 934 
Q 4013 1447 4013 2328 
Q 4013 3213 3611 3725 
Q 3209 4238 2522 4238 
z
M 2522 4750 
Q 3503 4750 4090 4092 
Q 4678 3434 4678 2328 
Q 4678 1225 4090 567 
Q 3503 -91 2522 -91 
Q 1538 -91 948 565 
Q 359 1222 359 2328 
Q 359 3434 948 4092 
Q 1538 4750 2522 4750 
z
" transform="scale(0.015625)"/>
      <path id="DejaVuSans-43" d="M 4122 4306 
L 4122 3641 
Q 3803 3938 3442 4084 
Q 3081 4231 2675 4231 
Q 1875 4231 1450 3742 
Q 1025 3253 1025 2328 
Q 1025 1406 1450 917 
Q 1875 428 2675 428 
Q 3081 428 3442 575 
Q 3803 722 4122 1019 
L 4122 359 
Q 3791 134 3420 21 
Q 3050 -91 2638 -91 
Q 1578 -91 968 557 
Q 359 1206 359 2328 
Q 359 3453 968 4101 
Q 1578 4750 2638 4750 
Q 3056 4750 3426 4639 
Q 3797 4528 4122 4306 
z
" transform="scale(0.015625)"/>
      <path id="DejaVuSans-28" d="M 1984 4856 
Q 1566 4138 1362 3434 
Q 1159 2731 1159 2009 
Q 1159 1288 1364 580 
Q 1569 -128 1984 -844 
L 1484 -844 
Q 1016 -109 783 600 
Q 550 1309 550 2009 
Q 550 2706 781 3412 
Q 1013 4119 1484 4856 
L 1984 4856 
z
" transform="scale(0.015625)"/>
      <path id="DejaVuSans-4c" d="M 628 4666 
L 1259 4666 
L 1259 531 
L 3531 531 
L 3531 0 
L 628 0 
L 628 4666 
z
" transform="scale(0.015625)"/>
      <path id="DejaVuSans-53" d="M 3425 4513 
L 3425 3897 
Q 3066 4069 2747 4153 
Q 2428 4238 2131 4238 
Q 1616 4238 1336 4038 
Q 1056 3838 1056 3469 
Q 1056 3159 1242 3001 
Q 1428 2844 1947 2747 
L 2328 2669 
Q 3034 2534 3370 2195 
Q 3706 1856 3706 1288 
Q 3706 609 3251 259 
Q 2797 -91 1919 -91 
Q 1588 -91 1214 -16 
Q 841 59 441 206 
L 441 856 
Q 825 641 1194 531 
Q 1563 422 1919 422 
Q 2459 422 2753 634 
Q 3047 847 3047 1241 
Q 3047 1584 2836 1778 
Q 2625 1972 2144 2069 
L 1759 2144 
Q 1053 2284 737 2584 
Q 422 2884 422 3419 
Q 422 4038 858 4394 
Q 1294 4750 2059 4750 
Q 2388 4750 2728 4690 
Q 3069 4631 3425 4513 
z
" transform="scale(0.015625)"/>
      <path id="DejaVuSans-2d" d="M 313 2009 
L 1997 2009 
L 1997 1497 
L 313 1497 
L 313 2009 
z
" transform="scale(0.015625)"/>
      <path id="DejaVuSans-56" d="M 1831 0 
L 50 4666 
L 709 4666 
L 2188 738 
L 3669 4666 
L 4325 4666 
L 2547 0 
L 1831 0 
z
" transform="scale(0.015625)"/>
      <path id="DejaVuSans-64" d="M 2906 2969 
L 2906 4863 
L 3481 4863 
L 3481 0 
L 2906 0 
L 2906 525 
Q 2725 213 2448 61 
Q 2172 -91 1784 -91 
Q 1150 -91 751 415 
Q 353 922 353 1747 
Q 353 2572 751 3078 
Q 1150 3584 1784 3584 
Q 2172 3584 2448 3432 
Q 2725 3281 2906 2969 
z
M 947 1747 
Q 947 1113 1208 752 
Q 1469 391 1925 391 
Q 2381 391 2643 752 
Q 2906 1113 2906 1747 
Q 2906 2381 2643 2742 
Q 2381 3103 1925 3103 
Q 1469 3103 1208 2742 
Q 947 2381 947 1747 
z
" transform="scale(0.015625)"/>
      <path id="DejaVuSans-6e" d="M 3513 2113 
L 3513 0 
L 2938 0 
L 2938 2094 
Q 2938 2591 2744 2837 
Q 2550 3084 2163 3084 
Q 1697 3084 1428 2787 
Q 1159 2491 1159 1978 
L 1159 0 
L 581 0 
L 581 3500 
L 1159 3500 
L 1159 2956 
Q 1366 3272 1645 3428 
Q 1925 3584 2291 3584 
Q 2894 3584 3203 3211 
Q 3513 2838 3513 2113 
z
" transform="scale(0.015625)"/>
      <path id="DejaVuSans-29" d="M 513 4856 
L 1013 4856 
Q 1481 4119 1714 3412 
Q 1947 2706 1947 2009 
Q 1947 1309 1714 600 
Q 1481 -109 1013 -844 
L 513 -844 
Q 928 -128 1133 580 
Q 1338 1288 1338 2009 
Q 1338 2731 1133 3434 
Q 928 4138 513 4856 
z
" transform="scale(0.015625)"/>
     </defs>
     <use xlink:href="#DejaVuSans-52"/>
     <use xlink:href="#DejaVuSans-4f" transform="translate(69.482422 0)"/>
     <use xlink:href="#DejaVuSans-43" transform="translate(148.193359 0)"/>
     <use xlink:href="#DejaVuSans-20" transform="translate(218.017578 0)"/>
     <use xlink:href="#DejaVuSans-43" transform="translate(249.804688 0)"/>
     <use xlink:href="#DejaVuSans-75" transform="translate(319.628906 0)"/>
     <use xlink:href="#DejaVuSans-72" transform="translate(383.007812 0)"/>
     <use xlink:href="#DejaVuSans-76" transform="translate(424.121094 0)"/>
     <use xlink:href="#DejaVuSans-65" transform="translate(483.300781 0)"/>
     <use xlink:href="#DejaVuSans-20" transform="translate(544.824219 0)"/>
     <use xlink:href="#DejaVuSans-28" transform="translate(576.611328 0)"/>
     <use xlink:href="#DejaVuSans-4c" transform="translate(615.625 0)"/>
     <use xlink:href="#DejaVuSans-4f" transform="translate(667.712891 0)"/>
     <use xlink:href="#DejaVuSans-53" transform="translate(746.423828 0)"/>
     <use xlink:href="#DejaVuSans-4f" transform="translate(809.900391 0)"/>
     <use xlink:href="#DejaVuSans-20" transform="translate(888.611328 0)"/>
     <use xlink:href="#DejaVuSans-43" transform="translate(920.398438 0)"/>
     <use xlink:href="#DejaVuSans-72" transform="translate(990.222656 0)"/>
     <use xlink:href="#DejaVuSans-6f" transform="translate(1029.085938 0)"/>
     <use xlink:href="#DejaVuSans-73" transform="translate(1090.267578 0)"/>
     <use xlink:href="#DejaVuSans-73" transform="translate(1142.367188 0)"/>
     <use xlink:href="#DejaVuSans-2d" transform="translate(1194.466797 0)"/>
     <use xlink:href="#DejaVuSans-56" transform="translate(1224.675781 0)"/>
     <use xlink:href="#DejaVuSans-61" transform="translate(1285.333984 0)"/>
     <use xlink:href="#DejaVuSans-6c" transform="translate(1346.613281 0)"/>
     <use xlink:href="#DejaVuSans-69" transform="translate(1374.396484 0)"/>
     <use xlink:href="#DejaVuSans-64" transform="translate(1402.179688 0)"/>
     <use xlink:href="#DejaVuSans-61" transform="translate(1465.65625 0)"/>
     <use xlink:href="#DejaVuSans-74" transform="translate(1526.935547 0)"/>
     <use xlink:href="#DejaVuSans-69" transform="translate(1566.144531 0)"/>
     <use xlink:href="#DejaVuSans-6f" transform="translate(1593.927734 0)"/>
     <use xlink:href="#DejaVuSans-6e" transform="translate(1655.109375 0)"/>
     <use xlink:href="#DejaVuSans-29" transform="translate(1718.488281 0)"/>
    </g>
   </g>
   <g id="legend_1">
    <g id="patch_7">
     <path d="M 222.929688 378.357969 
L 398.996875 378.357969 
Q 400.996875 378.357969 400.996875 376.357969 
L 400.996875 333.323594 
Q 400.996875 331.323594 398.996875 331.323594 
L 222.929688 331.323594 
Q 220.929688 331.323594 220.929688 333.323594 
L 220.929688 376.357969 
Q 220.929688 378.357969 222.929688 378.357969 
z
" style="fill: #ffffff; opacity: 0.8; stroke: #cccccc; stroke-linejoin: miter"/>
    </g>
    <g id="line2d_27">
     <path d="M 224.929688 339.422031 
L 234.929688 339.422031 
L 244.929688 339.422031 
" style="fill: none; stroke-dasharray: 5.55,2.4; stroke-dashoffset: 0; stroke: #000000; stroke-width: 1.5"/>
    </g>
    <g id="text_16">
     <!-- Chance (AUC = 0.50) -->
     <g transform="translate(252.929688 342.922031) scale(0.1 -0.1)">
      <defs>
       <path id="DejaVuSans-68" d="M 3513 2113 
L 3513 0 
L 2938 0 
L 2938 2094 
Q 2938 2591 2744 2837 
Q 2550 3084 2163 3084 
Q 1697 3084 1428 2787 
Q 1159 2491 1159 1978 
L 1159 0 
L 581 0 
L 581 4863 
L 1159 4863 
L 1159 2956 
Q 1366 3272 1645 3428 
Q 1925 3584 2291 3584 
Q 2894 3584 3203 3211 
Q 3513 2838 3513 2113 
z
" transform="scale(0.015625)"/>
       <path id="DejaVuSans-63" d="M 3122 3366 
L 3122 2828 
Q 2878 2963 2633 3030 
Q 2388 3097 2138 3097 
Q 1578 3097 1268 2742 
Q 959 2388 959 1747 
Q 959 1106 1268 751 
Q 1578 397 2138 397 
Q 2388 397 2633 464 
Q 2878 531 3122 666 
L 3122 134 
Q 2881 22 2623 -34 
Q 2366 -91 2075 -91 
Q 1284 -91 818 406 
Q 353 903 353 1747 
Q 353 2603 823 3093 
Q 1294 3584 2113 3584 
Q 2378 3584 2631 3529 
Q 2884 3475 3122 3366 
z
" transform="scale(0.015625)"/>
       <path id="DejaVuSans-41" d="M 2188 4044 
L 1331 1722 
L 3047 1722 
L 2188 4044 
z
M 1831 4666 
L 2547 4666 
L 4325 0 
L 3669 0 
L 3244 1197 
L 1141 1197 
L 716 0 
L 50 0 
L 1831 4666 
z
" transform="scale(0.015625)"/>
       <path id="DejaVuSans-55" d="M 556 4666 
L 1191 4666 
L 1191 1831 
Q 1191 1081 1462 751 
Q 1734 422 2344 422 
Q 2950 422 3222 751 
Q 3494 1081 3494 1831 
L 3494 4666 
L 4128 4666 
L 4128 1753 
Q 4128 841 3676 375 
Q 3225 -91 2344 -91 
Q 1459 -91 1007 375 
Q 556 841 556 1753 
L 556 4666 
z
" transform="scale(0.015625)"/>
       <path id="DejaVuSans-3d" d="M 678 2906 
L 4684 2906 
L 4684 2381 
L 678 2381 
L 678 2906 
z
M 678 1631 
L 4684 1631 
L 4684 1100 
L 678 1100 
L 678 1631 
z
" transform="scale(0.015625)"/>
       <path id="DejaVuSans-35" d="M 691 4666 
L 3169 4666 
L 3169 4134 
L 1269 4134 
L 1269 2991 
Q 1406 3038 1543 3061 
Q 1681 3084 1819 3084 
Q 2600 3084 3056 2656 
Q 3513 2228 3513 1497 
Q 3513 744 3044 326 
Q 2575 -91 1722 -91 
Q 1428 -91 1123 -41 
Q 819 9 494 109 
L 494 744 
Q 775 591 1075 516 
Q 1375 441 1709 441 
Q 2250 441 2565 725 
Q 2881 1009 2881 1497 
Q 2881 1984 2565 2268 
Q 2250 2553 1709 2553 
Q 1456 2553 1204 2497 
Q 953 2441 691 2322 
L 691 4666 
z
" transform="scale(0.015625)"/>
      </defs>
      <use xlink:href="#DejaVuSans-43"/>
      <use xlink:href="#DejaVuSans-68" transform="translate(69.824219 0)"/>
      <use xlink:href="#DejaVuSans-61" transform="translate(133.203125 0)"/>
      <use xlink:href="#DejaVuSans-6e" transform="translate(194.482422 0)"/>
      <use xlink:href="#DejaVuSans-63" transform="translate(257.861328 0)"/>
      <use xlink:href="#DejaVuSans-65" transform="translate(312.841797 0)"/>
      <use xlink:href="#DejaVuSans-20" transform="translate(374.365234 0)"/>
      <use xlink:href="#DejaVuSans-28" transform="translate(406.152344 0)"/>
      <use xlink:href="#DejaVuSans-41" transform="translate(445.166016 0)"/>
      <use xlink:href="#DejaVuSans-55" transform="translate(513.574219 0)"/>
      <use xlink:href="#DejaVuSans-43" transform="translate(586.767578 0)"/>
      <use xlink:href="#DejaVuSans-20" transform="translate(656.591797 0)"/>
      <use xlink:href="#DejaVuSans-3d" transform="translate(688.378906 0)"/>
      <use xlink:href="#DejaVuSans-20" transform="translate(772.167969 0)"/>
      <use xlink:href="#DejaVuSans-30" transform="translate(803.955078 0)"/>
      <use xlink:href="#DejaVuSans-2e" transform="translate(867.578125 0)"/>
      <use xlink:href="#DejaVuSans-35" transform="translate(899.365234 0)"/>
      <use xlink:href="#DejaVuSans-30" transform="translate(962.988281 0)"/>
      <use xlink:href="#DejaVuSans-29" transform="translate(1026.611328 0)"/>
     </g>
    </g>
    <g id="line2d_28">
     <path d="M 224.929688 354.100156 
L 234.929688 354.100156 
L 244.929688 354.100156 
" style="fill: none; stroke: #0000ff; stroke-width: 2.5; stroke-linecap: square"/>
    </g>
    <g id="text_17">
     <!-- EEGNet (AUC = 0.57 ± 0.12) -->
     <g transform="translate(252.929688 357.600156) scale(0.1 -0.1)">
      <defs>
       <path id="DejaVuSans-45" d="M 628 4666 
L 3578 4666 
L 3578 4134 
L 1259 4134 
L 1259 2753 
L 3481 2753 
L 3481 2222 
L 1259 2222 
L 1259 531 
L 3634 531 
L 3634 0 
L 628 0 
L 628 4666 
z
" transform="scale(0.015625)"/>
       <path id="DejaVuSans-47" d="M 3809 666 
L 3809 1919 
L 2778 1919 
L 2778 2438 
L 4434 2438 
L 4434 434 
Q 4069 175 3628 42 
Q 3188 -91 2688 -91 
Q 1594 -91 976 548 
Q 359 1188 359 2328 
Q 359 3472 976 4111 
Q 1594 4750 2688 4750 
Q 3144 4750 3555 4637 
Q 3966 4525 4313 4306 
L 4313 3634 
Q 3963 3931 3569 4081 
Q 3175 4231 2741 4231 
Q 1884 4231 1454 3753 
Q 1025 3275 1025 2328 
Q 1025 1384 1454 906 
Q 1884 428 2741 428 
Q 3075 428 3337 486 
Q 3600 544 3809 666 
z
" transform="scale(0.015625)"/>
       <path id="DejaVuSans-4e" d="M 628 4666 
L 1478 4666 
L 3547 763 
L 3547 4666 
L 4159 4666 
L 4159 0 
L 3309 0 
L 1241 3903 
L 1241 0 
L 628 0 
L 628 4666 
z
" transform="scale(0.015625)"/>
       <path id="DejaVuSans-37" d="M 525 4666 
L 3525 4666 
L 3525 4397 
L 1831 0 
L 1172 0 
L 2766 4134 
L 525 4134 
L 525 4666 
z
" transform="scale(0.015625)"/>
       <path id="DejaVuSans-b1" d="M 2944 4013 
L 2944 2803 
L 4684 2803 
L 4684 2272 
L 2944 2272 
L 2944 1063 
L 2419 1063 
L 2419 2272 
L 678 2272 
L 678 2803 
L 2419 2803 
L 2419 4013 
L 2944 4013 
z
M 678 531 
L 4684 531 
L 4684 0 
L 678 0 
L 678 531 
z
" transform="scale(0.015625)"/>
      </defs>
      <use xlink:href="#DejaVuSans-45"/>
      <use xlink:href="#DejaVuSans-45" transform="translate(63.183594 0)"/>
      <use xlink:href="#DejaVuSans-47" transform="translate(126.367188 0)"/>
      <use xlink:href="#DejaVuSans-4e" transform="translate(203.857422 0)"/>
      <use xlink:href="#DejaVuSans-65" transform="translate(278.662109 0)"/>
      <use xlink:href="#DejaVuSans-74" transform="translate(340.185547 0)"/>
      <use xlink:href="#DejaVuSans-20" transform="translate(379.394531 0)"/>
      <use xlink:href="#DejaVuSans-28" transform="translate(411.181641 0)"/>
      <use xlink:href="#DejaVuSans-41" transform="translate(450.195312 0)"/>
      <use xlink:href="#DejaVuSans-55" transform="translate(518.603516 0)"/>
      <use xlink:href="#DejaVuSans-43" transform="translate(591.796875 0)"/>
      <use xlink:href="#DejaVuSans-20" transform="translate(661.621094 0)"/>
      <use xlink:href="#DejaVuSans-3d" transform="translate(693.408203 0)"/>
      <use xlink:href="#DejaVuSans-20" transform="translate(777.197266 0)"/>
      <use xlink:href="#DejaVuSans-30" transform="translate(808.984375 0)"/>
      <use xlink:href="#DejaVuSans-2e" transform="translate(872.607422 0)"/>
      <use xlink:href="#DejaVuSans-35" transform="translate(904.394531 0)"/>
      <use xlink:href="#DejaVuSans-37" transform="translate(968.017578 0)"/>
      <use xlink:href="#DejaVuSans-20" transform="translate(1031.640625 0)"/>
      <use xlink:href="#DejaVuSans-b1" transform="translate(1063.427734 0)"/>
      <use xlink:href="#DejaVuSans-20" transform="translate(1147.216797 0)"/>
      <use xlink:href="#DejaVuSans-30" transform="translate(1179.003906 0)"/>
      <use xlink:href="#DejaVuSans-2e" transform="translate(1242.626953 0)"/>
      <use xlink:href="#DejaVuSans-31" transform="translate(1274.414062 0)"/>
      <use xlink:href="#DejaVuSans-32" transform="translate(1338.037109 0)"/>
      <use xlink:href="#DejaVuSans-29" transform="translate(1401.660156 0)"/>
     </g>
    </g>
    <g id="patch_8">
     <path d="M 224.929688 372.278281 
L 244.929688 372.278281 
L 244.929688 365.278281 
L 224.929688 365.278281 
z
" style="fill: #0000ff; fill-opacity: 0.2; stroke: #0000ff; stroke-opacity: 0.2; stroke-linejoin: miter"/>
    </g>
    <g id="text_18">
     <!-- ± 1 std. dev. -->
     <g transform="translate(252.929688 372.278281) scale(0.1 -0.1)">
      <use xlink:href="#DejaVuSans-b1"/>
      <use xlink:href="#DejaVuSans-20" transform="translate(83.789062 0)"/>
      <use xlink:href="#DejaVuSans-31" transform="translate(115.576172 0)"/>
      <use xlink:href="#DejaVuSans-20" transform="translate(179.199219 0)"/>
      <use xlink:href="#DejaVuSans-73" transform="translate(210.986328 0)"/>
      <use xlink:href="#DejaVuSans-74" transform="translate(263.085938 0)"/>
      <use xlink:href="#DejaVuSans-64" transform="translate(302.294922 0)"/>
      <use xlink:href="#DejaVuSans-2e" transform="translate(365.771484 0)"/>
      <use xlink:href="#DejaVuSans-20" transform="translate(397.558594 0)"/>
      <use xlink:href="#DejaVuSans-64" transform="translate(429.345703 0)"/>
      <use xlink:href="#DejaVuSans-65" transform="translate(492.822266 0)"/>
      <use xlink:href="#DejaVuSans-76" transform="translate(554.345703 0)"/>
      <use xlink:href="#DejaVuSans-2e" transform="translate(605.775391 0)"/>
     </g>
    </g>
   </g>
  </g>
 </g>
 <defs>
  <clipPath id="p742c4bcabf">
   <rect x="45.716875" y="23.077969" width="360.28" height="360.28"/>
  </clipPath>
 </defs>
</svg>
