<?xml version="1.0" encoding="utf-8" standalone="no"?>
<!DOCTYPE svg PUBLIC "-//W3C//DTD SVG 1.1//EN"
  "http://www.w3.org/Graphics/SVG/1.1/DTD/svg11.dtd">
<svg xmlns:xlink="http://www.w3.org/1999/xlink" width="333.164375pt" height="340.877344pt" viewBox="0 0 333.164375 340.877344" xmlns="http://www.w3.org/2000/svg" version="1.1">
 <metadata>
  <rdf:RDF xmlns:dc="http://purl.org/dc/elements/1.1/" xmlns:cc="http://creativecommons.org/ns#" xmlns:rdf="http://www.w3.org/1999/02/22-rdf-syntax-ns#">
   <cc:Work>
    <dc:type rdf:resource="http://purl.org/dc/dcmitype/StillImage"/>
    <dc:date>2025-11-21T14:38:14.153031</dc:date>
    <dc:format>image/svg+xml</dc:format>
    <dc:creator>
     <cc:Agent>
      <dc:title>Matplotlib v3.10.3, https://matplotlib.org/</dc:title>
     </cc:Agent>
    </dc:creator>
   </cc:Work>
  </rdf:RDF>
 </metadata>
 <defs>
  <style type="text/css">*{stroke-linejoin: round; stroke-linecap: butt}</style>
 </defs>
 <g id="figure_1">
  <g id="patch_1">
   <path d="M 0 340.877344 
L 333.164375 340.877344 
L 333.164375 0 
L 0 0 
z
" style="fill: #ffffff"/>
  </g>
  <g id="axes_1">
   <g id="patch_2">
    <path d="M 46.964375 299.143125 
L 325.964375 299.143125 
L 325.964375 21.943125 
L 46.964375 21.943125 
z
" style="fill: #ffffff"/>
   </g>
   <g id="matplotlib.axis_1">
    <g id="xtick_1">
     <g id="line2d_1">
      <path d="M 59.646193 299.143125 
L 59.646193 21.943125 
" clip-path="url(#p26c9174377)" style="fill: none; stroke: #cccccc; stroke-linecap: round"/>
     </g>
     <g id="text_1">
      <!-- 0.0 -->
      <g style="fill: #262626" transform="translate(52.001193 316.516719) scale(0.11 -0.11)">
       <defs>
        <path id="ArialMT-30" d="M 266 2259 
Q 266 3072 433 3567 
Q 600 4063 929 4331 
Q 1259 4600 1759 4600 
Q 2128 4600 2406 4451 
Q 2684 4303 2865 4023 
Q 3047 3744 3150 3342 
Q 3253 2941 3253 2259 
Q 3253 1453 3087 958 
Q 2922 463 2592 192 
Q 2263 -78 1759 -78 
Q 1097 -78 719 397 
Q 266 969 266 2259 
z
M 844 2259 
Q 844 1131 1108 757 
Q 1372 384 1759 384 
Q 2147 384 2411 759 
Q 2675 1134 2675 2259 
Q 2675 3391 2411 3762 
Q 2147 4134 1753 4134 
Q 1366 4134 1134 3806 
Q 844 3388 844 2259 
z
" transform="scale(0.015625)"/>
        <path id="ArialMT-2e" d="M 581 0 
L 581 641 
L 1222 641 
L 1222 0 
L 581 0 
z
" transform="scale(0.015625)"/>
       </defs>
       <use xlink:href="#ArialMT-30"/>
       <use xlink:href="#ArialMT-2e" transform="translate(55.615234 0)"/>
       <use xlink:href="#ArialMT-30" transform="translate(83.398438 0)"/>
      </g>
     </g>
    </g>
    <g id="xtick_2">
     <g id="line2d_2">
      <path d="M 110.373466 299.143125 
L 110.373466 21.943125 
" clip-path="url(#p26c9174377)" style="fill: none; stroke: #cccccc; stroke-linecap: round"/>
     </g>
     <g id="text_2">
      <!-- 0.2 -->
      <g style="fill: #262626" transform="translate(102.728466 316.516719) scale(0.11 -0.11)">
       <defs>
        <path id="ArialMT-32" d="M 3222 541 
L 3222 0 
L 194 0 
Q 188 203 259 391 
Q 375 700 629 1000 
Q 884 1300 1366 1694 
Q 2113 2306 2375 2664 
Q 2638 3022 2638 3341 
Q 2638 3675 2398 3904 
Q 2159 4134 1775 4134 
Q 1369 4134 1125 3890 
Q 881 3647 878 3216 
L 300 3275 
Q 359 3922 746 4261 
Q 1134 4600 1788 4600 
Q 2447 4600 2831 4234 
Q 3216 3869 3216 3328 
Q 3216 3053 3103 2787 
Q 2991 2522 2730 2228 
Q 2469 1934 1863 1422 
Q 1356 997 1212 845 
Q 1069 694 975 541 
L 3222 541 
z
" transform="scale(0.015625)"/>
       </defs>
       <use xlink:href="#ArialMT-30"/>
       <use xlink:href="#ArialMT-2e" transform="translate(55.615234 0)"/>
       <use xlink:href="#ArialMT-32" transform="translate(83.398438 0)"/>
      </g>
     </g>
    </g>
    <g id="xtick_3">
     <g id="line2d_3">
      <path d="M 161.100739 299.143125 
L 161.100739 21.943125 
" clip-path="url(#p26c9174377)" style="fill: none; stroke: #cccccc; stroke-linecap: round"/>
     </g>
     <g id="text_3">
      <!-- 0.4 -->
      <g style="fill: #262626" transform="translate(153.455739 316.516719) scale(0.11 -0.11)">
       <defs>
        <path id="ArialMT-34" d="M 2069 0 
L 2069 1097 
L 81 1097 
L 81 1613 
L 2172 4581 
L 2631 4581 
L 2631 1613 
L 3250 1613 
L 3250 1097 
L 2631 1097 
L 2631 0 
L 2069 0 
z
M 2069 1613 
L 2069 3678 
L 634 1613 
L 2069 1613 
z
" transform="scale(0.015625)"/>
       </defs>
       <use xlink:href="#ArialMT-30"/>
       <use xlink:href="#ArialMT-2e" transform="translate(55.615234 0)"/>
       <use xlink:href="#ArialMT-34" transform="translate(83.398438 0)"/>
      </g>
     </g>
    </g>
    <g id="xtick_4">
     <g id="line2d_4">
      <path d="M 211.828011 299.143125 
L 211.828011 21.943125 
" clip-path="url(#p26c9174377)" style="fill: none; stroke: #cccccc; stroke-linecap: round"/>
     </g>
     <g id="text_4">
      <!-- 0.6 -->
      <g style="fill: #262626" transform="translate(204.183011 316.516719) scale(0.11 -0.11)">
       <defs>
        <path id="ArialMT-36" d="M 3184 3459 
L 2625 3416 
Q 2550 3747 2413 3897 
Q 2184 4138 1850 4138 
Q 1581 4138 1378 3988 
Q 1113 3794 959 3422 
Q 806 3050 800 2363 
Q 1003 2672 1297 2822 
Q 1591 2972 1913 2972 
Q 2475 2972 2870 2558 
Q 3266 2144 3266 1488 
Q 3266 1056 3080 686 
Q 2894 316 2569 119 
Q 2244 -78 1831 -78 
Q 1128 -78 684 439 
Q 241 956 241 2144 
Q 241 3472 731 4075 
Q 1159 4600 1884 4600 
Q 2425 4600 2770 4297 
Q 3116 3994 3184 3459 
z
M 888 1484 
Q 888 1194 1011 928 
Q 1134 663 1356 523 
Q 1578 384 1822 384 
Q 2178 384 2434 671 
Q 2691 959 2691 1453 
Q 2691 1928 2437 2201 
Q 2184 2475 1800 2475 
Q 1419 2475 1153 2201 
Q 888 1928 888 1484 
z
" transform="scale(0.015625)"/>
       </defs>
       <use xlink:href="#ArialMT-30"/>
       <use xlink:href="#ArialMT-2e" transform="translate(55.615234 0)"/>
       <use xlink:href="#ArialMT-36" transform="translate(83.398438 0)"/>
      </g>
     </g>
    </g>
    <g id="xtick_5">
     <g id="line2d_5">
      <path d="M 262.555284 299.143125 
L 262.555284 21.943125 
" clip-path="url(#p26c9174377)" style="fill: none; stroke: #cccccc; stroke-linecap: round"/>
     </g>
     <g id="text_5">
      <!-- 0.8 -->
      <g style="fill: #262626" transform="translate(254.910284 316.516719) scale(0.11 -0.11)">
       <defs>
        <path id="ArialMT-38" d="M 1131 2484 
Q 781 2613 612 2850 
Q 444 3088 444 3419 
Q 444 3919 803 4259 
Q 1163 4600 1759 4600 
Q 2359 4600 2725 4251 
Q 3091 3903 3091 3403 
Q 3091 3084 2923 2848 
Q 2756 2613 2416 2484 
Q 2838 2347 3058 2040 
Q 3278 1734 3278 1309 
Q 3278 722 2862 322 
Q 2447 -78 1769 -78 
Q 1091 -78 675 323 
Q 259 725 259 1325 
Q 259 1772 486 2073 
Q 713 2375 1131 2484 
z
M 1019 3438 
Q 1019 3113 1228 2906 
Q 1438 2700 1772 2700 
Q 2097 2700 2305 2904 
Q 2513 3109 2513 3406 
Q 2513 3716 2298 3927 
Q 2084 4138 1766 4138 
Q 1444 4138 1231 3931 
Q 1019 3725 1019 3438 
z
M 838 1322 
Q 838 1081 952 856 
Q 1066 631 1291 507 
Q 1516 384 1775 384 
Q 2178 384 2440 643 
Q 2703 903 2703 1303 
Q 2703 1709 2433 1975 
Q 2163 2241 1756 2241 
Q 1359 2241 1098 1978 
Q 838 1716 838 1322 
z
" transform="scale(0.015625)"/>
       </defs>
       <use xlink:href="#ArialMT-30"/>
       <use xlink:href="#ArialMT-2e" transform="translate(55.615234 0)"/>
       <use xlink:href="#ArialMT-38" transform="translate(83.398438 0)"/>
      </g>
     </g>
    </g>
    <g id="xtick_6">
     <g id="line2d_6">
      <path d="M 313.282557 299.143125 
L 313.282557 21.943125 
" clip-path="url(#p26c9174377)" style="fill: none; stroke: #cccccc; stroke-linecap: round"/>
     </g>
     <g id="text_6">
      <!-- 1.0 -->
      <g style="fill: #262626" transform="translate(305.637557 316.516719) scale(0.11 -0.11)">
       <defs>
        <path id="ArialMT-31" d="M 2384 0 
L 1822 0 
L 1822 3584 
Q 1619 3391 1289 3197 
Q 959 3003 697 2906 
L 697 3450 
Q 1169 3672 1522 3987 
Q 1875 4303 2022 4600 
L 2384 4600 
L 2384 0 
z
" transform="scale(0.015625)"/>
       </defs>
       <use xlink:href="#ArialMT-31"/>
       <use xlink:href="#ArialMT-2e" transform="translate(55.615234 0)"/>
       <use xlink:href="#ArialMT-30" transform="translate(83.398438 0)"/>
      </g>
     </g>
    </g>
    <g id="text_7">
     <!-- False positive rate -->
     <g style="fill: #262626" transform="translate(137.779063 331.292344) scale(0.12 -0.12)">
      <defs>
       <path id="ArialMT-46" d="M 525 0 
L 525 4581 
L 3616 4581 
L 3616 4041 
L 1131 4041 
L 1131 2622 
L 3281 2622 
L 3281 2081 
L 1131 2081 
L 1131 0 
L 525 0 
z
" transform="scale(0.015625)"/>
       <path id="ArialMT-61" d="M 2588 409 
Q 2275 144 1986 34 
Q 1697 -75 1366 -75 
Q 819 -75 525 192 
Q 231 459 231 875 
Q 231 1119 342 1320 
Q 453 1522 633 1644 
Q 813 1766 1038 1828 
Q 1203 1872 1538 1913 
Q 2219 1994 2541 2106 
Q 2544 2222 2544 2253 
Q 2544 2597 2384 2738 
Q 2169 2928 1744 2928 
Q 1347 2928 1158 2789 
Q 969 2650 878 2297 
L 328 2372 
Q 403 2725 575 2942 
Q 747 3159 1072 3276 
Q 1397 3394 1825 3394 
Q 2250 3394 2515 3294 
Q 2781 3194 2906 3042 
Q 3031 2891 3081 2659 
Q 3109 2516 3109 2141 
L 3109 1391 
Q 3109 606 3145 398 
Q 3181 191 3288 0 
L 2700 0 
Q 2613 175 2588 409 
z
M 2541 1666 
Q 2234 1541 1622 1453 
Q 1275 1403 1131 1340 
Q 988 1278 909 1158 
Q 831 1038 831 891 
Q 831 666 1001 516 
Q 1172 366 1500 366 
Q 1825 366 2078 508 
Q 2331 650 2450 897 
Q 2541 1088 2541 1459 
L 2541 1666 
z
" transform="scale(0.015625)"/>
       <path id="ArialMT-6c" d="M 409 0 
L 409 4581 
L 972 4581 
L 972 0 
L 409 0 
z
" transform="scale(0.015625)"/>
       <path id="ArialMT-73" d="M 197 991 
L 753 1078 
Q 800 744 1014 566 
Q 1228 388 1613 388 
Q 2000 388 2187 545 
Q 2375 703 2375 916 
Q 2375 1106 2209 1216 
Q 2094 1291 1634 1406 
Q 1016 1563 777 1677 
Q 538 1791 414 1992 
Q 291 2194 291 2438 
Q 291 2659 392 2848 
Q 494 3038 669 3163 
Q 800 3259 1026 3326 
Q 1253 3394 1513 3394 
Q 1903 3394 2198 3281 
Q 2494 3169 2634 2976 
Q 2775 2784 2828 2463 
L 2278 2388 
Q 2241 2644 2061 2787 
Q 1881 2931 1553 2931 
Q 1166 2931 1000 2803 
Q 834 2675 834 2503 
Q 834 2394 903 2306 
Q 972 2216 1119 2156 
Q 1203 2125 1616 2013 
Q 2213 1853 2448 1751 
Q 2684 1650 2818 1456 
Q 2953 1263 2953 975 
Q 2953 694 2789 445 
Q 2625 197 2315 61 
Q 2006 -75 1616 -75 
Q 969 -75 630 194 
Q 291 463 197 991 
z
" transform="scale(0.015625)"/>
       <path id="ArialMT-65" d="M 2694 1069 
L 3275 997 
Q 3138 488 2766 206 
Q 2394 -75 1816 -75 
Q 1088 -75 661 373 
Q 234 822 234 1631 
Q 234 2469 665 2931 
Q 1097 3394 1784 3394 
Q 2450 3394 2872 2941 
Q 3294 2488 3294 1666 
Q 3294 1616 3291 1516 
L 816 1516 
Q 847 969 1125 678 
Q 1403 388 1819 388 
Q 2128 388 2347 550 
Q 2566 713 2694 1069 
z
M 847 1978 
L 2700 1978 
Q 2663 2397 2488 2606 
Q 2219 2931 1791 2931 
Q 1403 2931 1139 2672 
Q 875 2413 847 1978 
z
" transform="scale(0.015625)"/>
       <path id="ArialMT-20" transform="scale(0.015625)"/>
       <path id="ArialMT-70" d="M 422 -1272 
L 422 3319 
L 934 3319 
L 934 2888 
Q 1116 3141 1344 3267 
Q 1572 3394 1897 3394 
Q 2322 3394 2647 3175 
Q 2972 2956 3137 2557 
Q 3303 2159 3303 1684 
Q 3303 1175 3120 767 
Q 2938 359 2589 142 
Q 2241 -75 1856 -75 
Q 1575 -75 1351 44 
Q 1128 163 984 344 
L 984 -1272 
L 422 -1272 
z
M 931 1641 
Q 931 1000 1190 694 
Q 1450 388 1819 388 
Q 2194 388 2461 705 
Q 2728 1022 2728 1688 
Q 2728 2322 2467 2637 
Q 2206 2953 1844 2953 
Q 1484 2953 1207 2617 
Q 931 2281 931 1641 
z
" transform="scale(0.015625)"/>
       <path id="ArialMT-6f" d="M 213 1659 
Q 213 2581 725 3025 
Q 1153 3394 1769 3394 
Q 2453 3394 2887 2945 
Q 3322 2497 3322 1706 
Q 3322 1066 3130 698 
Q 2938 331 2570 128 
Q 2203 -75 1769 -75 
Q 1072 -75 642 372 
Q 213 819 213 1659 
z
M 791 1659 
Q 791 1022 1069 705 
Q 1347 388 1769 388 
Q 2188 388 2466 706 
Q 2744 1025 2744 1678 
Q 2744 2294 2464 2611 
Q 2184 2928 1769 2928 
Q 1347 2928 1069 2612 
Q 791 2297 791 1659 
z
" transform="scale(0.015625)"/>
       <path id="ArialMT-69" d="M 425 3934 
L 425 4581 
L 988 4581 
L 988 3934 
L 425 3934 
z
M 425 0 
L 425 3319 
L 988 3319 
L 988 0 
L 425 0 
z
" transform="scale(0.015625)"/>
       <path id="ArialMT-74" d="M 1650 503 
L 1731 6 
Q 1494 -44 1306 -44 
Q 1000 -44 831 53 
Q 663 150 594 308 
Q 525 466 525 972 
L 525 2881 
L 113 2881 
L 113 3319 
L 525 3319 
L 525 4141 
L 1084 4478 
L 1084 3319 
L 1650 3319 
L 1650 2881 
L 1084 2881 
L 1084 941 
Q 1084 700 1114 631 
Q 1144 563 1211 522 
Q 1278 481 1403 481 
Q 1497 481 1650 503 
z
" transform="scale(0.015625)"/>
       <path id="ArialMT-76" d="M 1344 0 
L 81 3319 
L 675 3319 
L 1388 1331 
Q 1503 1009 1600 663 
Q 1675 925 1809 1294 
L 2547 3319 
L 3125 3319 
L 1869 0 
L 1344 0 
z
" transform="scale(0.015625)"/>
       <path id="ArialMT-72" d="M 416 0 
L 416 3319 
L 922 3319 
L 922 2816 
Q 1116 3169 1280 3281 
Q 1444 3394 1641 3394 
Q 1925 3394 2219 3213 
L 2025 2691 
Q 1819 2813 1613 2813 
Q 1428 2813 1281 2702 
Q 1134 2591 1072 2394 
Q 978 2094 978 1738 
L 978 0 
L 416 0 
z
" transform="scale(0.015625)"/>
      </defs>
      <use xlink:href="#ArialMT-46"/>
      <use xlink:href="#ArialMT-61" transform="translate(61.083984 0)"/>
      <use xlink:href="#ArialMT-6c" transform="translate(116.699219 0)"/>
      <use xlink:href="#ArialMT-73" transform="translate(138.916016 0)"/>
      <use xlink:href="#ArialMT-65" transform="translate(188.916016 0)"/>
      <use xlink:href="#ArialMT-20" transform="translate(244.53125 0)"/>
      <use xlink:href="#ArialMT-70" transform="translate(272.314453 0)"/>
      <use xlink:href="#ArialMT-6f" transform="translate(327.929688 0)"/>
      <use xlink:href="#ArialMT-73" transform="translate(383.544922 0)"/>
      <use xlink:href="#ArialMT-69" transform="translate(433.544922 0)"/>
      <use xlink:href="#ArialMT-74" transform="translate(455.761719 0)"/>
      <use xlink:href="#ArialMT-69" transform="translate(483.544922 0)"/>
      <use xlink:href="#ArialMT-76" transform="translate(505.761719 0)"/>
      <use xlink:href="#ArialMT-65" transform="translate(555.761719 0)"/>
      <use xlink:href="#ArialMT-20" transform="translate(611.376953 0)"/>
      <use xlink:href="#ArialMT-72" transform="translate(639.160156 0)"/>
      <use xlink:href="#ArialMT-61" transform="translate(672.460938 0)"/>
      <use xlink:href="#ArialMT-74" transform="translate(728.076172 0)"/>
      <use xlink:href="#ArialMT-65" transform="translate(755.859375 0)"/>
     </g>
    </g>
   </g>
   <g id="matplotlib.axis_2">
    <g id="ytick_1">
     <g id="line2d_7">
      <path d="M 46.964375 286.543125 
L 325.964375 286.543125 
" clip-path="url(#p26c9174377)" style="fill: none; stroke: #cccccc; stroke-linecap: round"/>
     </g>
     <g id="text_8">
      <!-- 0.0 -->
      <g style="fill: #262626" transform="translate(22.174375 290.479922) scale(0.11 -0.11)">
       <use xlink:href="#ArialMT-30"/>
       <use xlink:href="#ArialMT-2e" transform="translate(55.615234 0)"/>
       <use xlink:href="#ArialMT-30" transform="translate(83.398438 0)"/>
      </g>
     </g>
    </g>
    <g id="ytick_2">
     <g id="line2d_8">
      <path d="M 46.964375 236.143125 
L 325.964375 236.143125 
" clip-path="url(#p26c9174377)" style="fill: none; stroke: #cccccc; stroke-linecap: round"/>
     </g>
     <g id="text_9">
      <!-- 0.2 -->
      <g style="fill: #262626" transform="translate(22.174375 240.079922) scale(0.11 -0.11)">
       <use xlink:href="#ArialMT-30"/>
       <use xlink:href="#ArialMT-2e" transform="translate(55.615234 0)"/>
       <use xlink:href="#ArialMT-32" transform="translate(83.398438 0)"/>
      </g>
     </g>
    </g>
    <g id="ytick_3">
     <g id="line2d_9">
      <path d="M 46.964375 185.743125 
L 325.964375 185.743125 
" clip-path="url(#p26c9174377)" style="fill: none; stroke: #cccccc; stroke-linecap: round"/>
     </g>
     <g id="text_10">
      <!-- 0.4 -->
      <g style="fill: #262626" transform="translate(22.174375 189.679922) scale(0.11 -0.11)">
       <use xlink:href="#ArialMT-30"/>
       <use xlink:href="#ArialMT-2e" transform="translate(55.615234 0)"/>
       <use xlink:href="#ArialMT-34" transform="translate(83.398438 0)"/>
      </g>
     </g>
    </g>
    <g id="ytick_4">
     <g id="line2d_10">
      <path d="M 46.964375 135.343125 
L 325.964375 135.343125 
" clip-path="url(#p26c9174377)" style="fill: none; stroke: #cccccc; stroke-linecap: round"/>
     </g>
     <g id="text_11">
      <!-- 0.6 -->
      <g style="fill: #262626" transform="translate(22.174375 139.279922) scale(0.11 -0.11)">
       <use xlink:href="#ArialMT-30"/>
       <use xlink:href="#ArialMT-2e" transform="translate(55.615234 0)"/>
       <use xlink:href="#ArialMT-36" transform="translate(83.398438 0)"/>
      </g>
     </g>
    </g>
    <g id="ytick_5">
     <g id="line2d_11">
      <path d="M 46.964375 84.943125 
L 325.964375 84.943125 
" clip-path="url(#p26c9174377)" style="fill: none; stroke: #cccccc; stroke-linecap: round"/>
     </g>
     <g id="text_12">
      <!-- 0.8 -->
      <g style="fill: #262626" transform="translate(22.174375 88.879922) scale(0.11 -0.11)">
       <use xlink:href="#ArialMT-30"/>
       <use xlink:href="#ArialMT-2e" transform="translate(55.615234 0)"/>
       <use xlink:href="#ArialMT-38" transform="translate(83.398438 0)"/>
      </g>
     </g>
    </g>
    <g id="ytick_6">
     <g id="line2d_12">
      <path d="M 46.964375 34.543125 
L 325.964375 34.543125 
" clip-path="url(#p26c9174377)" style="fill: none; stroke: #cccccc; stroke-linecap: round"/>
     </g>
     <g id="text_13">
      <!-- 1.0 -->
      <g style="fill: #262626" transform="translate(22.174375 38.479922) scale(0.11 -0.11)">
       <use xlink:href="#ArialMT-31"/>
       <use xlink:href="#ArialMT-2e" transform="translate(55.615234 0)"/>
       <use xlink:href="#ArialMT-30" transform="translate(83.398438 0)"/>
      </g>
     </g>
    </g>
    <g id="text_14">
     <!-- True positive rate -->
     <g style="fill: #262626" transform="translate(15.789375 206.668125) rotate(-90) scale(0.12 -0.12)">
      <defs>
       <path id="ArialMT-54" d="M 1659 0 
L 1659 4041 
L 150 4041 
L 150 4581 
L 3781 4581 
L 3781 4041 
L 2266 4041 
L 2266 0 
L 1659 0 
z
" transform="scale(0.015625)"/>
       <path id="ArialMT-75" d="M 2597 0 
L 2597 488 
Q 2209 -75 1544 -75 
Q 1250 -75 995 37 
Q 741 150 617 320 
Q 494 491 444 738 
Q 409 903 409 1263 
L 409 3319 
L 972 3319 
L 972 1478 
Q 972 1038 1006 884 
Q 1059 663 1231 536 
Q 1403 409 1656 409 
Q 1909 409 2131 539 
Q 2353 669 2445 892 
Q 2538 1116 2538 1541 
L 2538 3319 
L 3100 3319 
L 3100 0 
L 2597 0 
z
" transform="scale(0.015625)"/>
      </defs>
      <use xlink:href="#ArialMT-54"/>
      <use xlink:href="#ArialMT-72" transform="translate(57.333984 0)"/>
      <use xlink:href="#ArialMT-75" transform="translate(90.634766 0)"/>
      <use xlink:href="#ArialMT-65" transform="translate(146.25 0)"/>
      <use xlink:href="#ArialMT-20" transform="translate(201.865234 0)"/>
      <use xlink:href="#ArialMT-70" transform="translate(229.648438 0)"/>
      <use xlink:href="#ArialMT-6f" transform="translate(285.263672 0)"/>
      <use xlink:href="#ArialMT-73" transform="translate(340.878906 0)"/>
      <use xlink:href="#ArialMT-69" transform="translate(390.878906 0)"/>
      <use xlink:href="#ArialMT-74" transform="translate(413.095703 0)"/>
      <use xlink:href="#ArialMT-69" transform="translate(440.878906 0)"/>
      <use xlink:href="#ArialMT-76" transform="translate(463.095703 0)"/>
      <use xlink:href="#ArialMT-65" transform="translate(513.095703 0)"/>
      <use xlink:href="#ArialMT-20" transform="translate(568.710938 0)"/>
      <use xlink:href="#ArialMT-72" transform="translate(596.494141 0)"/>
      <use xlink:href="#ArialMT-61" transform="translate(629.794922 0)"/>
      <use xlink:href="#ArialMT-74" transform="translate(685.410156 0)"/>
      <use xlink:href="#ArialMT-65" transform="translate(713.193359 0)"/>
     </g>
    </g>
   </g>
   <g id="line2d_13">
    <path d="M 59.646193 286.543125 
L 59.646193 279.039403 
L 59.805014 279.039403 
L 59.805014 272.786301 
L 59.963834 272.786301 
L 59.963834 257.153547 
L 60.122655 257.153547 
L 60.122655 255.277616 
L 60.757937 255.277616 
L 60.757937 254.652306 
L 60.916757 254.652306 
L 60.916757 250.275135 
L 61.075578 250.275135 
L 61.075578 247.773894 
L 61.234398 247.773894 
L 61.234398 247.148584 
L 61.552039 247.148584 
L 61.552039 245.272654 
L 61.71086 245.272654 
L 61.71086 243.396723 
L 62.028501 243.396723 
L 62.028501 242.771413 
L 62.346142 242.771413 
L 62.346142 242.146103 
L 62.504962 242.146103 
L 62.504962 241.520792 
L 62.822603 241.520792 
L 62.822603 240.895482 
L 63.140245 240.895482 
L 63.140245 239.644862 
L 63.299065 239.644862 
L 63.299065 235.893001 
L 63.457886 235.893001 
L 63.457886 230.89052 
L 63.616706 230.89052 
L 63.616706 229.639899 
L 63.775527 229.639899 
L 63.775527 222.761487 
L 63.934347 222.761487 
L 63.934347 221.510867 
L 64.251988 221.510867 
L 64.251988 220.885557 
L 64.410809 220.885557 
L 64.410809 220.260247 
L 64.569629 220.260247 
L 64.569629 219.009626 
L 64.88727 219.009626 
L 64.88727 217.133696 
L 65.046091 217.133696 
L 65.046091 216.508386 
L 65.204911 216.508386 
L 65.204911 215.883075 
L 65.363732 215.883075 
L 65.363732 214.007145 
L 65.840193 214.007145 
L 65.840193 209.629974 
L 65.999014 209.629974 
L 65.999014 208.379353 
L 66.316655 208.379353 
L 66.316655 207.128733 
L 66.793116 207.128733 
L 66.793116 205.252802 
L 66.951937 205.252802 
L 66.951937 204.627492 
L 67.110757 204.627492 
L 67.110757 204.002182 
L 67.428398 204.002182 
L 67.428398 203.376872 
L 67.587219 203.376872 
L 67.587219 202.751562 
L 67.90486 202.751562 
L 67.90486 202.126252 
L 68.063681 202.126252 
L 68.063681 201.500941 
L 68.381322 201.500941 
L 68.381322 199.625011 
L 68.857783 199.625011 
L 68.857783 198.999701 
L 69.493065 198.999701 
L 69.493065 198.374391 
L 69.969527 198.374391 
L 69.969527 197.12377 
L 70.128347 197.12377 
L 70.128347 194.622529 
L 70.604809 194.622529 
L 70.604809 193.371909 
L 70.92245 193.371909 
L 70.92245 192.746599 
L 71.398911 192.746599 
L 71.398911 192.121289 
L 71.557732 192.121289 
L 71.557732 191.495979 
L 72.034193 191.495979 
L 72.034193 190.245358 
L 72.193014 190.245358 
L 72.193014 187.744118 
L 72.351834 187.744118 
L 72.351834 187.118807 
L 72.510655 187.118807 
L 72.510655 185.868187 
L 72.828296 185.868187 
L 72.828296 183.366946 
L 73.304758 183.366946 
L 73.304758 182.741636 
L 73.463578 182.741636 
L 73.463578 181.491016 
L 73.622399 181.491016 
L 73.622399 180.865706 
L 73.781219 180.865706 
L 73.781219 178.364465 
L 74.257681 178.364465 
L 74.257681 177.739155 
L 74.416501 177.739155 
L 74.416501 175.863224 
L 74.575322 175.863224 
L 74.575322 175.237914 
L 74.892963 175.237914 
L 74.892963 173.361984 
L 75.369424 173.361984 
L 75.369424 172.736673 
L 75.845886 172.736673 
L 75.845886 171.486053 
L 76.004706 171.486053 
L 76.004706 170.235433 
L 76.163527 170.235433 
L 76.163527 168.984812 
L 76.322347 168.984812 
L 76.322347 168.359502 
L 76.481168 168.359502 
L 76.481168 165.858261 
L 76.639988 165.858261 
L 76.639988 164.607641 
L 76.798809 164.607641 
L 76.798809 163.982331 
L 77.434091 163.982331 
L 77.434091 163.357021 
L 77.910552 163.357021 
L 77.910552 162.1064 
L 78.228194 162.1064 
L 78.228194 161.48109 
L 78.704655 161.48109 
L 78.704655 160.85578 
L 79.022296 160.85578 
L 79.022296 159.60516 
L 79.339937 159.60516 
L 79.339937 158.97985 
L 79.498758 158.97985 
L 79.498758 157.729229 
L 79.657578 157.729229 
L 79.657578 157.103919 
L 79.975219 157.103919 
L 79.975219 156.478609 
L 80.29286 156.478609 
L 80.29286 155.853299 
L 80.928142 155.853299 
L 80.928142 155.227989 
L 81.722245 155.227989 
L 81.722245 153.977368 
L 82.675168 153.977368 
L 82.675168 153.352058 
L 82.833988 153.352058 
L 82.833988 152.726748 
L 83.469271 152.726748 
L 83.469271 152.101438 
L 83.786912 152.101438 
L 83.786912 150.850817 
L 84.104553 150.850817 
L 84.104553 150.225507 
L 84.422194 150.225507 
L 84.422194 149.600197 
L 84.581014 149.600197 
L 84.581014 148.974887 
L 84.739835 148.974887 
L 84.739835 147.724266 
L 85.057476 147.724266 
L 85.057476 147.098956 
L 85.533937 147.098956 
L 85.533937 145.223026 
L 86.963322 145.223026 
L 86.963322 144.597716 
L 87.122142 144.597716 
L 87.122142 143.347095 
L 87.280963 143.347095 
L 87.280963 142.721785 
L 88.869168 142.721785 
L 88.869168 142.096475 
L 89.027989 142.096475 
L 89.027989 140.845855 
L 89.663271 140.845855 
L 89.663271 140.220544 
L 90.298553 140.220544 
L 90.298553 138.969924 
L 90.616194 138.969924 
L 90.616194 138.344614 
L 90.775014 138.344614 
L 90.775014 137.719304 
L 91.092655 137.719304 
L 91.092655 137.093993 
L 91.251476 137.093993 
L 91.251476 136.468683 
L 91.569117 136.468683 
L 91.569117 135.843373 
L 91.727937 135.843373 
L 91.727937 135.218063 
L 92.68086 135.218063 
L 92.68086 133.342132 
L 93.316143 133.342132 
L 93.316143 132.091512 
L 93.474963 132.091512 
L 93.474963 131.466202 
L 93.633784 131.466202 
L 93.633784 130.215582 
L 93.792604 130.215582 
L 93.792604 129.590271 
L 94.110245 129.590271 
L 94.110245 128.964961 
L 94.586707 128.964961 
L 94.586707 128.339651 
L 94.745527 128.339651 
L 94.745527 127.714341 
L 94.904348 127.714341 
L 94.904348 127.089031 
L 95.53963 127.089031 
L 95.53963 126.463721 
L 96.810194 126.463721 
L 96.810194 125.2131 
L 96.969014 125.2131 
L 96.969014 124.58779 
L 97.445476 124.58779 
L 97.445476 123.96248 
L 97.763117 123.96248 
L 97.763117 122.711859 
L 98.398399 122.711859 
L 98.398399 122.086549 
L 98.55722 122.086549 
L 98.55722 121.461239 
L 98.71604 121.461239 
L 98.71604 120.835929 
L 99.192502 120.835929 
L 99.192502 119.585309 
L 99.351322 119.585309 
L 99.351322 118.959998 
L 99.668963 118.959998 
L 99.668963 117.709378 
L 100.780707 117.709378 
L 100.780707 115.833448 
L 102.368912 115.833448 
L 102.368912 115.208137 
L 103.163014 115.208137 
L 103.163014 113.957517 
L 104.592399 113.957517 
L 104.592399 112.081587 
L 106.021784 112.081587 
L 106.021784 111.456276 
L 106.339425 111.456276 
L 106.339425 110.830966 
L 106.974707 110.830966 
L 106.974707 110.205656 
L 107.451168 110.205656 
L 107.451168 108.329725 
L 107.609989 108.329725 
L 107.609989 107.704415 
L 107.92763 107.704415 
L 107.92763 107.079105 
L 109.357015 107.079105 
L 109.357015 106.453795 
L 110.309938 106.453795 
L 110.309938 105.828485 
L 111.10404 105.828485 
L 111.10404 105.203175 
L 111.262861 105.203175 
L 111.262861 104.577864 
L 111.421681 104.577864 
L 111.421681 103.952554 
L 112.215784 103.952554 
L 112.215784 103.327244 
L 112.851066 103.327244 
L 112.851066 102.701934 
L 113.803989 102.701934 
L 113.803989 101.451314 
L 116.186297 101.451314 
L 116.186297 100.826003 
L 116.821579 100.826003 
L 116.821579 100.200693 
L 116.980399 100.200693 
L 116.980399 98.950073 
L 118.092143 98.950073 
L 118.092143 98.324763 
L 118.568605 98.324763 
L 118.568605 97.699453 
L 120.31563 97.699453 
L 120.31563 96.448832 
L 120.474451 96.448832 
L 120.474451 95.823522 
L 121.427374 95.823522 
L 121.427374 95.198212 
L 121.745015 95.198212 
L 121.745015 94.572902 
L 123.33322 94.572902 
L 123.33322 93.947592 
L 124.444964 93.947592 
L 124.444964 93.322281 
L 127.939015 93.322281 
L 127.939015 92.696971 
L 128.574297 92.696971 
L 128.574297 92.071661 
L 129.3684 92.071661 
L 129.3684 90.821041 
L 132.068348 90.821041 
L 132.068348 88.94511 
L 132.227169 88.94511 
L 132.227169 88.3198 
L 132.862451 88.3198 
L 132.862451 87.69449 
L 133.497733 87.69449 
L 133.497733 87.06918 
L 135.403579 87.06918 
L 135.403579 86.443869 
L 137.468246 86.443869 
L 137.468246 85.818559 
L 137.627066 85.818559 
L 137.627066 85.193249 
L 138.103528 85.193249 
L 138.103528 84.567939 
L 139.850554 84.567939 
L 139.850554 83.942629 
L 141.7564 83.942629 
L 141.7564 83.317319 
L 144.297528 83.317319 
L 144.297528 82.692008 
L 144.615169 82.692008 
L 144.615169 82.066698 
L 145.091631 82.066698 
L 145.091631 81.441388 
L 145.568092 81.441388 
L 145.568092 80.816078 
L 146.203374 80.816078 
L 146.203374 80.190768 
L 146.838656 80.190768 
L 146.838656 79.565458 
L 150.96799 79.565458 
L 150.96799 78.940147 
L 152.079733 78.940147 
L 152.079733 78.314837 
L 152.715015 78.314837 
L 152.715015 77.689527 
L 153.032656 77.689527 
L 153.032656 76.438907 
L 153.98558 76.438907 
L 153.98558 75.813596 
L 154.620862 75.813596 
L 154.620862 75.188286 
L 155.573785 75.188286 
L 155.573785 74.562976 
L 156.844349 74.562976 
L 156.844349 73.937666 
L 157.479631 73.937666 
L 157.479631 73.312356 
L 157.797272 73.312356 
L 157.797272 72.687046 
L 158.273733 72.687046 
L 158.273733 72.061735 
L 158.750195 72.061735 
L 158.750195 71.436425 
L 159.226657 71.436425 
L 159.226657 70.811115 
L 159.861939 70.811115 
L 159.861939 70.185805 
L 161.608964 70.185805 
L 161.608964 69.560495 
L 162.244246 69.560495 
L 162.244246 68.935185 
L 170.820554 68.935185 
L 170.820554 68.309874 
L 172.408759 68.309874 
L 172.408759 67.684564 
L 172.56758 67.684564 
L 172.56758 67.059254 
L 173.202862 67.059254 
L 173.202862 66.433944 
L 175.267529 66.433944 
L 175.267529 65.183324 
L 175.902811 65.183324 
L 175.902811 64.558013 
L 177.173375 64.558013 
L 177.173375 63.932703 
L 177.332195 63.932703 
L 177.332195 63.307393 
L 181.620349 63.307393 
L 181.620349 62.682083 
L 182.096811 62.682083 
L 182.096811 62.056773 
L 182.573272 62.056773 
L 182.573272 61.431462 
L 183.685016 61.431462 
L 183.685016 60.806152 
L 184.161478 60.806152 
L 184.161478 60.180842 
L 184.79676 60.180842 
L 184.79676 58.930222 
L 188.767272 58.930222 
L 188.767272 57.679601 
L 189.561375 57.679601 
L 189.561375 57.054291 
L 192.737785 57.054291 
L 192.737785 56.428981 
L 195.755375 56.428981 
L 195.755375 54.553051 
L 201.155273 54.553051 
L 201.155273 53.92774 
L 202.425837 53.92774 
L 202.425837 53.30243 
L 203.696401 53.30243 
L 203.696401 52.67712 
L 205.602247 52.67712 
L 205.602247 51.4265 
L 207.508093 51.4265 
L 207.508093 50.80119 
L 208.937478 50.80119 
L 208.937478 50.175879 
L 216.084401 50.175879 
L 216.084401 49.550569 
L 217.354965 49.550569 
L 217.354965 48.925259 
L 219.578453 48.925259 
L 219.578453 48.299949 
L 222.754863 48.299949 
L 222.754863 47.049328 
L 223.548965 47.049328 
L 223.548965 46.424018 
L 224.660709 46.424018 
L 224.660709 45.798708 
L 228.313581 45.798708 
L 228.313581 45.173398 
L 229.742966 45.173398 
L 229.742966 44.548088 
L 234.34876 44.548088 
L 234.34876 43.922778 
L 239.907479 43.922778 
L 239.907479 43.297467 
L 241.019222 43.297467 
L 241.019222 42.046847 
L 242.289786 42.046847 
L 242.289786 41.421537 
L 243.719171 41.421537 
L 243.719171 40.796227 
L 252.930761 40.796227 
L 252.930761 40.170917 
L 259.601222 40.170917 
L 259.601222 39.545606 
L 259.918864 39.545606 
L 259.918864 38.920296 
L 262.459992 38.920296 
L 262.459992 38.294986 
L 264.524658 38.294986 
L 264.524658 37.669676 
L 270.559838 37.669676 
L 270.559838 37.044366 
L 275.959736 37.044366 
L 275.959736 36.419056 
L 292.318249 36.419056 
L 292.318249 35.793745 
L 295.971121 35.793745 
L 295.971121 35.168435 
L 298.353428 35.168435 
L 298.353428 34.543125 
L 313.282557 34.543125 
L 313.282557 34.543125 
" clip-path="url(#p26c9174377)" style="fill: none; stroke: #4c72b0; stroke-width: 2; stroke-linecap: round"/>
   </g>
   <g id="line2d_14">
    <path d="M 59.646193 286.543125 
L 313.282557 34.543125 
" clip-path="url(#p26c9174377)" style="fill: none; stroke-dasharray: 3.7,1.6; stroke-dashoffset: 0; stroke: #1a1a1a"/>
   </g>
   <g id="patch_3">
    <path d="M 46.964375 299.143125 
L 46.964375 21.943125 
" style="fill: none; stroke: #cccccc; stroke-width: 1.25; stroke-linejoin: miter; stroke-linecap: square"/>
   </g>
   <g id="patch_4">
    <path d="M 325.964375 299.143125 
L 325.964375 21.943125 
" style="fill: none; stroke: #cccccc; stroke-width: 1.25; stroke-linejoin: miter; stroke-linecap: square"/>
   </g>
   <g id="patch_5">
    <path d="M 46.964375 299.143125 
L 325.964375 299.143125 
" style="fill: none; stroke: #cccccc; stroke-width: 1.25; stroke-linejoin: miter; stroke-linecap: square"/>
   </g>
   <g id="patch_6">
    <path d="M 46.964375 21.943125 
L 325.964375 21.943125 
" style="fill: none; stroke: #cccccc; stroke-width: 1.25; stroke-linejoin: miter; stroke-linecap: square"/>
   </g>
   <g id="text_15">
    <!-- ROC curve (LOSO) -->
    <g style="fill: #262626" transform="translate(134.458438 15.943125) scale(0.12 -0.12)">
     <defs>
      <path id="ArialMT-52" d="M 503 0 
L 503 4581 
L 2534 4581 
Q 3147 4581 3465 4457 
Q 3784 4334 3975 4021 
Q 4166 3709 4166 3331 
Q 4166 2844 3850 2509 
Q 3534 2175 2875 2084 
Q 3116 1969 3241 1856 
Q 3506 1613 3744 1247 
L 4541 0 
L 3778 0 
L 3172 953 
Q 2906 1366 2734 1584 
Q 2563 1803 2427 1890 
Q 2291 1978 2150 2013 
Q 2047 2034 1813 2034 
L 1109 2034 
L 1109 0 
L 503 0 
z
M 1109 2559 
L 2413 2559 
Q 2828 2559 3062 2645 
Q 3297 2731 3419 2920 
Q 3541 3109 3541 3331 
Q 3541 3656 3305 3865 
Q 3069 4075 2559 4075 
L 1109 4075 
L 1109 2559 
z
" transform="scale(0.015625)"/>
      <path id="ArialMT-4f" d="M 309 2231 
Q 309 3372 921 4017 
Q 1534 4663 2503 4663 
Q 3138 4663 3647 4359 
Q 4156 4056 4423 3514 
Q 4691 2972 4691 2284 
Q 4691 1588 4409 1038 
Q 4128 488 3612 205 
Q 3097 -78 2500 -78 
Q 1853 -78 1343 234 
Q 834 547 571 1087 
Q 309 1628 309 2231 
z
M 934 2222 
Q 934 1394 1379 917 
Q 1825 441 2497 441 
Q 3181 441 3623 922 
Q 4066 1403 4066 2288 
Q 4066 2847 3877 3264 
Q 3688 3681 3323 3911 
Q 2959 4141 2506 4141 
Q 1863 4141 1398 3698 
Q 934 3256 934 2222 
z
" transform="scale(0.015625)"/>
      <path id="ArialMT-43" d="M 3763 1606 
L 4369 1453 
Q 4178 706 3683 314 
Q 3188 -78 2472 -78 
Q 1731 -78 1267 223 
Q 803 525 561 1097 
Q 319 1669 319 2325 
Q 319 3041 592 3573 
Q 866 4106 1370 4382 
Q 1875 4659 2481 4659 
Q 3169 4659 3637 4309 
Q 4106 3959 4291 3325 
L 3694 3184 
Q 3534 3684 3231 3912 
Q 2928 4141 2469 4141 
Q 1941 4141 1586 3887 
Q 1231 3634 1087 3207 
Q 944 2781 944 2328 
Q 944 1744 1114 1308 
Q 1284 872 1643 656 
Q 2003 441 2422 441 
Q 2931 441 3284 734 
Q 3638 1028 3763 1606 
z
" transform="scale(0.015625)"/>
      <path id="ArialMT-63" d="M 2588 1216 
L 3141 1144 
Q 3050 572 2676 248 
Q 2303 -75 1759 -75 
Q 1078 -75 664 370 
Q 250 816 250 1647 
Q 250 2184 428 2587 
Q 606 2991 970 3192 
Q 1334 3394 1763 3394 
Q 2303 3394 2647 3120 
Q 2991 2847 3088 2344 
L 2541 2259 
Q 2463 2594 2264 2762 
Q 2066 2931 1784 2931 
Q 1359 2931 1093 2626 
Q 828 2322 828 1663 
Q 828 994 1084 691 
Q 1341 388 1753 388 
Q 2084 388 2306 591 
Q 2528 794 2588 1216 
z
" transform="scale(0.015625)"/>
      <path id="ArialMT-28" d="M 1497 -1347 
Q 1031 -759 709 28 
Q 388 816 388 1659 
Q 388 2403 628 3084 
Q 909 3875 1497 4659 
L 1900 4659 
Q 1522 4009 1400 3731 
Q 1209 3300 1100 2831 
Q 966 2247 966 1656 
Q 966 153 1900 -1347 
L 1497 -1347 
z
" transform="scale(0.015625)"/>
      <path id="ArialMT-4c" d="M 469 0 
L 469 4581 
L 1075 4581 
L 1075 541 
L 3331 541 
L 3331 0 
L 469 0 
z
" transform="scale(0.015625)"/>
      <path id="ArialMT-53" d="M 288 1472 
L 859 1522 
Q 900 1178 1048 958 
Q 1197 738 1509 602 
Q 1822 466 2213 466 
Q 2559 466 2825 569 
Q 3091 672 3220 851 
Q 3350 1031 3350 1244 
Q 3350 1459 3225 1620 
Q 3100 1781 2813 1891 
Q 2628 1963 1997 2114 
Q 1366 2266 1113 2400 
Q 784 2572 623 2826 
Q 463 3081 463 3397 
Q 463 3744 659 4045 
Q 856 4347 1234 4503 
Q 1613 4659 2075 4659 
Q 2584 4659 2973 4495 
Q 3363 4331 3572 4012 
Q 3781 3694 3797 3291 
L 3216 3247 
Q 3169 3681 2898 3903 
Q 2628 4125 2100 4125 
Q 1550 4125 1298 3923 
Q 1047 3722 1047 3438 
Q 1047 3191 1225 3031 
Q 1400 2872 2139 2705 
Q 2878 2538 3153 2413 
Q 3553 2228 3743 1945 
Q 3934 1663 3934 1294 
Q 3934 928 3725 604 
Q 3516 281 3123 101 
Q 2731 -78 2241 -78 
Q 1619 -78 1198 103 
Q 778 284 539 648 
Q 300 1013 288 1472 
z
" transform="scale(0.015625)"/>
      <path id="ArialMT-29" d="M 791 -1347 
L 388 -1347 
Q 1322 153 1322 1656 
Q 1322 2244 1188 2822 
Q 1081 3291 891 3722 
Q 769 4003 388 4659 
L 791 4659 
Q 1378 3875 1659 3084 
Q 1900 2403 1900 1659 
Q 1900 816 1576 28 
Q 1253 -759 791 -1347 
z
" transform="scale(0.015625)"/>
     </defs>
     <use xlink:href="#ArialMT-52"/>
     <use xlink:href="#ArialMT-4f" transform="translate(72.216797 0)"/>
     <use xlink:href="#ArialMT-43" transform="translate(150 0)"/>
     <use xlink:href="#ArialMT-20" transform="translate(222.216797 0)"/>
     <use xlink:href="#ArialMT-63" transform="translate(250 0)"/>
     <use xlink:href="#ArialMT-75" transform="translate(300 0)"/>
     <use xlink:href="#ArialMT-72" transform="translate(355.615234 0)"/>
     <use xlink:href="#ArialMT-76" transform="translate(388.916016 0)"/>
     <use xlink:href="#ArialMT-65" transform="translate(438.916016 0)"/>
     <use xlink:href="#ArialMT-20" transform="translate(494.53125 0)"/>
     <use xlink:href="#ArialMT-28" transform="translate(522.314453 0)"/>
     <use xlink:href="#ArialMT-4c" transform="translate(555.615234 0)"/>
     <use xlink:href="#ArialMT-4f" transform="translate(611.230469 0)"/>
     <use xlink:href="#ArialMT-53" transform="translate(689.013672 0)"/>
     <use xlink:href="#ArialMT-4f" transform="translate(755.712891 0)"/>
     <use xlink:href="#ArialMT-29" transform="translate(833.496094 0)"/>
    </g>
   </g>
   <g id="legend_1">
    <g id="patch_7">
     <path d="M 169.049375 293.643125 
L 318.264375 293.643125 
Q 320.464375 293.643125 320.464375 291.443125 
L 320.464375 276.720313 
Q 320.464375 274.520313 318.264375 274.520313 
L 169.049375 274.520313 
Q 166.849375 274.520313 166.849375 276.720313 
L 166.849375 291.443125 
Q 166.849375 293.643125 169.049375 293.643125 
z
" style="fill: #ffffff; opacity: 0.8; stroke: #cccccc; stroke-linejoin: miter"/>
    </g>
    <g id="line2d_15">
     <path d="M 171.249375 283.077969 
L 182.249375 283.077969 
L 193.249375 283.077969 
" style="fill: none; stroke: #4c72b0; stroke-width: 2; stroke-linecap: round"/>
    </g>
    <g id="text_16">
     <!-- EEGNet (AUC = 0.831) -->
     <g style="fill: #262626" transform="translate(202.049375 286.927969) scale(0.11 -0.11)">
      <defs>
       <path id="ArialMT-45" d="M 506 0 
L 506 4581 
L 3819 4581 
L 3819 4041 
L 1113 4041 
L 1113 2638 
L 3647 2638 
L 3647 2100 
L 1113 2100 
L 1113 541 
L 3925 541 
L 3925 0 
L 506 0 
z
" transform="scale(0.015625)"/>
       <path id="ArialMT-47" d="M 2638 1797 
L 2638 2334 
L 4578 2338 
L 4578 638 
Q 4131 281 3656 101 
Q 3181 -78 2681 -78 
Q 2006 -78 1454 211 
Q 903 500 622 1047 
Q 341 1594 341 2269 
Q 341 2938 620 3517 
Q 900 4097 1425 4378 
Q 1950 4659 2634 4659 
Q 3131 4659 3532 4498 
Q 3934 4338 4162 4050 
Q 4391 3763 4509 3300 
L 3963 3150 
Q 3859 3500 3706 3700 
Q 3553 3900 3268 4020 
Q 2984 4141 2638 4141 
Q 2222 4141 1919 4014 
Q 1616 3888 1430 3681 
Q 1244 3475 1141 3228 
Q 966 2803 966 2306 
Q 966 1694 1177 1281 
Q 1388 869 1791 669 
Q 2194 469 2647 469 
Q 3041 469 3416 620 
Q 3791 772 3984 944 
L 3984 1797 
L 2638 1797 
z
" transform="scale(0.015625)"/>
       <path id="ArialMT-4e" d="M 488 0 
L 488 4581 
L 1109 4581 
L 3516 984 
L 3516 4581 
L 4097 4581 
L 4097 0 
L 3475 0 
L 1069 3600 
L 1069 0 
L 488 0 
z
" transform="scale(0.015625)"/>
       <path id="ArialMT-41" d="M -9 0 
L 1750 4581 
L 2403 4581 
L 4278 0 
L 3588 0 
L 3053 1388 
L 1138 1388 
L 634 0 
L -9 0 
z
M 1313 1881 
L 2866 1881 
L 2388 3150 
Q 2169 3728 2063 4100 
Q 1975 3659 1816 3225 
L 1313 1881 
z
" transform="scale(0.015625)"/>
       <path id="ArialMT-55" d="M 3500 4581 
L 4106 4581 
L 4106 1934 
Q 4106 1244 3950 837 
Q 3794 431 3386 176 
Q 2978 -78 2316 -78 
Q 1672 -78 1262 144 
Q 853 366 678 786 
Q 503 1206 503 1934 
L 503 4581 
L 1109 4581 
L 1109 1938 
Q 1109 1341 1220 1058 
Q 1331 775 1601 622 
Q 1872 469 2263 469 
Q 2931 469 3215 772 
Q 3500 1075 3500 1938 
L 3500 4581 
z
" transform="scale(0.015625)"/>
       <path id="ArialMT-3d" d="M 3381 2694 
L 356 2694 
L 356 3219 
L 3381 3219 
L 3381 2694 
z
M 3381 1303 
L 356 1303 
L 356 1828 
L 3381 1828 
L 3381 1303 
z
" transform="scale(0.015625)"/>
       <path id="ArialMT-33" d="M 269 1209 
L 831 1284 
Q 928 806 1161 595 
Q 1394 384 1728 384 
Q 2125 384 2398 659 
Q 2672 934 2672 1341 
Q 2672 1728 2419 1979 
Q 2166 2231 1775 2231 
Q 1616 2231 1378 2169 
L 1441 2663 
Q 1497 2656 1531 2656 
Q 1891 2656 2178 2843 
Q 2466 3031 2466 3422 
Q 2466 3731 2256 3934 
Q 2047 4138 1716 4138 
Q 1388 4138 1169 3931 
Q 950 3725 888 3313 
L 325 3413 
Q 428 3978 793 4289 
Q 1159 4600 1703 4600 
Q 2078 4600 2393 4439 
Q 2709 4278 2876 4000 
Q 3044 3722 3044 3409 
Q 3044 3113 2884 2869 
Q 2725 2625 2413 2481 
Q 2819 2388 3044 2092 
Q 3269 1797 3269 1353 
Q 3269 753 2831 336 
Q 2394 -81 1725 -81 
Q 1122 -81 723 278 
Q 325 638 269 1209 
z
" transform="scale(0.015625)"/>
      </defs>
      <use xlink:href="#ArialMT-45"/>
      <use xlink:href="#ArialMT-45" transform="translate(66.699219 0)"/>
      <use xlink:href="#ArialMT-47" transform="translate(133.398438 0)"/>
      <use xlink:href="#ArialMT-4e" transform="translate(211.181641 0)"/>
      <use xlink:href="#ArialMT-65" transform="translate(283.398438 0)"/>
      <use xlink:href="#ArialMT-74" transform="translate(339.013672 0)"/>
      <use xlink:href="#ArialMT-20" transform="translate(366.796875 0)"/>
      <use xlink:href="#ArialMT-28" transform="translate(394.580078 0)"/>
      <use xlink:href="#ArialMT-41" transform="translate(427.880859 0)"/>
      <use xlink:href="#ArialMT-55" transform="translate(494.580078 0)"/>
      <use xlink:href="#ArialMT-43" transform="translate(566.796875 0)"/>
      <use xlink:href="#ArialMT-20" transform="translate(639.013672 0)"/>
      <use xlink:href="#ArialMT-3d" transform="translate(666.796875 0)"/>
      <use xlink:href="#ArialMT-20" transform="translate(725.195312 0)"/>
      <use xlink:href="#ArialMT-30" transform="translate(752.978516 0)"/>
      <use xlink:href="#ArialMT-2e" transform="translate(808.59375 0)"/>
      <use xlink:href="#ArialMT-38" transform="translate(836.376953 0)"/>
      <use xlink:href="#ArialMT-33" transform="translate(891.992188 0)"/>
      <use xlink:href="#ArialMT-31" transform="translate(947.607422 0)"/>
      <use xlink:href="#ArialMT-29" transform="translate(1003.222656 0)"/>
     </g>
    </g>
   </g>
  </g>
 </g>
 <defs>
  <clipPath id="p26c9174377">
   <rect x="46.964375" y="21.943125" width="279" height="277.2"/>
  </clipPath>
 </defs>
</svg>
